G04 #@! TF.FileFunction,Legend,Top*
%FSLAX46Y46*%
G04 Gerber Fmt 4.6, Leading zero omitted, Abs format (unit mm)*
G04 Created by KiCad (PCBNEW 4.0.1-stable) date 2016/08/25 3:11:25*
%MOMM*%
G01*
G04 APERTURE LIST*
%ADD10C,0.100000*%
%ADD11C,0.150000*%
%ADD12C,0.200000*%
G04 APERTURE END LIST*
D10*
D11*
X9816667Y-18209524D02*
X9816667Y-17733333D01*
X10102381Y-18304762D02*
X9102381Y-17971429D01*
X10102381Y-17638095D01*
X10007143Y-16733333D02*
X10054762Y-16780952D01*
X10102381Y-16923809D01*
X10102381Y-17019047D01*
X10054762Y-17161905D01*
X9959524Y-17257143D01*
X9864286Y-17304762D01*
X9673810Y-17352381D01*
X9530952Y-17352381D01*
X9340476Y-17304762D01*
X9245238Y-17257143D01*
X9150000Y-17161905D01*
X9102381Y-17019047D01*
X9102381Y-16923809D01*
X9150000Y-16780952D01*
X9197619Y-16733333D01*
X10007143Y-14971428D02*
X10054762Y-15019047D01*
X10102381Y-15161904D01*
X10102381Y-15257142D01*
X10054762Y-15400000D01*
X9959524Y-15495238D01*
X9864286Y-15542857D01*
X9673810Y-15590476D01*
X9530952Y-15590476D01*
X9340476Y-15542857D01*
X9245238Y-15495238D01*
X9150000Y-15400000D01*
X9102381Y-15257142D01*
X9102381Y-15161904D01*
X9150000Y-15019047D01*
X9197619Y-14971428D01*
X9435714Y-14114285D02*
X10102381Y-14114285D01*
X9435714Y-14542857D02*
X9959524Y-14542857D01*
X10054762Y-14495238D01*
X10102381Y-14400000D01*
X10102381Y-14257142D01*
X10054762Y-14161904D01*
X10007143Y-14114285D01*
X10102381Y-13638095D02*
X9435714Y-13638095D01*
X9626190Y-13638095D02*
X9530952Y-13590476D01*
X9483333Y-13542857D01*
X9435714Y-13447619D01*
X9435714Y-13352380D01*
X10102381Y-13019047D02*
X9435714Y-13019047D01*
X9626190Y-13019047D02*
X9530952Y-12971428D01*
X9483333Y-12923809D01*
X9435714Y-12828571D01*
X9435714Y-12733332D01*
X10054762Y-12019046D02*
X10102381Y-12114284D01*
X10102381Y-12304761D01*
X10054762Y-12399999D01*
X9959524Y-12447618D01*
X9578571Y-12447618D01*
X9483333Y-12399999D01*
X9435714Y-12304761D01*
X9435714Y-12114284D01*
X9483333Y-12019046D01*
X9578571Y-11971427D01*
X9673810Y-11971427D01*
X9769048Y-12447618D01*
X9435714Y-11542856D02*
X10102381Y-11542856D01*
X9530952Y-11542856D02*
X9483333Y-11495237D01*
X9435714Y-11399999D01*
X9435714Y-11257141D01*
X9483333Y-11161903D01*
X9578571Y-11114284D01*
X10102381Y-11114284D01*
X9435714Y-10780951D02*
X9435714Y-10399999D01*
X9102381Y-10638094D02*
X9959524Y-10638094D01*
X10054762Y-10590475D01*
X10102381Y-10495237D01*
X10102381Y-10399999D01*
X10054762Y-9352379D02*
X10102381Y-9209522D01*
X10102381Y-8971426D01*
X10054762Y-8876188D01*
X10007143Y-8828569D01*
X9911905Y-8780950D01*
X9816667Y-8780950D01*
X9721429Y-8828569D01*
X9673810Y-8876188D01*
X9626190Y-8971426D01*
X9578571Y-9161903D01*
X9530952Y-9257141D01*
X9483333Y-9304760D01*
X9388095Y-9352379D01*
X9292857Y-9352379D01*
X9197619Y-9304760D01*
X9150000Y-9257141D01*
X9102381Y-9161903D01*
X9102381Y-8923807D01*
X9150000Y-8780950D01*
X10054762Y-7971426D02*
X10102381Y-8066664D01*
X10102381Y-8257141D01*
X10054762Y-8352379D01*
X9959524Y-8399998D01*
X9578571Y-8399998D01*
X9483333Y-8352379D01*
X9435714Y-8257141D01*
X9435714Y-8066664D01*
X9483333Y-7971426D01*
X9578571Y-7923807D01*
X9673810Y-7923807D01*
X9769048Y-8399998D01*
X9435714Y-7495236D02*
X10102381Y-7495236D01*
X9530952Y-7495236D02*
X9483333Y-7447617D01*
X9435714Y-7352379D01*
X9435714Y-7209521D01*
X9483333Y-7114283D01*
X9578571Y-7066664D01*
X10102381Y-7066664D01*
X10054762Y-6638093D02*
X10102381Y-6542855D01*
X10102381Y-6352379D01*
X10054762Y-6257140D01*
X9959524Y-6209521D01*
X9911905Y-6209521D01*
X9816667Y-6257140D01*
X9769048Y-6352379D01*
X9769048Y-6495236D01*
X9721429Y-6590474D01*
X9626190Y-6638093D01*
X9578571Y-6638093D01*
X9483333Y-6590474D01*
X9435714Y-6495236D01*
X9435714Y-6352379D01*
X9483333Y-6257140D01*
X10102381Y-5638093D02*
X10054762Y-5733331D01*
X10007143Y-5780950D01*
X9911905Y-5828569D01*
X9626190Y-5828569D01*
X9530952Y-5780950D01*
X9483333Y-5733331D01*
X9435714Y-5638093D01*
X9435714Y-5495235D01*
X9483333Y-5399997D01*
X9530952Y-5352378D01*
X9626190Y-5304759D01*
X9911905Y-5304759D01*
X10007143Y-5352378D01*
X10054762Y-5399997D01*
X10102381Y-5495235D01*
X10102381Y-5638093D01*
X10102381Y-4876188D02*
X9435714Y-4876188D01*
X9626190Y-4876188D02*
X9530952Y-4828569D01*
X9483333Y-4780950D01*
X9435714Y-4685712D01*
X9435714Y-4590473D01*
X11652381Y-17590476D02*
X11176190Y-17923810D01*
X11652381Y-18161905D02*
X10652381Y-18161905D01*
X10652381Y-17780952D01*
X10700000Y-17685714D01*
X10747619Y-17638095D01*
X10842857Y-17590476D01*
X10985714Y-17590476D01*
X11080952Y-17638095D01*
X11128571Y-17685714D01*
X11176190Y-17780952D01*
X11176190Y-18161905D01*
X11604762Y-16780952D02*
X11652381Y-16876190D01*
X11652381Y-17066667D01*
X11604762Y-17161905D01*
X11509524Y-17209524D01*
X11128571Y-17209524D01*
X11033333Y-17161905D01*
X10985714Y-17066667D01*
X10985714Y-16876190D01*
X11033333Y-16780952D01*
X11128571Y-16733333D01*
X11223810Y-16733333D01*
X11319048Y-17209524D01*
X10985714Y-16400000D02*
X11652381Y-16161905D01*
X10985714Y-15923809D01*
X11557143Y-15542857D02*
X11604762Y-15495238D01*
X11652381Y-15542857D01*
X11604762Y-15590476D01*
X11557143Y-15542857D01*
X11652381Y-15542857D01*
X11366667Y-15114286D02*
X11366667Y-14638095D01*
X11652381Y-15209524D02*
X10652381Y-14876191D01*
X11652381Y-14542857D01*
X11366667Y-13495238D02*
X11366667Y-13019047D01*
X11652381Y-13590476D02*
X10652381Y-13257143D01*
X11652381Y-12923809D01*
X10985714Y-12161904D02*
X11652381Y-12161904D01*
X10985714Y-12590476D02*
X11509524Y-12590476D01*
X11604762Y-12542857D01*
X11652381Y-12447619D01*
X11652381Y-12304761D01*
X11604762Y-12209523D01*
X11557143Y-12161904D01*
X10985714Y-11257142D02*
X11795238Y-11257142D01*
X11890476Y-11304761D01*
X11938095Y-11352380D01*
X11985714Y-11447619D01*
X11985714Y-11590476D01*
X11938095Y-11685714D01*
X11604762Y-11257142D02*
X11652381Y-11352380D01*
X11652381Y-11542857D01*
X11604762Y-11638095D01*
X11557143Y-11685714D01*
X11461905Y-11733333D01*
X11176190Y-11733333D01*
X11080952Y-11685714D01*
X11033333Y-11638095D01*
X10985714Y-11542857D01*
X10985714Y-11352380D01*
X11033333Y-11257142D01*
X11557143Y-10780952D02*
X11604762Y-10733333D01*
X11652381Y-10780952D01*
X11604762Y-10828571D01*
X11557143Y-10780952D01*
X11652381Y-10780952D01*
X10747619Y-10352381D02*
X10700000Y-10304762D01*
X10652381Y-10209524D01*
X10652381Y-9971428D01*
X10700000Y-9876190D01*
X10747619Y-9828571D01*
X10842857Y-9780952D01*
X10938095Y-9780952D01*
X11080952Y-9828571D01*
X11652381Y-10400000D01*
X11652381Y-9780952D01*
X10652381Y-8876190D02*
X10652381Y-9352381D01*
X11128571Y-9400000D01*
X11080952Y-9352381D01*
X11033333Y-9257143D01*
X11033333Y-9019047D01*
X11080952Y-8923809D01*
X11128571Y-8876190D01*
X11223810Y-8828571D01*
X11461905Y-8828571D01*
X11557143Y-8876190D01*
X11604762Y-8923809D01*
X11652381Y-9019047D01*
X11652381Y-9257143D01*
X11604762Y-9352381D01*
X11557143Y-9400000D01*
X10985714Y-8542857D02*
X10985714Y-8161905D01*
X10652381Y-8400000D02*
X11509524Y-8400000D01*
X11604762Y-8352381D01*
X11652381Y-8257143D01*
X11652381Y-8161905D01*
X11652381Y-7828571D02*
X10652381Y-7828571D01*
X11652381Y-7399999D02*
X11128571Y-7399999D01*
X11033333Y-7447618D01*
X10985714Y-7542856D01*
X10985714Y-7685714D01*
X11033333Y-7780952D01*
X11080952Y-7828571D01*
X10652381Y-6876190D02*
X10842857Y-6971428D01*
X10747619Y-6495238D02*
X10700000Y-6447619D01*
X10652381Y-6352381D01*
X10652381Y-6114285D01*
X10700000Y-6019047D01*
X10747619Y-5971428D01*
X10842857Y-5923809D01*
X10938095Y-5923809D01*
X11080952Y-5971428D01*
X11652381Y-6542857D01*
X11652381Y-5923809D01*
X10652381Y-5304762D02*
X10652381Y-5209523D01*
X10700000Y-5114285D01*
X10747619Y-5066666D01*
X10842857Y-5019047D01*
X11033333Y-4971428D01*
X11271429Y-4971428D01*
X11461905Y-5019047D01*
X11557143Y-5066666D01*
X11604762Y-5114285D01*
X11652381Y-5209523D01*
X11652381Y-5304762D01*
X11604762Y-5400000D01*
X11557143Y-5447619D01*
X11461905Y-5495238D01*
X11271429Y-5542857D01*
X11033333Y-5542857D01*
X10842857Y-5495238D01*
X10747619Y-5447619D01*
X10700000Y-5400000D01*
X10652381Y-5304762D01*
X11652381Y-4019047D02*
X11652381Y-4590476D01*
X11652381Y-4304762D02*
X10652381Y-4304762D01*
X10795238Y-4400000D01*
X10890476Y-4495238D01*
X10938095Y-4590476D01*
X10652381Y-3161904D02*
X10652381Y-3352381D01*
X10700000Y-3447619D01*
X10747619Y-3495238D01*
X10890476Y-3590476D01*
X11080952Y-3638095D01*
X11461905Y-3638095D01*
X11557143Y-3590476D01*
X11604762Y-3542857D01*
X11652381Y-3447619D01*
X11652381Y-3257142D01*
X11604762Y-3161904D01*
X11557143Y-3114285D01*
X11461905Y-3066666D01*
X11223810Y-3066666D01*
X11128571Y-3114285D01*
X11080952Y-3161904D01*
X11033333Y-3257142D01*
X11033333Y-3447619D01*
X11080952Y-3542857D01*
X11128571Y-3590476D01*
X11223810Y-3638095D01*
X13202381Y-18161905D02*
X12202381Y-18161905D01*
X13202381Y-17590476D02*
X12630952Y-18019048D01*
X12202381Y-17590476D02*
X12773810Y-18161905D01*
X13154762Y-16780952D02*
X13202381Y-16876190D01*
X13202381Y-17066667D01*
X13154762Y-17161905D01*
X13059524Y-17209524D01*
X12678571Y-17209524D01*
X12583333Y-17161905D01*
X12535714Y-17066667D01*
X12535714Y-16876190D01*
X12583333Y-16780952D01*
X12678571Y-16733333D01*
X12773810Y-16733333D01*
X12869048Y-17209524D01*
X12535714Y-16304762D02*
X13202381Y-16304762D01*
X12630952Y-16304762D02*
X12583333Y-16257143D01*
X12535714Y-16161905D01*
X12535714Y-16019047D01*
X12583333Y-15923809D01*
X12678571Y-15876190D01*
X13202381Y-15876190D01*
X12535714Y-15542857D02*
X12535714Y-15161905D01*
X12202381Y-15400000D02*
X13059524Y-15400000D01*
X13154762Y-15352381D01*
X13202381Y-15257143D01*
X13202381Y-15161905D01*
X13202381Y-14399999D02*
X12678571Y-14399999D01*
X12583333Y-14447618D01*
X12535714Y-14542856D01*
X12535714Y-14733333D01*
X12583333Y-14828571D01*
X13154762Y-14399999D02*
X13202381Y-14495237D01*
X13202381Y-14733333D01*
X13154762Y-14828571D01*
X13059524Y-14876190D01*
X12964286Y-14876190D01*
X12869048Y-14828571D01*
X12821429Y-14733333D01*
X12821429Y-14495237D01*
X12773810Y-14399999D01*
X13202381Y-13161904D02*
X12202381Y-13161904D01*
X13202381Y-12685714D02*
X12202381Y-12685714D01*
X12202381Y-12447619D01*
X12250000Y-12304761D01*
X12345238Y-12209523D01*
X12440476Y-12161904D01*
X12630952Y-12114285D01*
X12773810Y-12114285D01*
X12964286Y-12161904D01*
X13059524Y-12209523D01*
X13154762Y-12304761D01*
X13202381Y-12447619D01*
X13202381Y-12685714D01*
X12916667Y-11733333D02*
X12916667Y-11257142D01*
X13202381Y-11828571D02*
X12202381Y-11495238D01*
X13202381Y-11161904D01*
X13583333Y-9780951D02*
X13535714Y-9828571D01*
X13392857Y-9923809D01*
X13297619Y-9971428D01*
X13154762Y-10019047D01*
X12916667Y-10066666D01*
X12726190Y-10066666D01*
X12488095Y-10019047D01*
X12345238Y-9971428D01*
X12250000Y-9923809D01*
X12107143Y-9828571D01*
X12059524Y-9780951D01*
X12726190Y-8780951D02*
X12678571Y-8828570D01*
X12630952Y-8923808D01*
X12630952Y-9019046D01*
X12678571Y-9114284D01*
X12726190Y-9161904D01*
X12821429Y-9209523D01*
X12916667Y-9209523D01*
X13011905Y-9161904D01*
X13059524Y-9114284D01*
X13107143Y-9019046D01*
X13107143Y-8923808D01*
X13059524Y-8828570D01*
X13011905Y-8780951D01*
X12630952Y-8780951D02*
X13011905Y-8780951D01*
X13059524Y-8733332D01*
X13059524Y-8685713D01*
X13011905Y-8590475D01*
X12916667Y-8542856D01*
X12678571Y-8542856D01*
X12535714Y-8638094D01*
X12440476Y-8780951D01*
X12392857Y-8971427D01*
X12440476Y-9161904D01*
X12535714Y-9304761D01*
X12678571Y-9399999D01*
X12869048Y-9447618D01*
X13059524Y-9399999D01*
X13202381Y-9304761D01*
X13297619Y-9161904D01*
X13345238Y-8971427D01*
X13297619Y-8780951D01*
X13202381Y-8638094D01*
X13154762Y-7685713D02*
X13202381Y-7780951D01*
X13202381Y-7971428D01*
X13154762Y-8066666D01*
X13107143Y-8114285D01*
X13011905Y-8161904D01*
X12726190Y-8161904D01*
X12630952Y-8114285D01*
X12583333Y-8066666D01*
X12535714Y-7971428D01*
X12535714Y-7780951D01*
X12583333Y-7685713D01*
X13202381Y-7257142D02*
X12535714Y-7257142D01*
X12202381Y-7257142D02*
X12250000Y-7304761D01*
X12297619Y-7257142D01*
X12250000Y-7209523D01*
X12202381Y-7257142D01*
X12297619Y-7257142D01*
X12535714Y-6780952D02*
X13202381Y-6780952D01*
X12630952Y-6780952D02*
X12583333Y-6733333D01*
X12535714Y-6638095D01*
X12535714Y-6495237D01*
X12583333Y-6399999D01*
X12678571Y-6352380D01*
X13202381Y-6352380D01*
X13202381Y-5876190D02*
X12535714Y-5876190D01*
X12202381Y-5876190D02*
X12250000Y-5923809D01*
X12297619Y-5876190D01*
X12250000Y-5828571D01*
X12202381Y-5876190D01*
X12297619Y-5876190D01*
X13202381Y-5400000D02*
X12535714Y-5400000D01*
X12630952Y-5400000D02*
X12583333Y-5352381D01*
X12535714Y-5257143D01*
X12535714Y-5114285D01*
X12583333Y-5019047D01*
X12678571Y-4971428D01*
X13202381Y-4971428D01*
X12678571Y-4971428D02*
X12583333Y-4923809D01*
X12535714Y-4828571D01*
X12535714Y-4685714D01*
X12583333Y-4590476D01*
X12678571Y-4542857D01*
X13202381Y-4542857D01*
X13202381Y-3923810D02*
X13154762Y-4019048D01*
X13059524Y-4066667D01*
X12202381Y-4066667D01*
X13583333Y-3638095D02*
X13535714Y-3590476D01*
X13392857Y-3495238D01*
X13297619Y-3447619D01*
X13154762Y-3400000D01*
X12916667Y-3352381D01*
X12726190Y-3352381D01*
X12488095Y-3400000D01*
X12345238Y-3447619D01*
X12250000Y-3495238D01*
X12107143Y-3590476D01*
X12059524Y-3638095D01*
X-4357143Y-1657143D02*
X-3747619Y-1657143D01*
X-4052381Y-1961905D02*
X-4052381Y-1352381D01*
X-3100000Y-1542857D02*
X-2985714Y-1580952D01*
X-2947619Y-1619048D01*
X-2909524Y-1695238D01*
X-2909524Y-1809524D01*
X-2947619Y-1885714D01*
X-2985714Y-1923810D01*
X-3061905Y-1961905D01*
X-3366667Y-1961905D01*
X-3366667Y-1161905D01*
X-3100000Y-1161905D01*
X-3023810Y-1200000D01*
X-2985714Y-1238095D01*
X-2947619Y-1314286D01*
X-2947619Y-1390476D01*
X-2985714Y-1466667D01*
X-3023810Y-1504762D01*
X-3100000Y-1542857D01*
X-3366667Y-1542857D01*
X-2604762Y-1733333D02*
X-2223810Y-1733333D01*
X-2680953Y-1961905D02*
X-2414286Y-1161905D01*
X-2147619Y-1961905D01*
X-1995239Y-1161905D02*
X-1538096Y-1161905D01*
X-1766667Y-1961905D02*
X-1766667Y-1161905D01*
X-1385715Y-1161905D02*
X-928572Y-1161905D01*
X-1157143Y-1961905D02*
X-1157143Y-1161905D01*
X10685714Y24066667D02*
X10723810Y24028572D01*
X10761905Y23914286D01*
X10761905Y23838096D01*
X10723810Y23723810D01*
X10647619Y23647619D01*
X10571429Y23609524D01*
X10419048Y23571429D01*
X10304762Y23571429D01*
X10152381Y23609524D01*
X10076190Y23647619D01*
X10000000Y23723810D01*
X9961905Y23838096D01*
X9961905Y23914286D01*
X10000000Y24028572D01*
X10038095Y24066667D01*
X9961905Y24561905D02*
X9961905Y24714286D01*
X10000000Y24790477D01*
X10076190Y24866667D01*
X10228571Y24904762D01*
X10495238Y24904762D01*
X10647619Y24866667D01*
X10723810Y24790477D01*
X10761905Y24714286D01*
X10761905Y24561905D01*
X10723810Y24485715D01*
X10647619Y24409524D01*
X10495238Y24371429D01*
X10228571Y24371429D01*
X10076190Y24409524D01*
X10000000Y24485715D01*
X9961905Y24561905D01*
X10761905Y25247619D02*
X9961905Y25247619D01*
X10761905Y25704762D01*
X9961905Y25704762D01*
X9961905Y25971428D02*
X10761905Y26238095D01*
X9961905Y26504762D01*
X7790476Y20438095D02*
X8057143Y19638095D01*
X8323810Y20438095D01*
X8590476Y19638095D02*
X8590476Y20438095D01*
X8780952Y20438095D01*
X8895238Y20400000D01*
X8971429Y20323810D01*
X9009524Y20247619D01*
X9047619Y20095238D01*
X9047619Y19980952D01*
X9009524Y19828571D01*
X8971429Y19752381D01*
X8895238Y19676190D01*
X8780952Y19638095D01*
X8590476Y19638095D01*
X9390476Y19638095D02*
X9390476Y20438095D01*
X9580952Y20438095D01*
X9695238Y20400000D01*
X9771429Y20323810D01*
X9809524Y20247619D01*
X9847619Y20095238D01*
X9847619Y19980952D01*
X9809524Y19828571D01*
X9771429Y19752381D01*
X9695238Y19676190D01*
X9580952Y19638095D01*
X9390476Y19638095D01*
X8171429Y17800000D02*
X8095238Y17838095D01*
X7980953Y17838095D01*
X7866667Y17800000D01*
X7790476Y17723810D01*
X7752381Y17647619D01*
X7714286Y17495238D01*
X7714286Y17380952D01*
X7752381Y17228571D01*
X7790476Y17152381D01*
X7866667Y17076190D01*
X7980953Y17038095D01*
X8057143Y17038095D01*
X8171429Y17076190D01*
X8209524Y17114286D01*
X8209524Y17380952D01*
X8057143Y17380952D01*
X8552381Y17038095D02*
X8552381Y17838095D01*
X9009524Y17038095D01*
X9009524Y17838095D01*
X9390476Y17038095D02*
X9390476Y17838095D01*
X9580952Y17838095D01*
X9695238Y17800000D01*
X9771429Y17723810D01*
X9809524Y17647619D01*
X9847619Y17495238D01*
X9847619Y17380952D01*
X9809524Y17228571D01*
X9771429Y17152381D01*
X9695238Y17076190D01*
X9580952Y17038095D01*
X9390476Y17038095D01*
X7066666Y15238095D02*
X7599999Y14438095D01*
X7599999Y15238095D02*
X7066666Y14438095D01*
X8361904Y14438095D02*
X8095237Y14819048D01*
X7904761Y14438095D02*
X7904761Y15238095D01*
X8209523Y15238095D01*
X8285714Y15200000D01*
X8323809Y15161905D01*
X8361904Y15085714D01*
X8361904Y14971429D01*
X8323809Y14895238D01*
X8285714Y14857143D01*
X8209523Y14819048D01*
X7904761Y14819048D01*
X8704761Y14857143D02*
X8971428Y14857143D01*
X9085714Y14438095D02*
X8704761Y14438095D01*
X8704761Y15238095D01*
X9085714Y15238095D01*
X9390476Y14476190D02*
X9504762Y14438095D01*
X9695238Y14438095D01*
X9771428Y14476190D01*
X9809524Y14514286D01*
X9847619Y14590476D01*
X9847619Y14666667D01*
X9809524Y14742857D01*
X9771428Y14780952D01*
X9695238Y14819048D01*
X9542857Y14857143D01*
X9466666Y14895238D01*
X9428571Y14933333D01*
X9390476Y15009524D01*
X9390476Y15085714D01*
X9428571Y15161905D01*
X9466666Y15200000D01*
X9542857Y15238095D01*
X9733333Y15238095D01*
X9847619Y15200000D01*
X5528571Y12076190D02*
X5642857Y12038095D01*
X5833333Y12038095D01*
X5909523Y12076190D01*
X5947619Y12114286D01*
X5985714Y12190476D01*
X5985714Y12266667D01*
X5947619Y12342857D01*
X5909523Y12380952D01*
X5833333Y12419048D01*
X5680952Y12457143D01*
X5604761Y12495238D01*
X5566666Y12533333D01*
X5528571Y12609524D01*
X5528571Y12685714D01*
X5566666Y12761905D01*
X5604761Y12800000D01*
X5680952Y12838095D01*
X5871428Y12838095D01*
X5985714Y12800000D01*
X6252381Y12838095D02*
X6442857Y12038095D01*
X6595238Y12609524D01*
X6747619Y12038095D01*
X6938095Y12838095D01*
X7242857Y12038095D02*
X7242857Y12838095D01*
X7433333Y12838095D01*
X7547619Y12800000D01*
X7623810Y12723810D01*
X7661905Y12647619D01*
X7700000Y12495238D01*
X7700000Y12380952D01*
X7661905Y12228571D01*
X7623810Y12152381D01*
X7547619Y12076190D01*
X7433333Y12038095D01*
X7242857Y12038095D01*
X8500000Y12114286D02*
X8461905Y12076190D01*
X8347619Y12038095D01*
X8271429Y12038095D01*
X8157143Y12076190D01*
X8080952Y12152381D01*
X8042857Y12228571D01*
X8004762Y12380952D01*
X8004762Y12495238D01*
X8042857Y12647619D01*
X8080952Y12723810D01*
X8157143Y12800000D01*
X8271429Y12838095D01*
X8347619Y12838095D01*
X8461905Y12800000D01*
X8500000Y12761905D01*
X9223810Y12038095D02*
X8842857Y12038095D01*
X8842857Y12838095D01*
X9490476Y12038095D02*
X9490476Y12838095D01*
X9947619Y12038095D02*
X9604762Y12495238D01*
X9947619Y12838095D02*
X9490476Y12380952D01*
X6557143Y10276190D02*
X6671429Y10238095D01*
X6861905Y10238095D01*
X6938095Y10276190D01*
X6976191Y10314286D01*
X7014286Y10390476D01*
X7014286Y10466667D01*
X6976191Y10542857D01*
X6938095Y10580952D01*
X6861905Y10619048D01*
X6709524Y10657143D01*
X6633333Y10695238D01*
X6595238Y10733333D01*
X6557143Y10809524D01*
X6557143Y10885714D01*
X6595238Y10961905D01*
X6633333Y11000000D01*
X6709524Y11038095D01*
X6900000Y11038095D01*
X7014286Y11000000D01*
X7280953Y11038095D02*
X7471429Y10238095D01*
X7623810Y10809524D01*
X7776191Y10238095D01*
X7966667Y11038095D01*
X8271429Y10238095D02*
X8271429Y11038095D01*
X8461905Y11038095D01*
X8576191Y11000000D01*
X8652382Y10923810D01*
X8690477Y10847619D01*
X8728572Y10695238D01*
X8728572Y10580952D01*
X8690477Y10428571D01*
X8652382Y10352381D01*
X8576191Y10276190D01*
X8461905Y10238095D01*
X8271429Y10238095D01*
X9071429Y10238095D02*
X9071429Y11038095D01*
X9604762Y11038095D02*
X9757143Y11038095D01*
X9833334Y11000000D01*
X9909524Y10923810D01*
X9947619Y10771429D01*
X9947619Y10504762D01*
X9909524Y10352381D01*
X9833334Y10276190D01*
X9757143Y10238095D01*
X9604762Y10238095D01*
X9528572Y10276190D01*
X9452381Y10352381D01*
X9414286Y10504762D01*
X9414286Y10771429D01*
X9452381Y10923810D01*
X9528572Y11000000D01*
X9604762Y11038095D01*
X-1366667Y12238095D02*
X-1366667Y12619047D01*
X-1138095Y12161904D02*
X-1938095Y12428571D01*
X-1138095Y12695238D01*
X-1138095Y12961904D02*
X-1671429Y12961904D01*
X-1595238Y12961904D02*
X-1633333Y12999999D01*
X-1671429Y13076190D01*
X-1671429Y13190476D01*
X-1633333Y13266666D01*
X-1557143Y13304761D01*
X-1138095Y13304761D01*
X-1557143Y13304761D02*
X-1633333Y13342857D01*
X-1671429Y13419047D01*
X-1671429Y13533333D01*
X-1633333Y13609523D01*
X-1557143Y13647618D01*
X-1138095Y13647618D01*
X-1671429Y14028571D02*
X-871429Y14028571D01*
X-1633333Y14028571D02*
X-1671429Y14104762D01*
X-1671429Y14257143D01*
X-1633333Y14333333D01*
X-1595238Y14371428D01*
X-1519048Y14409524D01*
X-1290476Y14409524D01*
X-1214286Y14371428D01*
X-1176190Y14333333D01*
X-1138095Y14257143D01*
X-1138095Y14104762D01*
X-1176190Y14028571D01*
X-1138095Y14752381D02*
X-1938095Y14752381D01*
X-1138095Y15209524D01*
X-1938095Y15209524D01*
X833333Y12276190D02*
X833333Y12657142D01*
X1061905Y12199999D02*
X261905Y12466666D01*
X1061905Y12733333D01*
X1061905Y12999999D02*
X528571Y12999999D01*
X604762Y12999999D02*
X566667Y13038094D01*
X528571Y13114285D01*
X528571Y13228571D01*
X566667Y13304761D01*
X642857Y13342856D01*
X1061905Y13342856D01*
X642857Y13342856D02*
X566667Y13380952D01*
X528571Y13457142D01*
X528571Y13571428D01*
X566667Y13647618D01*
X642857Y13685713D01*
X1061905Y13685713D01*
X528571Y14066666D02*
X1328571Y14066666D01*
X566667Y14066666D02*
X528571Y14142857D01*
X528571Y14295238D01*
X566667Y14371428D01*
X604762Y14409523D01*
X680952Y14447619D01*
X909524Y14447619D01*
X985714Y14409523D01*
X1023810Y14371428D01*
X1061905Y14295238D01*
X1061905Y14142857D01*
X1023810Y14066666D01*
X1061905Y14790476D02*
X261905Y14790476D01*
X261905Y15095238D01*
X300000Y15171429D01*
X338095Y15209524D01*
X414286Y15247619D01*
X528571Y15247619D01*
X604762Y15209524D01*
X642857Y15171429D01*
X680952Y15095238D01*
X680952Y14790476D01*
X-9014286Y20128572D02*
X-8976190Y20090477D01*
X-8938095Y19976191D01*
X-8938095Y19900001D01*
X-8976190Y19785715D01*
X-9052381Y19709524D01*
X-9128571Y19671429D01*
X-9280952Y19633334D01*
X-9395238Y19633334D01*
X-9547619Y19671429D01*
X-9623810Y19709524D01*
X-9700000Y19785715D01*
X-9738095Y19900001D01*
X-9738095Y19976191D01*
X-9700000Y20090477D01*
X-9661905Y20128572D01*
X-9738095Y20357143D02*
X-9738095Y20814286D01*
X-8938095Y20585715D02*
X-9738095Y20585715D01*
X-8938095Y21690477D02*
X-9738095Y21690477D01*
X-8938095Y22071429D02*
X-9738095Y22071429D01*
X-8938095Y22528572D01*
X-9738095Y22528572D01*
X-9390476Y10800000D02*
X-9466667Y10838095D01*
X-9580952Y10838095D01*
X-9695238Y10800000D01*
X-9771429Y10723810D01*
X-9809524Y10647619D01*
X-9847619Y10495238D01*
X-9847619Y10380952D01*
X-9809524Y10228571D01*
X-9771429Y10152381D01*
X-9695238Y10076190D01*
X-9580952Y10038095D01*
X-9504762Y10038095D01*
X-9390476Y10076190D01*
X-9352381Y10114286D01*
X-9352381Y10380952D01*
X-9504762Y10380952D01*
X-9009524Y10038095D02*
X-9009524Y10838095D01*
X-8552381Y10038095D01*
X-8552381Y10838095D01*
X-8171429Y10038095D02*
X-8171429Y10838095D01*
X-7980953Y10838095D01*
X-7866667Y10800000D01*
X-7790476Y10723810D01*
X-7752381Y10647619D01*
X-7714286Y10495238D01*
X-7714286Y10380952D01*
X-7752381Y10228571D01*
X-7790476Y10152381D01*
X-7866667Y10076190D01*
X-7980953Y10038095D01*
X-8171429Y10038095D01*
X-9809524Y12638095D02*
X-9809524Y13438095D01*
X-9619048Y13438095D01*
X-9504762Y13400000D01*
X-9428571Y13323810D01*
X-9390476Y13247619D01*
X-9352381Y13095238D01*
X-9352381Y12980952D01*
X-9390476Y12828571D01*
X-9428571Y12752381D01*
X-9504762Y12676190D01*
X-9619048Y12638095D01*
X-9809524Y12638095D01*
X-8704762Y12676190D02*
X-8780952Y12638095D01*
X-8933333Y12638095D01*
X-9009524Y12676190D01*
X-9047619Y12752381D01*
X-9047619Y13057143D01*
X-9009524Y13133333D01*
X-8933333Y13171429D01*
X-8780952Y13171429D01*
X-8704762Y13133333D01*
X-8666667Y13057143D01*
X-8666667Y12980952D01*
X-9047619Y12904762D01*
X-8323810Y12638095D02*
X-8323810Y13438095D01*
X-8323810Y13133333D02*
X-8247619Y13171429D01*
X-8095238Y13171429D01*
X-8019048Y13133333D01*
X-7980953Y13095238D01*
X-7942857Y13019048D01*
X-7942857Y12790476D01*
X-7980953Y12714286D01*
X-8019048Y12676190D01*
X-8095238Y12638095D01*
X-8247619Y12638095D01*
X-8323810Y12676190D01*
X-7257143Y13171429D02*
X-7257143Y12638095D01*
X-7600000Y13171429D02*
X-7600000Y12752381D01*
X-7561905Y12676190D01*
X-7485714Y12638095D01*
X-7371428Y12638095D01*
X-7295238Y12676190D01*
X-7257143Y12714286D01*
X-6533333Y13171429D02*
X-6533333Y12523810D01*
X-6571428Y12447619D01*
X-6609523Y12409524D01*
X-6685714Y12371429D01*
X-6799999Y12371429D01*
X-6876190Y12409524D01*
X-6533333Y12676190D02*
X-6609523Y12638095D01*
X-6761904Y12638095D01*
X-6838095Y12676190D01*
X-6876190Y12714286D01*
X-6914285Y12790476D01*
X-6914285Y13019048D01*
X-6876190Y13095238D01*
X-6838095Y13133333D01*
X-6761904Y13171429D01*
X-6609523Y13171429D01*
X-6533333Y13133333D01*
X-6266666Y13438095D02*
X-5809523Y13438095D01*
X-6038094Y12638095D02*
X-6038094Y13438095D01*
X-5619046Y13438095D02*
X-5085713Y12638095D01*
X-5085713Y13438095D02*
X-5619046Y12638095D01*
D12*
X831905Y7734286D02*
X831905Y8229524D01*
X1136667Y7962857D01*
X1136667Y8077143D01*
X1174762Y8153333D01*
X1212857Y8191429D01*
X1289048Y8229524D01*
X1479524Y8229524D01*
X1555714Y8191429D01*
X1593810Y8153333D01*
X1631905Y8077143D01*
X1631905Y7848571D01*
X1593810Y7772381D01*
X1555714Y7734286D01*
X1555714Y8572381D02*
X1593810Y8610476D01*
X1631905Y8572381D01*
X1593810Y8534286D01*
X1555714Y8572381D01*
X1631905Y8572381D01*
X831905Y9105714D02*
X831905Y9181905D01*
X870000Y9258095D01*
X908095Y9296190D01*
X984286Y9334286D01*
X1136667Y9372381D01*
X1327143Y9372381D01*
X1479524Y9334286D01*
X1555714Y9296190D01*
X1593810Y9258095D01*
X1631905Y9181905D01*
X1631905Y9105714D01*
X1593810Y9029524D01*
X1555714Y8991428D01*
X1479524Y8953333D01*
X1327143Y8915238D01*
X1136667Y8915238D01*
X984286Y8953333D01*
X908095Y8991428D01*
X870000Y9029524D01*
X831905Y9105714D01*
X4171905Y8229524D02*
X4171905Y7772381D01*
X4171905Y8000952D02*
X3371905Y8000952D01*
X3486190Y7924762D01*
X3562381Y7848571D01*
X3600476Y7772381D01*
X4095714Y8572381D02*
X4133810Y8610476D01*
X4171905Y8572381D01*
X4133810Y8534286D01*
X4095714Y8572381D01*
X4171905Y8572381D01*
X3448095Y8915238D02*
X3410000Y8953333D01*
X3371905Y9029524D01*
X3371905Y9220000D01*
X3410000Y9296190D01*
X3448095Y9334286D01*
X3524286Y9372381D01*
X3600476Y9372381D01*
X3714762Y9334286D01*
X4171905Y8877143D01*
X4171905Y9372381D01*
X6711905Y8229524D02*
X6711905Y7772381D01*
X6711905Y8000952D02*
X5911905Y8000952D01*
X6026190Y7924762D01*
X6102381Y7848571D01*
X6140476Y7772381D01*
X6635714Y8572381D02*
X6673810Y8610476D01*
X6711905Y8572381D01*
X6673810Y8534286D01*
X6635714Y8572381D01*
X6711905Y8572381D01*
X6178571Y9296190D02*
X6711905Y9296190D01*
X5873810Y9105714D02*
X6445238Y8915238D01*
X6445238Y9410476D01*
X9251905Y8229524D02*
X9251905Y7772381D01*
X9251905Y8000952D02*
X8451905Y8000952D01*
X8566190Y7924762D01*
X8642381Y7848571D01*
X8680476Y7772381D01*
X9175714Y8572381D02*
X9213810Y8610476D01*
X9251905Y8572381D01*
X9213810Y8534286D01*
X9175714Y8572381D01*
X9251905Y8572381D01*
X8451905Y9105714D02*
X8451905Y9181905D01*
X8490000Y9258095D01*
X8528095Y9296190D01*
X8604286Y9334286D01*
X8756667Y9372381D01*
X8947143Y9372381D01*
X9099524Y9334286D01*
X9175714Y9296190D01*
X9213810Y9258095D01*
X9251905Y9181905D01*
X9251905Y9105714D01*
X9213810Y9029524D01*
X9175714Y8991428D01*
X9099524Y8953333D01*
X8947143Y8915238D01*
X8756667Y8915238D01*
X8604286Y8953333D01*
X8528095Y8991428D01*
X8490000Y9029524D01*
X8451905Y9105714D01*
X9251905Y1244762D02*
X9251905Y787619D01*
X9251905Y1016190D02*
X8451905Y1016190D01*
X8566190Y940000D01*
X8642381Y863809D01*
X8680476Y787619D01*
X9175714Y1587619D02*
X9213810Y1625714D01*
X9251905Y1587619D01*
X9213810Y1549524D01*
X9175714Y1587619D01*
X9251905Y1587619D01*
X9251905Y2387619D02*
X9251905Y1930476D01*
X9251905Y2159047D02*
X8451905Y2159047D01*
X8566190Y2082857D01*
X8642381Y2006666D01*
X8680476Y1930476D01*
X6711905Y1244762D02*
X6711905Y787619D01*
X6711905Y1016190D02*
X5911905Y1016190D01*
X6026190Y940000D01*
X6102381Y863809D01*
X6140476Y787619D01*
X6635714Y1587619D02*
X6673810Y1625714D01*
X6711905Y1587619D01*
X6673810Y1549524D01*
X6635714Y1587619D01*
X6711905Y1587619D01*
X5911905Y2349524D02*
X5911905Y1968571D01*
X6292857Y1930476D01*
X6254762Y1968571D01*
X6216667Y2044762D01*
X6216667Y2235238D01*
X6254762Y2311428D01*
X6292857Y2349524D01*
X6369048Y2387619D01*
X6559524Y2387619D01*
X6635714Y2349524D01*
X6673810Y2311428D01*
X6711905Y2235238D01*
X6711905Y2044762D01*
X6673810Y1968571D01*
X6635714Y1930476D01*
X3371905Y978095D02*
X3371905Y1054286D01*
X3410000Y1130476D01*
X3448095Y1168571D01*
X3524286Y1206667D01*
X3676667Y1244762D01*
X3867143Y1244762D01*
X4019524Y1206667D01*
X4095714Y1168571D01*
X4133810Y1130476D01*
X4171905Y1054286D01*
X4171905Y978095D01*
X4133810Y901905D01*
X4095714Y863809D01*
X4019524Y825714D01*
X3867143Y787619D01*
X3676667Y787619D01*
X3524286Y825714D01*
X3448095Y863809D01*
X3410000Y901905D01*
X3371905Y978095D01*
X4095714Y1587619D02*
X4133810Y1625714D01*
X4171905Y1587619D01*
X4133810Y1549524D01*
X4095714Y1587619D01*
X4171905Y1587619D01*
X3638571Y2311428D02*
X4171905Y2311428D01*
X3333810Y2120952D02*
X3905238Y1930476D01*
X3905238Y2425714D01*
X1631905Y1244762D02*
X1631905Y787619D01*
X1631905Y1016190D02*
X831905Y1016190D01*
X946190Y940000D01*
X1022381Y863809D01*
X1060476Y787619D01*
X1555714Y1587619D02*
X1593810Y1625714D01*
X1631905Y1587619D01*
X1593810Y1549524D01*
X1555714Y1587619D01*
X1631905Y1587619D01*
X831905Y1892381D02*
X831905Y2387619D01*
X1136667Y2120952D01*
X1136667Y2235238D01*
X1174762Y2311428D01*
X1212857Y2349524D01*
X1289048Y2387619D01*
X1479524Y2387619D01*
X1555714Y2349524D01*
X1593810Y2311428D01*
X1631905Y2235238D01*
X1631905Y2006666D01*
X1593810Y1930476D01*
X1555714Y1892381D01*
X-12268095Y8538095D02*
X-11772857Y8538095D01*
X-12039524Y8233333D01*
X-11925238Y8233333D01*
X-11849048Y8195238D01*
X-11810952Y8157143D01*
X-11772857Y8080952D01*
X-11772857Y7890476D01*
X-11810952Y7814286D01*
X-11849048Y7776190D01*
X-11925238Y7738095D01*
X-12153810Y7738095D01*
X-12230000Y7776190D01*
X-12268095Y7814286D01*
X-11430000Y7814286D02*
X-11391905Y7776190D01*
X-11430000Y7738095D01*
X-11468095Y7776190D01*
X-11430000Y7814286D01*
X-11430000Y7738095D01*
X-10706191Y8538095D02*
X-10858572Y8538095D01*
X-10934762Y8500000D01*
X-10972857Y8461905D01*
X-11049048Y8347619D01*
X-11087143Y8195238D01*
X-11087143Y7890476D01*
X-11049048Y7814286D01*
X-11010953Y7776190D01*
X-10934762Y7738095D01*
X-10782381Y7738095D01*
X-10706191Y7776190D01*
X-10668095Y7814286D01*
X-10630000Y7890476D01*
X-10630000Y8080952D01*
X-10668095Y8157143D01*
X-10706191Y8195238D01*
X-10782381Y8233333D01*
X-10934762Y8233333D01*
X-11010953Y8195238D01*
X-11049048Y8157143D01*
X-11087143Y8080952D01*
X-9328095Y7734286D02*
X-9328095Y8229524D01*
X-9023333Y7962857D01*
X-9023333Y8077143D01*
X-8985238Y8153333D01*
X-8947143Y8191429D01*
X-8870952Y8229524D01*
X-8680476Y8229524D01*
X-8604286Y8191429D01*
X-8566190Y8153333D01*
X-8528095Y8077143D01*
X-8528095Y7848571D01*
X-8566190Y7772381D01*
X-8604286Y7734286D01*
X-8604286Y8572381D02*
X-8566190Y8610476D01*
X-8528095Y8572381D01*
X-8566190Y8534286D01*
X-8604286Y8572381D01*
X-8528095Y8572381D01*
X-9328095Y8877143D02*
X-9328095Y9372381D01*
X-9023333Y9105714D01*
X-9023333Y9220000D01*
X-8985238Y9296190D01*
X-8947143Y9334286D01*
X-8870952Y9372381D01*
X-8680476Y9372381D01*
X-8604286Y9334286D01*
X-8566190Y9296190D01*
X-8528095Y9220000D01*
X-8528095Y8991428D01*
X-8566190Y8915238D01*
X-8604286Y8877143D01*
X-6788095Y7734286D02*
X-6788095Y8229524D01*
X-6483333Y7962857D01*
X-6483333Y8077143D01*
X-6445238Y8153333D01*
X-6407143Y8191429D01*
X-6330952Y8229524D01*
X-6140476Y8229524D01*
X-6064286Y8191429D01*
X-6026190Y8153333D01*
X-5988095Y8077143D01*
X-5988095Y7848571D01*
X-6026190Y7772381D01*
X-6064286Y7734286D01*
X-6064286Y8572381D02*
X-6026190Y8610476D01*
X-5988095Y8572381D01*
X-6026190Y8534286D01*
X-6064286Y8572381D01*
X-5988095Y8572381D01*
X-5988095Y9372381D02*
X-5988095Y8915238D01*
X-5988095Y9143809D02*
X-6788095Y9143809D01*
X-6673810Y9067619D01*
X-6597619Y8991428D01*
X-6559524Y8915238D01*
X-6788095Y749524D02*
X-6788095Y1244762D01*
X-6483333Y978095D01*
X-6483333Y1092381D01*
X-6445238Y1168571D01*
X-6407143Y1206667D01*
X-6330952Y1244762D01*
X-6140476Y1244762D01*
X-6064286Y1206667D01*
X-6026190Y1168571D01*
X-5988095Y1092381D01*
X-5988095Y863809D01*
X-6026190Y787619D01*
X-6064286Y749524D01*
X-6064286Y1587619D02*
X-6026190Y1625714D01*
X-5988095Y1587619D01*
X-6026190Y1549524D01*
X-6064286Y1587619D01*
X-5988095Y1587619D01*
X-6521429Y2311428D02*
X-5988095Y2311428D01*
X-6826190Y2120952D02*
X-6254762Y1930476D01*
X-6254762Y2425714D01*
X-9328095Y749524D02*
X-9328095Y1244762D01*
X-9023333Y978095D01*
X-9023333Y1092381D01*
X-8985238Y1168571D01*
X-8947143Y1206667D01*
X-8870952Y1244762D01*
X-8680476Y1244762D01*
X-8604286Y1206667D01*
X-8566190Y1168571D01*
X-8528095Y1092381D01*
X-8528095Y863809D01*
X-8566190Y787619D01*
X-8604286Y749524D01*
X-8604286Y1587619D02*
X-8566190Y1625714D01*
X-8528095Y1587619D01*
X-8566190Y1549524D01*
X-8604286Y1587619D01*
X-8528095Y1587619D01*
X-9328095Y2349524D02*
X-9328095Y1968571D01*
X-8947143Y1930476D01*
X-8985238Y1968571D01*
X-9023333Y2044762D01*
X-9023333Y2235238D01*
X-8985238Y2311428D01*
X-8947143Y2349524D01*
X-8870952Y2387619D01*
X-8680476Y2387619D01*
X-8604286Y2349524D01*
X-8566190Y2311428D01*
X-8528095Y2235238D01*
X-8528095Y2044762D01*
X-8566190Y1968571D01*
X-8604286Y1930476D01*
X-11233095Y749524D02*
X-11233095Y1244762D01*
X-10928333Y978095D01*
X-10928333Y1092381D01*
X-10890238Y1168571D01*
X-10852143Y1206667D01*
X-10775952Y1244762D01*
X-10585476Y1244762D01*
X-10509286Y1206667D01*
X-10471190Y1168571D01*
X-10433095Y1092381D01*
X-10433095Y863809D01*
X-10471190Y787619D01*
X-10509286Y749524D01*
X-10509286Y1587619D02*
X-10471190Y1625714D01*
X-10433095Y1587619D01*
X-10471190Y1549524D01*
X-10509286Y1587619D01*
X-10433095Y1587619D01*
X-11156905Y1930476D02*
X-11195000Y1968571D01*
X-11233095Y2044762D01*
X-11233095Y2235238D01*
X-11195000Y2311428D01*
X-11156905Y2349524D01*
X-11080714Y2387619D01*
X-11004524Y2387619D01*
X-10890238Y2349524D01*
X-10433095Y1892381D01*
X-10433095Y2387619D01*
D11*
X-1500000Y-7000000D02*
X-1500000Y-5000000D01*
X-3500000Y-7000000D02*
X-1500000Y-7000000D01*
X-3500000Y-5000000D02*
X-3500000Y-7000000D01*
X-1500000Y-5000000D02*
X-3500000Y-5000000D01*
X10450000Y20080000D02*
X10450000Y21630000D01*
X10450000Y21630000D02*
X13550000Y21630000D01*
X13550000Y21630000D02*
X13550000Y20080000D01*
X13270000Y18810000D02*
X13270000Y8650000D01*
X13270000Y8650000D02*
X10730000Y8650000D01*
X10730000Y8650000D02*
X10730000Y18810000D01*
X13270000Y18810000D02*
X10730000Y18810000D01*
X-10730000Y11730000D02*
X-10730000Y9190000D01*
X-10450000Y14550000D02*
X-10450000Y13000000D01*
X-10730000Y11730000D02*
X-13270000Y11730000D01*
X-13550000Y13000000D02*
X-13550000Y14550000D01*
X-13550000Y14550000D02*
X-10450000Y14550000D01*
X-13270000Y11730000D02*
X-13270000Y9190000D01*
X-13270000Y9190000D02*
X-10730000Y9190000D01*
X-13270000Y21270000D02*
X-13270000Y23810000D01*
X-13550000Y18450000D02*
X-13550000Y20000000D01*
X-13270000Y21270000D02*
X-10730000Y21270000D01*
X-10450000Y20000000D02*
X-10450000Y18450000D01*
X-10450000Y18450000D02*
X-13550000Y18450000D01*
X-10730000Y21270000D02*
X-10730000Y23810000D01*
X-10730000Y23810000D02*
X-13270000Y23810000D01*
X-9325000Y-7500000D02*
X-9325000Y-8500000D01*
X-10675000Y-8500000D02*
X-10675000Y-7500000D01*
X-12900000Y-9530000D02*
X-12900000Y-5930000D01*
X-12900000Y-5930000D02*
X-12400000Y-5430000D01*
X-12400000Y-5430000D02*
X-11600000Y-5430000D01*
X-11600000Y-5430000D02*
X-11100000Y-5930000D01*
X-11100000Y-5930000D02*
X-11100000Y-9530000D01*
X-11100000Y-9530000D02*
X-11600000Y-10030000D01*
X-11600000Y-10030000D02*
X-12400000Y-10030000D01*
X-12400000Y-10030000D02*
X-12900000Y-9530000D01*
X-5500000Y19600000D02*
X-5500000Y19000000D01*
X-5000000Y19330000D02*
X-6000000Y19330000D01*
X6500000Y25700000D02*
X6500000Y25300000D01*
X6400000Y25600000D02*
X6400000Y25400000D01*
X6600000Y25200000D02*
X6200000Y25500000D01*
X6600000Y25800000D02*
X6600000Y25200000D01*
X6200000Y25500000D02*
X6600000Y25800000D01*
X6000000Y30830000D02*
X-6000000Y30830000D01*
X6000000Y18830000D02*
X6000000Y30830000D01*
X-6000000Y18830000D02*
X6000000Y18830000D01*
X-6000000Y30830000D02*
X-6000000Y18830000D01*
X6000000Y19330000D02*
X5000000Y19330000D01*
X5500000Y19600000D02*
X5500000Y19000000D01*
X-7785714Y-9928571D02*
X-7642857Y-9976190D01*
X-7595238Y-10023810D01*
X-7547619Y-10119048D01*
X-7547619Y-10261905D01*
X-7595238Y-10357143D01*
X-7642857Y-10404762D01*
X-7738095Y-10452381D01*
X-8119048Y-10452381D01*
X-8119048Y-9452381D01*
X-7785714Y-9452381D01*
X-7690476Y-9500000D01*
X-7642857Y-9547619D01*
X-7595238Y-9642857D01*
X-7595238Y-9738095D01*
X-7642857Y-9833333D01*
X-7690476Y-9880952D01*
X-7785714Y-9928571D01*
X-8119048Y-9928571D01*
X-7261905Y-9452381D02*
X-6690476Y-9452381D01*
X-6976191Y-10452381D02*
X-6976191Y-9452381D01*
X-5833333Y-10452381D02*
X-6404762Y-10452381D01*
X-6119048Y-10452381D02*
X-6119048Y-9452381D01*
X-6214286Y-9595238D01*
X-6309524Y-9690476D01*
X-6404762Y-9738095D01*
X-5590476Y-7861905D02*
X-5590476Y-7061905D01*
X-5400000Y-7061905D01*
X-5285714Y-7100000D01*
X-5209523Y-7176190D01*
X-5171428Y-7252381D01*
X-5133333Y-7404762D01*
X-5133333Y-7519048D01*
X-5171428Y-7671429D01*
X-5209523Y-7747619D01*
X-5285714Y-7823810D01*
X-5400000Y-7861905D01*
X-5590476Y-7861905D01*
X-4371428Y-7861905D02*
X-4828571Y-7861905D01*
X-4600000Y-7861905D02*
X-4600000Y-7061905D01*
X-4676190Y-7176190D01*
X-4752381Y-7252381D01*
X-4828571Y-7290476D01*
X11261905Y7047619D02*
X11261905Y8047619D01*
X11642858Y8047619D01*
X11738096Y8000000D01*
X11785715Y7952381D01*
X11833334Y7857143D01*
X11833334Y7714286D01*
X11785715Y7619048D01*
X11738096Y7571429D01*
X11642858Y7523810D01*
X11261905Y7523810D01*
X12785715Y7047619D02*
X12214286Y7047619D01*
X12500000Y7047619D02*
X12500000Y8047619D01*
X12404762Y7904762D01*
X12309524Y7809524D01*
X12214286Y7761905D01*
X-12738095Y15047619D02*
X-12738095Y16047619D01*
X-12357142Y16047619D01*
X-12261904Y16000000D01*
X-12214285Y15952381D01*
X-12166666Y15857143D01*
X-12166666Y15714286D01*
X-12214285Y15619048D01*
X-12261904Y15571429D01*
X-12357142Y15523810D01*
X-12738095Y15523810D01*
X-11785714Y15952381D02*
X-11738095Y16000000D01*
X-11642857Y16047619D01*
X-11404761Y16047619D01*
X-11309523Y16000000D01*
X-11261904Y15952381D01*
X-11214285Y15857143D01*
X-11214285Y15761905D01*
X-11261904Y15619048D01*
X-11833333Y15047619D01*
X-11214285Y15047619D01*
X-12738095Y24547619D02*
X-12738095Y25547619D01*
X-12357142Y25547619D01*
X-12261904Y25500000D01*
X-12214285Y25452381D01*
X-12166666Y25357143D01*
X-12166666Y25214286D01*
X-12214285Y25119048D01*
X-12261904Y25071429D01*
X-12357142Y25023810D01*
X-12738095Y25023810D01*
X-11833333Y25547619D02*
X-11214285Y25547619D01*
X-11547619Y25166667D01*
X-11404761Y25166667D01*
X-11309523Y25119048D01*
X-11261904Y25071429D01*
X-11214285Y24976190D01*
X-11214285Y24738095D01*
X-11261904Y24642857D01*
X-11309523Y24595238D01*
X-11404761Y24547619D01*
X-11690476Y24547619D01*
X-11785714Y24595238D01*
X-11833333Y24642857D01*
X-9547619Y-5566666D02*
X-10023810Y-5900000D01*
X-9547619Y-6138095D02*
X-10547619Y-6138095D01*
X-10547619Y-5757142D01*
X-10500000Y-5661904D01*
X-10452381Y-5614285D01*
X-10357143Y-5566666D01*
X-10214286Y-5566666D01*
X-10119048Y-5614285D01*
X-10071429Y-5661904D01*
X-10023810Y-5757142D01*
X-10023810Y-6138095D01*
X-9547619Y-4614285D02*
X-9547619Y-5185714D01*
X-9547619Y-4900000D02*
X-10547619Y-4900000D01*
X-10404762Y-4995238D01*
X-10309524Y-5090476D01*
X-10261905Y-5185714D01*
X-12547619Y-4861905D02*
X-12547619Y-4290476D01*
X-11547619Y-4576191D02*
X-12547619Y-4576191D01*
X-11547619Y-3957143D02*
X-12547619Y-3957143D01*
X-12547619Y-3576190D01*
X-12500000Y-3480952D01*
X-12452381Y-3433333D01*
X-12357143Y-3385714D01*
X-12214286Y-3385714D01*
X-12119048Y-3433333D01*
X-12071429Y-3480952D01*
X-12023810Y-3576190D01*
X-12023810Y-3957143D01*
X-11547619Y-2433333D02*
X-11547619Y-3004762D01*
X-11547619Y-2719048D02*
X-12547619Y-2719048D01*
X-12404762Y-2814286D01*
X-12309524Y-2909524D01*
X-12261905Y-3004762D01*
X-23809Y18638095D02*
X166667Y17838095D01*
X319048Y18409524D01*
X471429Y17838095D01*
X661905Y18638095D01*
X1385715Y17838095D02*
X928572Y17838095D01*
X1157143Y17838095D02*
X1157143Y18638095D01*
X1080953Y18523810D01*
X1004762Y18447619D01*
X928572Y18409524D01*
X-2223809Y18638095D02*
X-2033333Y17838095D01*
X-1880952Y18409524D01*
X-1728571Y17838095D01*
X-1538095Y18638095D01*
X-1271428Y18561905D02*
X-1233333Y18600000D01*
X-1157142Y18638095D01*
X-966666Y18638095D01*
X-890476Y18600000D01*
X-852380Y18561905D01*
X-814285Y18485714D01*
X-814285Y18409524D01*
X-852380Y18295238D01*
X-1309523Y17838095D01*
X-814285Y17838095D01*
X-1404762Y-2752381D02*
X-1166667Y-3752381D01*
X-976190Y-3038095D01*
X-785714Y-3752381D01*
X-547619Y-2752381D01*
X-261905Y-2752381D02*
X357143Y-2752381D01*
X23809Y-3133333D01*
X166667Y-3133333D01*
X261905Y-3180952D01*
X309524Y-3228571D01*
X357143Y-3323810D01*
X357143Y-3561905D01*
X309524Y-3657143D01*
X261905Y-3704762D01*
X166667Y-3752381D01*
X-119048Y-3752381D01*
X-214286Y-3704762D01*
X-261905Y-3657143D01*
X11195238Y23747619D02*
X11433333Y22747619D01*
X11623810Y23461905D01*
X11814286Y22747619D01*
X12052381Y23747619D01*
X12861905Y23414286D02*
X12861905Y22747619D01*
X12623809Y23795238D02*
X12385714Y23080952D01*
X13004762Y23080952D01*
X-5761905Y18377619D02*
X-5761905Y17568095D01*
X-5714286Y17472857D01*
X-5666667Y17425238D01*
X-5571429Y17377619D01*
X-5380952Y17377619D01*
X-5285714Y17425238D01*
X-5238095Y17472857D01*
X-5190476Y17568095D01*
X-5190476Y18377619D01*
X-4190476Y17377619D02*
X-4761905Y17377619D01*
X-4476191Y17377619D02*
X-4476191Y18377619D01*
X-4571429Y18234762D01*
X-4666667Y18139524D01*
X-4761905Y18091905D01*
M02*
