G04 #@! TF.FileFunction,Copper,L4,Bot,Signal*
%FSLAX46Y46*%
G04 Gerber Fmt 4.6, Leading zero omitted, Abs format (unit mm)*
G04 Created by KiCad (PCBNEW 4.0.1-stable) date 2016/08/25 3:11:25*
%MOMM*%
G01*
G04 APERTURE LIST*
%ADD10C,0.100000*%
%ADD11C,1.800000*%
%ADD12R,0.900000X0.500000*%
%ADD13R,1.000000X2.500000*%
%ADD14C,1.524000*%
%ADD15R,1.300000X0.700000*%
%ADD16R,2.032000X1.727200*%
%ADD17O,2.032000X1.727200*%
%ADD18R,2.032000X2.032000*%
%ADD19O,2.032000X2.032000*%
%ADD20R,0.500000X0.900000*%
%ADD21C,1.400000*%
%ADD22R,0.750000X0.800000*%
%ADD23C,0.600000*%
%ADD24C,0.400000*%
%ADD25C,0.500000*%
%ADD26C,0.600000*%
%ADD27C,0.250000*%
G04 APERTURE END LIST*
D10*
D11*
X-10450000Y-12000000D03*
X-12049999Y-14771281D03*
X6661457Y-8526276D03*
X-6678123Y-31418100D03*
X-12450000Y28000000D03*
X12450000Y28000000D03*
X-12450000Y-28000000D03*
X12450000Y-28000000D03*
X12450000Y0D03*
X-12450000Y0D03*
D12*
X-9000000Y18750000D03*
X-9000000Y17250000D03*
D13*
X-2500000Y12000000D03*
X-5500000Y12000000D03*
D14*
X-2500000Y-6000000D03*
X-7500000Y-6000000D03*
D15*
X-2500000Y15050000D03*
X-2500000Y16950000D03*
X2500000Y15050000D03*
X2500000Y16950000D03*
X7000000Y18350000D03*
X7000000Y20250000D03*
D16*
X12000000Y20080000D03*
D17*
X12000000Y17540000D03*
X12000000Y15000000D03*
X12000000Y12460000D03*
X12000000Y9920000D03*
D18*
X-12000000Y13000000D03*
D19*
X-12000000Y10460000D03*
D18*
X-12000000Y20000000D03*
D19*
X-12000000Y22540000D03*
D11*
X8800000Y3810000D03*
X8890000Y6350000D03*
X6350000Y3810000D03*
X6350000Y6350000D03*
X3810000Y3810000D03*
X3800000Y6350000D03*
X1270000Y3810000D03*
X1270000Y6350000D03*
X-6350000Y3810000D03*
X-6350000Y6350000D03*
X-8890000Y6350000D03*
X-8890000Y3810000D03*
X-11430000Y6350000D03*
X-11430000Y3810000D03*
D20*
X12050000Y22700000D03*
X10550000Y22700000D03*
X-5750000Y-6000000D03*
X-4250000Y-6000000D03*
D12*
X-7500000Y9250000D03*
X-7500000Y10750000D03*
D20*
X750000Y22000000D03*
X-750000Y22000000D03*
D12*
X-3000000Y22750000D03*
X-3000000Y21250000D03*
X-7500000Y13750000D03*
X-7500000Y12250000D03*
X-7500000Y16750000D03*
X-7500000Y15250000D03*
D20*
X-2750000Y25000000D03*
X-1250000Y25000000D03*
D21*
X-12000000Y-9000000D03*
X-12000000Y-6460000D03*
D22*
X-5200000Y21350000D03*
X-5200000Y22850000D03*
D12*
X-9000000Y21750000D03*
X-9000000Y20250000D03*
X-9000000Y24750000D03*
X-9000000Y23250000D03*
D23*
X-10000000Y-9800000D03*
X-1000000Y-32000000D03*
X3000000Y-32000000D03*
X-5000000Y-3000000D03*
X-5000000Y-9000000D03*
X-8000000Y-9000000D03*
X-9000000Y-17000000D03*
X-13000000Y-17000000D03*
X-12000000Y-19000000D03*
X-12000000Y-24000000D03*
X-7000000Y-28000000D03*
X12000000Y6000000D03*
X10000000Y1000000D03*
X12000000Y-4000000D03*
X12000000Y-9000000D03*
X12000000Y-14000000D03*
X12000000Y-19000000D03*
X12000000Y-24000000D03*
X8000000Y-28000000D03*
X8000000Y-32000000D03*
X-13000000Y26000000D03*
X-10800000Y29000000D03*
X13700000Y26000000D03*
X10700000Y28900000D03*
X-4000000Y22400000D03*
X4300000Y25400000D03*
X-4000000Y25400000D03*
X-6515130Y25328539D03*
X-8000000Y24800000D03*
X-6300000Y9300000D03*
X-5500000Y10000000D03*
X-5500000Y14000000D03*
X6149990Y17600000D03*
X-4200000Y-7200000D03*
X-4200000Y-4800000D03*
X10300000Y21800000D03*
X-2500000Y10000000D03*
X-2500000Y14000000D03*
X3500000Y15000000D03*
X1500000Y15000000D03*
X-3500000Y15000000D03*
X-1000000Y15000000D03*
X-4200000Y21500000D03*
X-5800000Y-4800000D03*
X-5800000Y-7200000D03*
X-10000000Y-6400000D03*
X-7500000Y-6000000D03*
X-6200000Y14900000D03*
X2400000Y18600000D03*
X6388583Y21499990D03*
X3900000Y23100000D03*
X4000000Y22300000D03*
X3500000Y20800000D03*
X2600000Y21100000D03*
X1600000Y20700000D03*
X-6140413Y24621722D03*
X0Y21000000D03*
X-1000000Y21000000D03*
X-3000000Y24000000D03*
X-2000000Y21000000D03*
X10700000Y25000000D03*
X7157269Y22757269D03*
X-2350010Y18500000D03*
D24*
X-4499897Y22850000D02*
X-4450000Y22850000D01*
X-4450000Y22850000D02*
X-4000000Y22400000D01*
X-5200000Y22850000D02*
X-4499897Y22850000D01*
D25*
X-9000000Y24750000D02*
X-8050000Y24750000D01*
X-8050000Y24750000D02*
X-8000000Y24800000D01*
X-5500000Y12000000D02*
X-5500000Y10000000D01*
X-5500000Y12000000D02*
X-5500000Y14000000D01*
X-7500000Y9250000D02*
X-6350000Y9250000D01*
X-6350000Y9250000D02*
X-6300000Y9300000D01*
D26*
X7000000Y18350000D02*
X6899990Y18350000D01*
X6899990Y18350000D02*
X6149990Y17600000D01*
D25*
X-4250000Y-6000000D02*
X-4250000Y-7150000D01*
X-4250000Y-7150000D02*
X-4200000Y-7200000D01*
X-4250000Y-6000000D02*
X-4250000Y-4850000D01*
X-4250000Y-4850000D02*
X-4200000Y-4800000D01*
X10550000Y22700000D02*
X10550000Y22050000D01*
X10550000Y22050000D02*
X10300000Y21800000D01*
D27*
X2500000Y15050000D02*
X1550000Y15050000D01*
X1550000Y15050000D02*
X1500000Y15000000D01*
X2500000Y15050000D02*
X3450000Y15050000D01*
X3450000Y15050000D02*
X3500000Y15000000D01*
D25*
X-2500000Y12000000D02*
X-2500000Y14000000D01*
X-2500000Y10000000D02*
X-2500000Y12000000D01*
X-4250000Y-6000000D02*
X-2500000Y-6000000D01*
D24*
X-2500000Y15050000D02*
X-3450000Y15050000D01*
X-3450000Y15050000D02*
X-3500000Y15000000D01*
X-2500000Y15050000D02*
X-1050000Y15050000D01*
X-4200000Y21500000D02*
X-5050000Y21500000D01*
X-5050000Y21500000D02*
X-5200000Y21350000D01*
D25*
X-5750000Y-6000000D02*
X-5750000Y-4850000D01*
X-5750000Y-4850000D02*
X-5800000Y-4800000D01*
X-5750000Y-6000000D02*
X-5750000Y-7150000D01*
X-5750000Y-7150000D02*
X-5800000Y-7200000D01*
X-5750000Y-6000000D02*
X-7500000Y-6000000D01*
D24*
X-6200000Y14900000D02*
X-6500000Y14600000D01*
X-6500000Y14600000D02*
X-6500000Y13050000D01*
X-6500000Y13050000D02*
X-7300000Y12250000D01*
X-7300000Y12250000D02*
X-7500000Y12250000D01*
D25*
X-7500000Y12250000D02*
X-7500000Y10750000D01*
D24*
X2500000Y16950000D02*
X2500000Y18500000D01*
X2500000Y18500000D02*
X2400000Y18600000D01*
X7000000Y20250000D02*
X7000000Y20888573D01*
X7000000Y20888573D02*
X6388583Y21499990D01*
D25*
X12050000Y22700000D02*
X12050000Y20130000D01*
X12050000Y20130000D02*
X12000000Y20080000D01*
D24*
X12000000Y15000000D02*
X10584000Y15000000D01*
X10584000Y15000000D02*
X8300000Y17284000D01*
X8300000Y20624575D02*
X5824575Y23100000D01*
X8300000Y17284000D02*
X8300000Y20624575D01*
X5824575Y23100000D02*
X3900000Y23100000D01*
X4000000Y22300000D02*
X5299999Y21000001D01*
X5299999Y21000001D02*
X5299999Y15600001D01*
X5299999Y15600001D02*
X8440000Y12460000D01*
X8440000Y12460000D02*
X12000000Y12460000D01*
X3500000Y20800000D02*
X4200001Y20099999D01*
X4200001Y20099999D02*
X4200001Y14499999D01*
X4200001Y14499999D02*
X8780000Y9920000D01*
X8780000Y9920000D02*
X12000000Y9920000D01*
X12000000Y9920000D02*
X11847600Y9920000D01*
X2600000Y21100000D02*
X2300001Y20800001D01*
X2300001Y20800001D02*
X2300001Y19536003D01*
X-300001Y8599999D02*
X-8270001Y8599999D01*
X2300001Y19536003D02*
X100000Y17336002D01*
X100000Y17336002D02*
X100000Y9000000D01*
X100000Y9000000D02*
X-300001Y8599999D01*
X-10584000Y13000000D02*
X-12000000Y13000000D01*
X-8270001Y8599999D02*
X-10200000Y10529998D01*
X-10200000Y10529998D02*
X-10200000Y12616000D01*
X-10200000Y12616000D02*
X-10584000Y13000000D01*
D25*
X-9000000Y20250000D02*
X1149999Y20249999D01*
X1149999Y20249999D02*
X1600000Y20700000D01*
X-9000000Y20250000D02*
X-9000000Y18750000D01*
X-9000000Y20250000D02*
X-11750000Y20250000D01*
X-11750000Y20250000D02*
X-12000000Y20000000D01*
X-6140413Y24621722D02*
X-7512135Y23250000D01*
X-7512135Y23250000D02*
X-7671175Y23250000D01*
X-9000000Y23250000D02*
X-7671175Y23250000D01*
X-9000000Y21750000D02*
X-9000000Y23250000D01*
X-9000000Y21750000D02*
X-11210000Y21750000D01*
X-11210000Y21750000D02*
X-12000000Y22540000D01*
D27*
X750000Y22000000D02*
X750000Y21750000D01*
D24*
X750000Y21750000D02*
X0Y21000000D01*
X0Y25000000D02*
X750000Y24250000D01*
X750000Y24250000D02*
X750000Y22000000D01*
X-1250000Y25000000D02*
X0Y25000000D01*
X-750000Y22000000D02*
X-750000Y21250000D01*
X-750000Y21250000D02*
X-1000000Y21000000D01*
X-3000000Y24000000D02*
X-3000000Y22750000D01*
X-2750000Y25000000D02*
X-2750000Y24250000D01*
X-2750000Y24250000D02*
X-3000000Y24000000D01*
X-3000000Y21250000D02*
X-2250000Y21250000D01*
X-2250000Y21250000D02*
X-2000000Y21000000D01*
X7157269Y22757269D02*
X9400000Y25000000D01*
X9400000Y25000000D02*
X10700000Y25000000D01*
D25*
X-2500000Y16950000D02*
X-2500000Y18350010D01*
X-2500000Y18350010D02*
X-2350010Y18500000D01*
X-7500000Y16750000D02*
X-7850000Y16750000D01*
X-7850000Y16750000D02*
X-8350000Y17250000D01*
X-8350000Y17250000D02*
X-9000000Y17250000D01*
X-6250000Y16950000D02*
X-6450000Y16750000D01*
X-6450000Y16750000D02*
X-7500000Y16750000D01*
X-2500000Y16950000D02*
X-6250000Y16950000D01*
X-7500000Y15250000D02*
X-7500000Y13750000D01*
M02*
