G04 #@! TF.FileFunction,Soldermask,Top*
%FSLAX46Y46*%
G04 Gerber Fmt 4.6, Leading zero omitted, Abs format (unit mm)*
G04 Created by KiCad (PCBNEW 4.0.1-stable) date 2016/08/25 3:11:25*
%MOMM*%
G01*
G04 APERTURE LIST*
%ADD10C,0.100000*%
%ADD11C,2.200000*%
%ADD12C,1.924000*%
%ADD13R,2.432000X2.127200*%
%ADD14O,2.432000X2.127200*%
%ADD15R,2.432000X2.432000*%
%ADD16O,2.432000X2.432000*%
%ADD17R,1.300000X0.900000*%
%ADD18C,1.800000*%
%ADD19C,1.900000*%
%ADD20R,1.390000X0.810000*%
%ADD21R,1.340000X0.810000*%
%ADD22R,0.810000X1.390000*%
G04 APERTURE END LIST*
D10*
D11*
X-10450000Y-12000000D03*
X-12049999Y-14771281D03*
X6661457Y-8526276D03*
X-6678123Y-31418100D03*
X-12450000Y28000000D03*
X12450000Y28000000D03*
X-12450000Y-28000000D03*
X12450000Y-28000000D03*
X12450000Y0D03*
X-12450000Y0D03*
D12*
X-2500000Y-6000000D03*
X-7500000Y-6000000D03*
D13*
X12000000Y20080000D03*
D14*
X12000000Y17540000D03*
X12000000Y15000000D03*
X12000000Y12460000D03*
X12000000Y9920000D03*
D15*
X-12000000Y13000000D03*
D16*
X-12000000Y10460000D03*
D15*
X-12000000Y20000000D03*
D16*
X-12000000Y22540000D03*
D11*
X8800000Y3810000D03*
X8890000Y6350000D03*
X6350000Y3810000D03*
X6350000Y6350000D03*
X3810000Y3810000D03*
X3800000Y6350000D03*
X1270000Y3810000D03*
X1270000Y6350000D03*
X-6350000Y3810000D03*
X-6350000Y6350000D03*
X-8890000Y6350000D03*
X-8890000Y3810000D03*
X-11430000Y6350000D03*
X-11430000Y3810000D03*
D17*
X-10000000Y-8750000D03*
X-10000000Y-7250000D03*
D18*
X-12000000Y-9000000D03*
X-12000000Y-6460000D03*
D19*
X700000Y16700000D03*
X-1500000Y16700000D03*
X-2700000Y-3300000D03*
X12100000Y25000000D03*
D20*
X5205000Y25500000D03*
X5205000Y24840000D03*
X5205000Y24180000D03*
X5205000Y23520000D03*
X5205000Y22860000D03*
X5205000Y22200000D03*
X5205000Y21540000D03*
X5205000Y20880000D03*
D21*
X5230000Y20220000D03*
D20*
X-5205000Y25500000D03*
X-5205000Y24840000D03*
X-5205000Y24180000D03*
X-5205000Y23520000D03*
X-5205000Y22860000D03*
X-5205000Y22200000D03*
X-5205000Y21540000D03*
X-5205000Y20880000D03*
D21*
X-5230000Y20220000D03*
D22*
X4290000Y19625000D03*
X3630000Y19625000D03*
X2970000Y19625000D03*
X2310000Y19625000D03*
X1650000Y19625000D03*
X990000Y19625000D03*
X330000Y19625000D03*
X-330000Y19625000D03*
X-990000Y19625000D03*
X-1650000Y19625000D03*
X-2310000Y19625000D03*
X-2970000Y19625000D03*
X-3630000Y19625000D03*
X-4290000Y19625000D03*
M02*
