G04 #@! TF.FileFunction,Profile,NP*
%FSLAX46Y46*%
G04 Gerber Fmt 4.6, Leading zero omitted, Abs format (unit mm)*
G04 Created by KiCad (PCBNEW 4.0.1-stable) date 2016/08/25 3:11:25*
%MOMM*%
G01*
G04 APERTURE LIST*
%ADD10C,0.100000*%
G04 APERTURE END LIST*
D10*
X8999593Y34431427D02*
G75*
G02X9999593Y33431427I0J-1000000D01*
G01*
X-14450407Y-29018573D02*
X-14450407Y28981427D01*
X11499593Y-30018573D02*
X13449593Y-30018573D01*
X9999593Y31481427D02*
X9999593Y33431427D01*
X14449593Y28981427D02*
X14449593Y-29018573D01*
X-10000407Y33431427D02*
G75*
G02X-9000407Y34431427I1000000J0D01*
G01*
X14449593Y-29018573D02*
G75*
G02X13449593Y-30018573I-1000000J0D01*
G01*
X13449593Y29981427D02*
G75*
G02X14449593Y28981427I0J-1000000D01*
G01*
X9999593Y-31518573D02*
G75*
G02X11499593Y-30018573I1500000J0D01*
G01*
X9999593Y-33468573D02*
G75*
G02X8999593Y-34468573I-1000000J0D01*
G01*
X13449593Y29981427D02*
X11499593Y29981427D01*
X11499593Y29981427D02*
G75*
G02X9999593Y31481427I0J1500000D01*
G01*
X-13450407Y-30018573D02*
X-11500407Y-30018573D01*
X-11500407Y-30018573D02*
G75*
G02X-10000407Y-31518573I0J-1500000D01*
G01*
X-10000407Y-31518573D02*
X-10000407Y-33468573D01*
X-9000407Y34431427D02*
X8999593Y34431427D01*
X-13450407Y-30018573D02*
G75*
G02X-14450407Y-29018573I0J1000000D01*
G01*
X-9000407Y-34468573D02*
G75*
G02X-10000407Y-33468573I0J1000000D01*
G01*
X8999593Y-34468573D02*
X-9000407Y-34468573D01*
X-11500407Y29981427D02*
X-13450407Y29981427D01*
X-10000407Y31481427D02*
G75*
G02X-11500407Y29981427I-1500000J0D01*
G01*
X-14450407Y28981427D02*
G75*
G02X-13450407Y29981427I1000000J0D01*
G01*
X9999593Y-33468573D02*
X9999593Y-31518573D01*
X-10000407Y33431427D02*
X-10000407Y31481427D01*
M02*
