G04 #@! TF.FileFunction,Copper,L2,Inr,Plane*
%FSLAX46Y46*%
G04 Gerber Fmt 4.6, Leading zero omitted, Abs format (unit mm)*
G04 Created by KiCad (PCBNEW 4.0.1-stable) date 2016/08/25 3:11:25*
%MOMM*%
G01*
G04 APERTURE LIST*
%ADD10C,0.100000*%
%ADD11C,1.800000*%
%ADD12C,1.524000*%
%ADD13R,2.032000X1.727200*%
%ADD14O,2.032000X1.727200*%
%ADD15R,2.032000X2.032000*%
%ADD16O,2.032000X2.032000*%
%ADD17C,1.400000*%
%ADD18C,0.600000*%
%ADD19C,0.250000*%
%ADD20C,0.254000*%
G04 APERTURE END LIST*
D10*
D11*
X-10450000Y-12000000D03*
X-12049999Y-14771281D03*
X6661457Y-8526276D03*
X-6678123Y-31418100D03*
X-12450000Y28000000D03*
X12450000Y28000000D03*
X-12450000Y-28000000D03*
X12450000Y-28000000D03*
X12450000Y0D03*
X-12450000Y0D03*
D12*
X-2500000Y-6000000D03*
X-7500000Y-6000000D03*
D13*
X12000000Y20080000D03*
D14*
X12000000Y17540000D03*
X12000000Y15000000D03*
X12000000Y12460000D03*
X12000000Y9920000D03*
D15*
X-12000000Y13000000D03*
D16*
X-12000000Y10460000D03*
D15*
X-12000000Y20000000D03*
D16*
X-12000000Y22540000D03*
D11*
X8800000Y3810000D03*
X8890000Y6350000D03*
X6350000Y3810000D03*
X6350000Y6350000D03*
X3810000Y3810000D03*
X3800000Y6350000D03*
X1270000Y3810000D03*
X1270000Y6350000D03*
X-6350000Y3810000D03*
X-6350000Y6350000D03*
X-8890000Y6350000D03*
X-8890000Y3810000D03*
X-11430000Y6350000D03*
X-11430000Y3810000D03*
D17*
X-12000000Y-9000000D03*
X-12000000Y-6460000D03*
D18*
X-10000000Y-9800000D03*
X-1000000Y-32000000D03*
X3000000Y-32000000D03*
X-5000000Y-3000000D03*
X-5000000Y-9000000D03*
X-8000000Y-9000000D03*
X-9000000Y-17000000D03*
X-13000000Y-17000000D03*
X-12000000Y-19000000D03*
X-12000000Y-24000000D03*
X-7000000Y-28000000D03*
X12000000Y6000000D03*
X10000000Y1000000D03*
X12000000Y-4000000D03*
X12000000Y-9000000D03*
X12000000Y-14000000D03*
X12000000Y-19000000D03*
X12000000Y-24000000D03*
X8000000Y-28000000D03*
X8000000Y-32000000D03*
X-13000000Y26000000D03*
X-10800000Y29000000D03*
X13700000Y26000000D03*
X10700000Y28900000D03*
X-4000000Y22400000D03*
X4300000Y25400000D03*
X-4000000Y25400000D03*
X-6515130Y25328539D03*
X-8000000Y24800000D03*
X-6300000Y9300000D03*
X-5500000Y10000000D03*
X-5500000Y14000000D03*
X6149990Y17600000D03*
X-4200000Y-7200000D03*
X-4200000Y-4800000D03*
X10300000Y21800000D03*
X-2500000Y10000000D03*
X-2500000Y14000000D03*
X3500000Y15000000D03*
X1500000Y15000000D03*
X-3500000Y15000000D03*
X-1000000Y15000000D03*
X-4200000Y21500000D03*
X-5800000Y-4800000D03*
X-5800000Y-7200000D03*
X-10000000Y-6400000D03*
X-7500000Y-6000000D03*
X-6200000Y14900000D03*
X2400000Y18600000D03*
X6388583Y21499990D03*
X3900000Y23100000D03*
X4000000Y22300000D03*
X3500000Y20800000D03*
X2600000Y21100000D03*
X1600000Y20700000D03*
X-6140413Y24621722D03*
X0Y21000000D03*
X-1000000Y21000000D03*
X-3000000Y24000000D03*
X-2000000Y21000000D03*
X10700000Y25000000D03*
X7157269Y22757269D03*
X-2350010Y18500000D03*
D19*
X-1000000Y-32000000D02*
X-6096223Y-32000000D01*
X-6096223Y-32000000D02*
X-6678123Y-31418100D01*
X8000000Y-32000000D02*
X3000000Y-32000000D01*
X-8000000Y-9000000D02*
X-5000000Y-9000000D01*
X-13000000Y-17000000D02*
X-9000000Y-17000000D01*
X-12000000Y-24000000D02*
X-12000000Y-19000000D01*
X-6678123Y-31418100D02*
X-6678123Y-28321877D01*
X-6678123Y-28321877D02*
X-7000000Y-28000000D01*
X10000000Y1000000D02*
X12000000Y3000000D01*
X12000000Y3000000D02*
X12000000Y6000000D01*
X12000000Y-9000000D02*
X12000000Y-4000000D01*
X12000000Y-19000000D02*
X12000000Y-14000000D01*
X8000000Y-28000000D02*
X12000000Y-24000000D01*
X8000000Y-32000000D02*
X8000000Y-28000000D01*
X-6678123Y-31418100D02*
X7418100Y-31418100D01*
X7418100Y-31418100D02*
X8000000Y-32000000D01*
X-10800000Y25600000D02*
X-12600000Y25600000D01*
X-12600000Y25600000D02*
X-13000000Y26000000D01*
X-10000000Y24800000D02*
X-10800000Y25600000D01*
X-10800000Y25600000D02*
X-10800000Y29000000D01*
X-9800000Y24800000D02*
X-10000000Y24800000D01*
X-8000000Y24800000D02*
X-9800000Y24800000D01*
X13341001Y25295997D02*
X13341001Y25641001D01*
X13341001Y25641001D02*
X13700000Y26000000D01*
X12000000Y17540000D02*
X12152400Y17540000D01*
X12152400Y17540000D02*
X13341001Y18728601D01*
X13341001Y18728601D02*
X13341001Y25295997D01*
X13341001Y25295997D02*
X10700000Y27936998D01*
X10700000Y27936998D02*
X10700000Y28900000D01*
D20*
G36*
X-10127000Y25750000D02*
X-10118315Y25703841D01*
X-10091035Y25661447D01*
X-10049410Y25633006D01*
X-10000000Y25623000D01*
X10000000Y25623000D01*
X10046159Y25631685D01*
X10088553Y25658965D01*
X10116994Y25700590D01*
X10127000Y25750000D01*
X10127000Y27746311D01*
X11168778Y27746311D01*
X11363388Y27275320D01*
X11723425Y26914655D01*
X12194076Y26719223D01*
X12703689Y26718778D01*
X13174680Y26913388D01*
X13535345Y27273425D01*
X13730777Y27744076D01*
X13731222Y28253689D01*
X13536612Y28724680D01*
X13176575Y29085345D01*
X12705924Y29280777D01*
X12196311Y29281222D01*
X11725320Y29086612D01*
X11364655Y28726575D01*
X11169223Y28255924D01*
X11168778Y27746311D01*
X10127000Y27746311D01*
X10127000Y29750544D01*
X10246760Y29670523D01*
X10292541Y29651560D01*
X10675224Y29575440D01*
X10700000Y29573000D01*
X11343663Y29573000D01*
X11415509Y29558709D01*
X11457958Y29558709D01*
X11499593Y29550427D01*
X13286761Y29550427D01*
X13518916Y29504249D01*
X13809851Y29309851D01*
X14002032Y29022234D01*
X14018593Y28938975D01*
X14018593Y-28846803D01*
X14004249Y-28918916D01*
X13808459Y-29211935D01*
X13611935Y-29408459D01*
X13343873Y-29587573D01*
X11499593Y-29587573D01*
X11457958Y-29595855D01*
X11415509Y-29595855D01*
X11027676Y-29673000D01*
X10700000Y-29673000D01*
X10675224Y-29675440D01*
X10292541Y-29751560D01*
X10246760Y-29770523D01*
X9922336Y-29987296D01*
X9887296Y-30022336D01*
X9670523Y-30346760D01*
X9651560Y-30392541D01*
X9575440Y-30775224D01*
X9573000Y-30800000D01*
X9573000Y-31496418D01*
X9568593Y-31518573D01*
X9568593Y-33195433D01*
X9504249Y-33518916D01*
X9309851Y-33809851D01*
X9018916Y-34004249D01*
X8851383Y-34037573D01*
X-8651383Y-34037573D01*
X-8818916Y-34004249D01*
X-9111935Y-33808459D01*
X-9308459Y-33611935D01*
X-9504249Y-33318916D01*
X-9569407Y-32991340D01*
X-9569407Y-31518573D01*
X-9573000Y-31500510D01*
X-9573000Y-30800000D01*
X-9575440Y-30775224D01*
X-9651560Y-30392541D01*
X-9670523Y-30346760D01*
X-9887296Y-30022336D01*
X-9922336Y-29987296D01*
X-10246760Y-29770523D01*
X-10292541Y-29751560D01*
X-10675224Y-29675440D01*
X-10700000Y-29673000D01*
X-11028490Y-29673000D01*
X-11416323Y-29595855D01*
X-11458772Y-29595855D01*
X-11500407Y-29587573D01*
X-13343873Y-29587573D01*
X-13611935Y-29408459D01*
X-13808459Y-29211935D01*
X-14004249Y-28918916D01*
X-14019407Y-28842711D01*
X-14019407Y-28253689D01*
X-13731222Y-28253689D01*
X-13536612Y-28724680D01*
X-13176575Y-29085345D01*
X-12705924Y-29280777D01*
X-12196311Y-29281222D01*
X-11725320Y-29086612D01*
X-11364655Y-28726575D01*
X-11169223Y-28255924D01*
X-11169222Y-28253689D01*
X11168778Y-28253689D01*
X11363388Y-28724680D01*
X11723425Y-29085345D01*
X12194076Y-29280777D01*
X12703689Y-29281222D01*
X13174680Y-29086612D01*
X13535345Y-28726575D01*
X13730777Y-28255924D01*
X13731222Y-27746311D01*
X13536612Y-27275320D01*
X13176575Y-26914655D01*
X12705924Y-26719223D01*
X12196311Y-26718778D01*
X11725320Y-26913388D01*
X11364655Y-27273425D01*
X11169223Y-27744076D01*
X11168778Y-28253689D01*
X-11169222Y-28253689D01*
X-11168778Y-27746311D01*
X-11363388Y-27275320D01*
X-11723425Y-26914655D01*
X-12194076Y-26719223D01*
X-12703689Y-26718778D01*
X-13174680Y-26913388D01*
X-13535345Y-27273425D01*
X-13730777Y-27744076D01*
X-13731222Y-28253689D01*
X-14019407Y-28253689D01*
X-14019407Y-8300000D01*
X-13381000Y-8300000D01*
X-13381000Y-15700000D01*
X-13354944Y-15838477D01*
X-13273104Y-15965660D01*
X-13148230Y-16050983D01*
X-13000000Y-16081000D01*
X-9500000Y-16081000D01*
X-9361523Y-16054944D01*
X-9234340Y-15973104D01*
X-9149017Y-15848230D01*
X-9119000Y-15700000D01*
X-9119000Y-8300000D01*
X-9145056Y-8161523D01*
X-9226896Y-8034340D01*
X-9351770Y-7949017D01*
X-9500000Y-7919000D01*
X-11999630Y-7919000D01*
X-12214081Y-7918813D01*
X-12214534Y-7919000D01*
X-13000000Y-7919000D01*
X-13138477Y-7945056D01*
X-13265660Y-8026896D01*
X-13350983Y-8151770D01*
X-13381000Y-8300000D01*
X-14019407Y-8300000D01*
X-14019407Y-4400000D01*
X-13381000Y-4400000D01*
X-13381000Y-7500000D01*
X-13354944Y-7638477D01*
X-13273104Y-7765660D01*
X-13148230Y-7850983D01*
X-13000000Y-7881000D01*
X-5800595Y-7881000D01*
X-5665135Y-7881118D01*
X-5664849Y-7881000D01*
X-5500000Y-7881000D01*
X-5361523Y-7854944D01*
X-5234340Y-7773104D01*
X-5149017Y-7648230D01*
X-5119000Y-7500000D01*
X-5119000Y-7200595D01*
X-5118882Y-7065135D01*
X-5119000Y-7064849D01*
X-5119000Y-4934865D01*
X-4881118Y-4934865D01*
X-4881000Y-4935151D01*
X-4881000Y-7199406D01*
X-4881118Y-7334865D01*
X-4881000Y-7335151D01*
X-4881000Y-7500000D01*
X-4854944Y-7638477D01*
X-4773104Y-7765660D01*
X-4648230Y-7850983D01*
X-4500000Y-7881000D01*
X-4200595Y-7881000D01*
X-4065135Y-7881118D01*
X-4064849Y-7881000D01*
X-500000Y-7881000D01*
X-361523Y-7854944D01*
X-234340Y-7773104D01*
X-149017Y-7648230D01*
X-119000Y-7500000D01*
X-119000Y-253689D01*
X11168778Y-253689D01*
X11363388Y-724680D01*
X11723425Y-1085345D01*
X12194076Y-1280777D01*
X12703689Y-1281222D01*
X13174680Y-1086612D01*
X13535345Y-726575D01*
X13730777Y-255924D01*
X13731222Y253689D01*
X13536612Y724680D01*
X13176575Y1085345D01*
X12705924Y1280777D01*
X12196311Y1281222D01*
X11725320Y1086612D01*
X11364655Y726575D01*
X11169223Y255924D01*
X11168778Y-253689D01*
X-119000Y-253689D01*
X-119000Y6096311D01*
X-11222Y6096311D01*
X183388Y5625320D01*
X543425Y5264655D01*
X988636Y5079787D01*
X545320Y4896612D01*
X184655Y4536575D01*
X-10777Y4065924D01*
X-11222Y3556311D01*
X183388Y3085320D01*
X543425Y2724655D01*
X1014076Y2529223D01*
X1523689Y2528778D01*
X1994680Y2723388D01*
X2355345Y3083425D01*
X2540213Y3528636D01*
X2723388Y3085320D01*
X3083425Y2724655D01*
X3554076Y2529223D01*
X4063689Y2528778D01*
X4534680Y2723388D01*
X4895345Y3083425D01*
X5080213Y3528636D01*
X5263388Y3085320D01*
X5623425Y2724655D01*
X6094076Y2529223D01*
X6603689Y2528778D01*
X7074680Y2723388D01*
X7435345Y3083425D01*
X7575102Y3419996D01*
X7713388Y3085320D01*
X8073425Y2724655D01*
X8544076Y2529223D01*
X9053689Y2528778D01*
X9524680Y2723388D01*
X9885345Y3083425D01*
X10080777Y3554076D01*
X10081222Y4063689D01*
X9886612Y4534680D01*
X9526575Y4895345D01*
X9108830Y5068808D01*
X9143689Y5068778D01*
X9614680Y5263388D01*
X9975345Y5623425D01*
X10170777Y6094076D01*
X10171222Y6603689D01*
X9976612Y7074680D01*
X9616575Y7435345D01*
X9145924Y7630777D01*
X8636311Y7631222D01*
X8165320Y7436612D01*
X7804655Y7076575D01*
X7619787Y6631364D01*
X7436612Y7074680D01*
X7076575Y7435345D01*
X6605924Y7630777D01*
X6096311Y7631222D01*
X5625320Y7436612D01*
X5264655Y7076575D01*
X5074774Y6619293D01*
X4886612Y7074680D01*
X4526575Y7435345D01*
X4055924Y7630777D01*
X3546311Y7631222D01*
X3075320Y7436612D01*
X2714655Y7076575D01*
X2534799Y6643435D01*
X2356612Y7074680D01*
X1996575Y7435345D01*
X1525924Y7630777D01*
X1016311Y7631222D01*
X545320Y7436612D01*
X184655Y7076575D01*
X-10777Y6605924D01*
X-11222Y6096311D01*
X-119000Y6096311D01*
X-119000Y9920000D01*
X10575631Y9920000D01*
X10670371Y9443712D01*
X10940166Y9039935D01*
X11343943Y8770140D01*
X11820231Y8675400D01*
X12179769Y8675400D01*
X12656057Y8770140D01*
X13059834Y9039935D01*
X13329629Y9443712D01*
X13424369Y9920000D01*
X13329629Y10396288D01*
X13059834Y10800065D01*
X12656057Y11069860D01*
X12179769Y11164600D01*
X11820231Y11164600D01*
X11343943Y11069860D01*
X10940166Y10800065D01*
X10670371Y10396288D01*
X10575631Y9920000D01*
X-119000Y9920000D01*
X-119000Y12460000D01*
X10575631Y12460000D01*
X10670371Y11983712D01*
X10940166Y11579935D01*
X11343943Y11310140D01*
X11820231Y11215400D01*
X12179769Y11215400D01*
X12656057Y11310140D01*
X13059834Y11579935D01*
X13329629Y11983712D01*
X13424369Y12460000D01*
X13329629Y12936288D01*
X13059834Y13340065D01*
X12656057Y13609860D01*
X12179769Y13704600D01*
X11820231Y13704600D01*
X11343943Y13609860D01*
X10940166Y13340065D01*
X10670371Y12936288D01*
X10575631Y12460000D01*
X-119000Y12460000D01*
X-119000Y12619000D01*
X10300000Y12619000D01*
X10438477Y12645056D01*
X10565660Y12726896D01*
X10650983Y12851770D01*
X10681000Y13000000D01*
X10681000Y14507805D01*
X10940166Y14119935D01*
X11343943Y13850140D01*
X11820231Y13755400D01*
X12179769Y13755400D01*
X12656057Y13850140D01*
X13059834Y14119935D01*
X13329629Y14523712D01*
X13424369Y15000000D01*
X13329629Y15476288D01*
X13059834Y15880065D01*
X12656057Y16149860D01*
X12179769Y16244600D01*
X11820231Y16244600D01*
X11343943Y16149860D01*
X10940166Y15880065D01*
X10681000Y15492195D01*
X10681000Y18983681D01*
X10705546Y18945535D01*
X10832866Y18858541D01*
X10984000Y18827936D01*
X13016000Y18827936D01*
X13157190Y18854503D01*
X13286865Y18937946D01*
X13373859Y19065266D01*
X13404464Y19216400D01*
X13404464Y20943600D01*
X13377897Y21084790D01*
X13294454Y21214465D01*
X13167134Y21301459D01*
X13016000Y21332064D01*
X10984000Y21332064D01*
X10967839Y21329023D01*
X10969408Y21330592D01*
X11050983Y21451770D01*
X11081000Y21600000D01*
X11081000Y21900000D01*
X11052997Y22043367D01*
X10969408Y22169408D01*
X10669408Y22469408D01*
X10548230Y22550983D01*
X10400000Y22581000D01*
X9900000Y22581000D01*
X9756633Y22552997D01*
X9630592Y22469408D01*
X5430592Y18269408D01*
X5349017Y18148230D01*
X5319000Y18000000D01*
X5319000Y15881000D01*
X-4000000Y15881000D01*
X-4138477Y15854944D01*
X-4265660Y15773104D01*
X-4350983Y15648230D01*
X-4381000Y15500000D01*
X-4381000Y-4019000D01*
X-4500000Y-4019000D01*
X-4638477Y-4045056D01*
X-4765660Y-4126896D01*
X-4850983Y-4251770D01*
X-4881000Y-4400000D01*
X-4881000Y-4799406D01*
X-4881118Y-4934865D01*
X-5119000Y-4934865D01*
X-5119000Y-4800595D01*
X-5118882Y-4665135D01*
X-5119000Y-4664849D01*
X-5119000Y-4400000D01*
X-5145056Y-4261523D01*
X-5226896Y-4134340D01*
X-5351770Y-4049017D01*
X-5500000Y-4019000D01*
X-13000000Y-4019000D01*
X-13138477Y-4045056D01*
X-13265660Y-4126896D01*
X-13350983Y-4251770D01*
X-13381000Y-4400000D01*
X-14019407Y-4400000D01*
X-14019407Y-253689D01*
X-13731222Y-253689D01*
X-13536612Y-724680D01*
X-13176575Y-1085345D01*
X-12705924Y-1280777D01*
X-12196311Y-1281222D01*
X-11725320Y-1086612D01*
X-11364655Y-726575D01*
X-11169223Y-255924D01*
X-11168778Y253689D01*
X-11363388Y724680D01*
X-11723425Y1085345D01*
X-12194076Y1280777D01*
X-12703689Y1281222D01*
X-13174680Y1086612D01*
X-13535345Y726575D01*
X-13730777Y255924D01*
X-13731222Y-253689D01*
X-14019407Y-253689D01*
X-14019407Y6096311D01*
X-12711222Y6096311D01*
X-12516612Y5625320D01*
X-12156575Y5264655D01*
X-11711364Y5079787D01*
X-12154680Y4896612D01*
X-12515345Y4536575D01*
X-12710777Y4065924D01*
X-12711222Y3556311D01*
X-12516612Y3085320D01*
X-12156575Y2724655D01*
X-11685924Y2529223D01*
X-11176311Y2528778D01*
X-10705320Y2723388D01*
X-10344655Y3083425D01*
X-10159787Y3528636D01*
X-9976612Y3085320D01*
X-9616575Y2724655D01*
X-9145924Y2529223D01*
X-8636311Y2528778D01*
X-8165320Y2723388D01*
X-7804655Y3083425D01*
X-7619787Y3528636D01*
X-7436612Y3085320D01*
X-7076575Y2724655D01*
X-6605924Y2529223D01*
X-6096311Y2528778D01*
X-5625320Y2723388D01*
X-5264655Y3083425D01*
X-5069223Y3554076D01*
X-5068778Y4063689D01*
X-5263388Y4534680D01*
X-5623425Y4895345D01*
X-6068636Y5080213D01*
X-5625320Y5263388D01*
X-5264655Y5623425D01*
X-5069223Y6094076D01*
X-5068778Y6603689D01*
X-5263388Y7074680D01*
X-5623425Y7435345D01*
X-6094076Y7630777D01*
X-6603689Y7631222D01*
X-7074680Y7436612D01*
X-7435345Y7076575D01*
X-7620213Y6631364D01*
X-7803388Y7074680D01*
X-8163425Y7435345D01*
X-8634076Y7630777D01*
X-9143689Y7631222D01*
X-9614680Y7436612D01*
X-9975345Y7076575D01*
X-10160213Y6631364D01*
X-10343388Y7074680D01*
X-10703425Y7435345D01*
X-11174076Y7630777D01*
X-11683689Y7631222D01*
X-12154680Y7436612D01*
X-12515345Y7076575D01*
X-12710777Y6605924D01*
X-12711222Y6096311D01*
X-14019407Y6096311D01*
X-14019407Y14016000D01*
X-13404464Y14016000D01*
X-13404464Y11984000D01*
X-13377897Y11842810D01*
X-13294454Y11713135D01*
X-13167134Y11626141D01*
X-13016000Y11595536D01*
X-10984000Y11595536D01*
X-10842810Y11622103D01*
X-10713135Y11705546D01*
X-10626141Y11832866D01*
X-10595536Y11984000D01*
X-10595536Y14016000D01*
X-10622103Y14157190D01*
X-10705546Y14286865D01*
X-10832866Y14373859D01*
X-10984000Y14404464D01*
X-13016000Y14404464D01*
X-13157190Y14377897D01*
X-13286865Y14294454D01*
X-13373859Y14167134D01*
X-13404464Y14016000D01*
X-14019407Y14016000D01*
X-14019407Y14765135D01*
X-6881118Y14765135D01*
X-6777661Y14514748D01*
X-6586259Y14323013D01*
X-6336054Y14219118D01*
X-6065135Y14218882D01*
X-5814748Y14322339D01*
X-5623013Y14513741D01*
X-5519118Y14763946D01*
X-5518882Y15034865D01*
X-5622339Y15285252D01*
X-5813741Y15476987D01*
X-6063946Y15580882D01*
X-6334865Y15581118D01*
X-6585252Y15477661D01*
X-6776987Y15286259D01*
X-6880882Y15036054D01*
X-6881118Y14765135D01*
X-14019407Y14765135D01*
X-14019407Y18365135D01*
X-3031128Y18365135D01*
X-2927671Y18114748D01*
X-2736269Y17923013D01*
X-2486064Y17819118D01*
X-2215145Y17818882D01*
X-1964758Y17922339D01*
X-1773023Y18113741D01*
X-1669128Y18363946D01*
X-1669040Y18465135D01*
X1718882Y18465135D01*
X1822339Y18214748D01*
X2013741Y18023013D01*
X2263946Y17919118D01*
X2534865Y17918882D01*
X2785252Y18022339D01*
X2976987Y18213741D01*
X3080882Y18463946D01*
X3081118Y18734865D01*
X2977661Y18985252D01*
X2786259Y19176987D01*
X2536054Y19280882D01*
X2265135Y19281118D01*
X2014748Y19177661D01*
X1823013Y18986259D01*
X1719118Y18736054D01*
X1718882Y18465135D01*
X-1669040Y18465135D01*
X-1668892Y18634865D01*
X-1772349Y18885252D01*
X-1963751Y19076987D01*
X-2213956Y19180882D01*
X-2484875Y19181118D01*
X-2735262Y19077661D01*
X-2926997Y18886259D01*
X-3030892Y18636054D01*
X-3031128Y18365135D01*
X-14019407Y18365135D01*
X-14019407Y22540000D01*
X-13424369Y22540000D01*
X-13318029Y22005391D01*
X-13015197Y21552172D01*
X-12794137Y21404464D01*
X-13016000Y21404464D01*
X-13157190Y21377897D01*
X-13286865Y21294454D01*
X-13373859Y21167134D01*
X-13404464Y21016000D01*
X-13404464Y18984000D01*
X-13377897Y18842810D01*
X-13294454Y18713135D01*
X-13167134Y18626141D01*
X-13016000Y18595536D01*
X-10984000Y18595536D01*
X-10842810Y18622103D01*
X-10713135Y18705546D01*
X-10626141Y18832866D01*
X-10595536Y18984000D01*
X-10595536Y21016000D01*
X-10622103Y21157190D01*
X-10705546Y21286865D01*
X-10820097Y21365135D01*
X-4881118Y21365135D01*
X-4777661Y21114748D01*
X-4586259Y20923013D01*
X-4336054Y20819118D01*
X-4065135Y20818882D01*
X-3953194Y20865135D01*
X-2681118Y20865135D01*
X-2577661Y20614748D01*
X-2386259Y20423013D01*
X-2136054Y20319118D01*
X-1865135Y20318882D01*
X-1614748Y20422339D01*
X-1499968Y20536920D01*
X-1386259Y20423013D01*
X-1136054Y20319118D01*
X-865135Y20318882D01*
X-614748Y20422339D01*
X-499968Y20536920D01*
X-386259Y20423013D01*
X-136054Y20319118D01*
X134865Y20318882D01*
X385252Y20422339D01*
X528296Y20565135D01*
X918882Y20565135D01*
X1022339Y20314748D01*
X1213741Y20123013D01*
X1463946Y20019118D01*
X1734865Y20018882D01*
X1985252Y20122339D01*
X2176987Y20313741D01*
X2256511Y20505253D01*
X2463946Y20419118D01*
X2734865Y20418882D01*
X2893541Y20484445D01*
X2922339Y20414748D01*
X3113741Y20223013D01*
X3363946Y20119118D01*
X3634865Y20118882D01*
X3885252Y20222339D01*
X4076987Y20413741D01*
X4180882Y20663946D01*
X4181118Y20934865D01*
X4077661Y21185252D01*
X3898101Y21365125D01*
X5707465Y21365125D01*
X5810922Y21114738D01*
X6002324Y20923003D01*
X6252529Y20819108D01*
X6523448Y20818872D01*
X6773835Y20922329D01*
X6965570Y21113731D01*
X7069465Y21363936D01*
X7069701Y21634855D01*
X6966244Y21885242D01*
X6774842Y22076977D01*
X6524637Y22180872D01*
X6253718Y22181108D01*
X6003331Y22077651D01*
X5811596Y21886249D01*
X5707701Y21636044D01*
X5707465Y21365125D01*
X3898101Y21365125D01*
X3886259Y21376987D01*
X3636054Y21480882D01*
X3365135Y21481118D01*
X3206459Y21415555D01*
X3177661Y21485252D01*
X2986259Y21676987D01*
X2736054Y21780882D01*
X2465135Y21781118D01*
X2214748Y21677661D01*
X2023013Y21486259D01*
X1943489Y21294747D01*
X1736054Y21380882D01*
X1465135Y21381118D01*
X1214748Y21277661D01*
X1023013Y21086259D01*
X919118Y20836054D01*
X918882Y20565135D01*
X528296Y20565135D01*
X576987Y20613741D01*
X680882Y20863946D01*
X681118Y21134865D01*
X577661Y21385252D01*
X386259Y21576987D01*
X136054Y21680882D01*
X-134865Y21681118D01*
X-385252Y21577661D01*
X-500032Y21463080D01*
X-613741Y21576987D01*
X-863946Y21680882D01*
X-1134865Y21681118D01*
X-1385252Y21577661D01*
X-1500032Y21463080D01*
X-1613741Y21576987D01*
X-1863946Y21680882D01*
X-2134865Y21681118D01*
X-2385252Y21577661D01*
X-2576987Y21386259D01*
X-2680882Y21136054D01*
X-2681118Y20865135D01*
X-3953194Y20865135D01*
X-3814748Y20922339D01*
X-3623013Y21113741D01*
X-3519118Y21363946D01*
X-3518882Y21634865D01*
X-3622339Y21885252D01*
X-3813741Y22076987D01*
X-4063946Y22180882D01*
X-4334865Y22181118D01*
X-4585252Y22077661D01*
X-4776987Y21886259D01*
X-4880882Y21636054D01*
X-4881118Y21365135D01*
X-10820097Y21365135D01*
X-10832866Y21373859D01*
X-10984000Y21404464D01*
X-11205863Y21404464D01*
X-10984803Y21552172D01*
X-10681971Y22005391D01*
X-10575631Y22540000D01*
X-10660195Y22965135D01*
X3218882Y22965135D01*
X3322339Y22714748D01*
X3401793Y22635156D01*
X3319118Y22436054D01*
X3318882Y22165135D01*
X3422339Y21914748D01*
X3613741Y21723013D01*
X3863946Y21619118D01*
X4134865Y21618882D01*
X4385252Y21722339D01*
X4576987Y21913741D01*
X4680882Y22163946D01*
X4681118Y22434865D01*
X4603630Y22622404D01*
X6476151Y22622404D01*
X6579608Y22372017D01*
X6771010Y22180282D01*
X7021215Y22076387D01*
X7292134Y22076151D01*
X7542521Y22179608D01*
X7734256Y22371010D01*
X7838151Y22621215D01*
X7838387Y22892134D01*
X7734930Y23142521D01*
X7543528Y23334256D01*
X7293323Y23438151D01*
X7022404Y23438387D01*
X6772017Y23334930D01*
X6580282Y23143528D01*
X6476387Y22893323D01*
X6476151Y22622404D01*
X4603630Y22622404D01*
X4577661Y22685252D01*
X4498207Y22764844D01*
X4580882Y22963946D01*
X4581118Y23234865D01*
X4477661Y23485252D01*
X4286259Y23676987D01*
X4036054Y23780882D01*
X3765135Y23781118D01*
X3514748Y23677661D01*
X3323013Y23486259D01*
X3219118Y23236054D01*
X3218882Y22965135D01*
X-10660195Y22965135D01*
X-10681971Y23074609D01*
X-10984803Y23527828D01*
X-11438022Y23830660D01*
X-11611340Y23865135D01*
X-3681118Y23865135D01*
X-3577661Y23614748D01*
X-3386259Y23423013D01*
X-3136054Y23319118D01*
X-2865135Y23318882D01*
X-2614748Y23422339D01*
X-2423013Y23613741D01*
X-2319118Y23863946D01*
X-2318882Y24134865D01*
X-2422339Y24385252D01*
X-2613741Y24576987D01*
X-2863946Y24680882D01*
X-3134865Y24681118D01*
X-3385252Y24577661D01*
X-3576987Y24386259D01*
X-3680882Y24136054D01*
X-3681118Y23865135D01*
X-11611340Y23865135D01*
X-11972631Y23937000D01*
X-12027369Y23937000D01*
X-12561978Y23830660D01*
X-13015197Y23527828D01*
X-13318029Y23074609D01*
X-13424369Y22540000D01*
X-14019407Y22540000D01*
X-14019407Y24486857D01*
X-6821531Y24486857D01*
X-6718074Y24236470D01*
X-6526672Y24044735D01*
X-6276467Y23940840D01*
X-6005548Y23940604D01*
X-5755161Y24044061D01*
X-5563426Y24235463D01*
X-5459531Y24485668D01*
X-5459295Y24756587D01*
X-5504145Y24865135D01*
X10018882Y24865135D01*
X10122339Y24614748D01*
X10313741Y24423013D01*
X10563946Y24319118D01*
X10834865Y24318882D01*
X11085252Y24422339D01*
X11276987Y24613741D01*
X11380882Y24863946D01*
X11381118Y25134865D01*
X11277661Y25385252D01*
X11086259Y25576987D01*
X10836054Y25680882D01*
X10565135Y25681118D01*
X10314748Y25577661D01*
X10123013Y25386259D01*
X10019118Y25136054D01*
X10018882Y24865135D01*
X-5504145Y24865135D01*
X-5562752Y25006974D01*
X-5754154Y25198709D01*
X-6004359Y25302604D01*
X-6275278Y25302840D01*
X-6525665Y25199383D01*
X-6717400Y25007981D01*
X-6821295Y24757776D01*
X-6821531Y24486857D01*
X-14019407Y24486857D01*
X-14019407Y27746311D01*
X-13731222Y27746311D01*
X-13536612Y27275320D01*
X-13176575Y26914655D01*
X-12705924Y26719223D01*
X-12196311Y26718778D01*
X-11725320Y26913388D01*
X-11364655Y27273425D01*
X-11169223Y27744076D01*
X-11168778Y28253689D01*
X-11363388Y28724680D01*
X-11723425Y29085345D01*
X-12194076Y29280777D01*
X-12703689Y29281222D01*
X-13174680Y29086612D01*
X-13535345Y28726575D01*
X-13730777Y28255924D01*
X-13731222Y27746311D01*
X-14019407Y27746311D01*
X-14019407Y28742711D01*
X-14004249Y28818916D01*
X-13808459Y29111935D01*
X-13611935Y29308459D01*
X-13318916Y29504249D01*
X-13086761Y29550427D01*
X-11500407Y29550427D01*
X-11458772Y29558709D01*
X-11416323Y29558709D01*
X-11344477Y29573000D01*
X-10800000Y29573000D01*
X-10775224Y29575440D01*
X-10392541Y29651560D01*
X-10346760Y29670523D01*
X-10127000Y29817362D01*
X-10127000Y25750000D01*
X-10127000Y25750000D01*
G37*
X-10127000Y25750000D02*
X-10118315Y25703841D01*
X-10091035Y25661447D01*
X-10049410Y25633006D01*
X-10000000Y25623000D01*
X10000000Y25623000D01*
X10046159Y25631685D01*
X10088553Y25658965D01*
X10116994Y25700590D01*
X10127000Y25750000D01*
X10127000Y27746311D01*
X11168778Y27746311D01*
X11363388Y27275320D01*
X11723425Y26914655D01*
X12194076Y26719223D01*
X12703689Y26718778D01*
X13174680Y26913388D01*
X13535345Y27273425D01*
X13730777Y27744076D01*
X13731222Y28253689D01*
X13536612Y28724680D01*
X13176575Y29085345D01*
X12705924Y29280777D01*
X12196311Y29281222D01*
X11725320Y29086612D01*
X11364655Y28726575D01*
X11169223Y28255924D01*
X11168778Y27746311D01*
X10127000Y27746311D01*
X10127000Y29750544D01*
X10246760Y29670523D01*
X10292541Y29651560D01*
X10675224Y29575440D01*
X10700000Y29573000D01*
X11343663Y29573000D01*
X11415509Y29558709D01*
X11457958Y29558709D01*
X11499593Y29550427D01*
X13286761Y29550427D01*
X13518916Y29504249D01*
X13809851Y29309851D01*
X14002032Y29022234D01*
X14018593Y28938975D01*
X14018593Y-28846803D01*
X14004249Y-28918916D01*
X13808459Y-29211935D01*
X13611935Y-29408459D01*
X13343873Y-29587573D01*
X11499593Y-29587573D01*
X11457958Y-29595855D01*
X11415509Y-29595855D01*
X11027676Y-29673000D01*
X10700000Y-29673000D01*
X10675224Y-29675440D01*
X10292541Y-29751560D01*
X10246760Y-29770523D01*
X9922336Y-29987296D01*
X9887296Y-30022336D01*
X9670523Y-30346760D01*
X9651560Y-30392541D01*
X9575440Y-30775224D01*
X9573000Y-30800000D01*
X9573000Y-31496418D01*
X9568593Y-31518573D01*
X9568593Y-33195433D01*
X9504249Y-33518916D01*
X9309851Y-33809851D01*
X9018916Y-34004249D01*
X8851383Y-34037573D01*
X-8651383Y-34037573D01*
X-8818916Y-34004249D01*
X-9111935Y-33808459D01*
X-9308459Y-33611935D01*
X-9504249Y-33318916D01*
X-9569407Y-32991340D01*
X-9569407Y-31518573D01*
X-9573000Y-31500510D01*
X-9573000Y-30800000D01*
X-9575440Y-30775224D01*
X-9651560Y-30392541D01*
X-9670523Y-30346760D01*
X-9887296Y-30022336D01*
X-9922336Y-29987296D01*
X-10246760Y-29770523D01*
X-10292541Y-29751560D01*
X-10675224Y-29675440D01*
X-10700000Y-29673000D01*
X-11028490Y-29673000D01*
X-11416323Y-29595855D01*
X-11458772Y-29595855D01*
X-11500407Y-29587573D01*
X-13343873Y-29587573D01*
X-13611935Y-29408459D01*
X-13808459Y-29211935D01*
X-14004249Y-28918916D01*
X-14019407Y-28842711D01*
X-14019407Y-28253689D01*
X-13731222Y-28253689D01*
X-13536612Y-28724680D01*
X-13176575Y-29085345D01*
X-12705924Y-29280777D01*
X-12196311Y-29281222D01*
X-11725320Y-29086612D01*
X-11364655Y-28726575D01*
X-11169223Y-28255924D01*
X-11169222Y-28253689D01*
X11168778Y-28253689D01*
X11363388Y-28724680D01*
X11723425Y-29085345D01*
X12194076Y-29280777D01*
X12703689Y-29281222D01*
X13174680Y-29086612D01*
X13535345Y-28726575D01*
X13730777Y-28255924D01*
X13731222Y-27746311D01*
X13536612Y-27275320D01*
X13176575Y-26914655D01*
X12705924Y-26719223D01*
X12196311Y-26718778D01*
X11725320Y-26913388D01*
X11364655Y-27273425D01*
X11169223Y-27744076D01*
X11168778Y-28253689D01*
X-11169222Y-28253689D01*
X-11168778Y-27746311D01*
X-11363388Y-27275320D01*
X-11723425Y-26914655D01*
X-12194076Y-26719223D01*
X-12703689Y-26718778D01*
X-13174680Y-26913388D01*
X-13535345Y-27273425D01*
X-13730777Y-27744076D01*
X-13731222Y-28253689D01*
X-14019407Y-28253689D01*
X-14019407Y-8300000D01*
X-13381000Y-8300000D01*
X-13381000Y-15700000D01*
X-13354944Y-15838477D01*
X-13273104Y-15965660D01*
X-13148230Y-16050983D01*
X-13000000Y-16081000D01*
X-9500000Y-16081000D01*
X-9361523Y-16054944D01*
X-9234340Y-15973104D01*
X-9149017Y-15848230D01*
X-9119000Y-15700000D01*
X-9119000Y-8300000D01*
X-9145056Y-8161523D01*
X-9226896Y-8034340D01*
X-9351770Y-7949017D01*
X-9500000Y-7919000D01*
X-11999630Y-7919000D01*
X-12214081Y-7918813D01*
X-12214534Y-7919000D01*
X-13000000Y-7919000D01*
X-13138477Y-7945056D01*
X-13265660Y-8026896D01*
X-13350983Y-8151770D01*
X-13381000Y-8300000D01*
X-14019407Y-8300000D01*
X-14019407Y-4400000D01*
X-13381000Y-4400000D01*
X-13381000Y-7500000D01*
X-13354944Y-7638477D01*
X-13273104Y-7765660D01*
X-13148230Y-7850983D01*
X-13000000Y-7881000D01*
X-5800595Y-7881000D01*
X-5665135Y-7881118D01*
X-5664849Y-7881000D01*
X-5500000Y-7881000D01*
X-5361523Y-7854944D01*
X-5234340Y-7773104D01*
X-5149017Y-7648230D01*
X-5119000Y-7500000D01*
X-5119000Y-7200595D01*
X-5118882Y-7065135D01*
X-5119000Y-7064849D01*
X-5119000Y-4934865D01*
X-4881118Y-4934865D01*
X-4881000Y-4935151D01*
X-4881000Y-7199406D01*
X-4881118Y-7334865D01*
X-4881000Y-7335151D01*
X-4881000Y-7500000D01*
X-4854944Y-7638477D01*
X-4773104Y-7765660D01*
X-4648230Y-7850983D01*
X-4500000Y-7881000D01*
X-4200595Y-7881000D01*
X-4065135Y-7881118D01*
X-4064849Y-7881000D01*
X-500000Y-7881000D01*
X-361523Y-7854944D01*
X-234340Y-7773104D01*
X-149017Y-7648230D01*
X-119000Y-7500000D01*
X-119000Y-253689D01*
X11168778Y-253689D01*
X11363388Y-724680D01*
X11723425Y-1085345D01*
X12194076Y-1280777D01*
X12703689Y-1281222D01*
X13174680Y-1086612D01*
X13535345Y-726575D01*
X13730777Y-255924D01*
X13731222Y253689D01*
X13536612Y724680D01*
X13176575Y1085345D01*
X12705924Y1280777D01*
X12196311Y1281222D01*
X11725320Y1086612D01*
X11364655Y726575D01*
X11169223Y255924D01*
X11168778Y-253689D01*
X-119000Y-253689D01*
X-119000Y6096311D01*
X-11222Y6096311D01*
X183388Y5625320D01*
X543425Y5264655D01*
X988636Y5079787D01*
X545320Y4896612D01*
X184655Y4536575D01*
X-10777Y4065924D01*
X-11222Y3556311D01*
X183388Y3085320D01*
X543425Y2724655D01*
X1014076Y2529223D01*
X1523689Y2528778D01*
X1994680Y2723388D01*
X2355345Y3083425D01*
X2540213Y3528636D01*
X2723388Y3085320D01*
X3083425Y2724655D01*
X3554076Y2529223D01*
X4063689Y2528778D01*
X4534680Y2723388D01*
X4895345Y3083425D01*
X5080213Y3528636D01*
X5263388Y3085320D01*
X5623425Y2724655D01*
X6094076Y2529223D01*
X6603689Y2528778D01*
X7074680Y2723388D01*
X7435345Y3083425D01*
X7575102Y3419996D01*
X7713388Y3085320D01*
X8073425Y2724655D01*
X8544076Y2529223D01*
X9053689Y2528778D01*
X9524680Y2723388D01*
X9885345Y3083425D01*
X10080777Y3554076D01*
X10081222Y4063689D01*
X9886612Y4534680D01*
X9526575Y4895345D01*
X9108830Y5068808D01*
X9143689Y5068778D01*
X9614680Y5263388D01*
X9975345Y5623425D01*
X10170777Y6094076D01*
X10171222Y6603689D01*
X9976612Y7074680D01*
X9616575Y7435345D01*
X9145924Y7630777D01*
X8636311Y7631222D01*
X8165320Y7436612D01*
X7804655Y7076575D01*
X7619787Y6631364D01*
X7436612Y7074680D01*
X7076575Y7435345D01*
X6605924Y7630777D01*
X6096311Y7631222D01*
X5625320Y7436612D01*
X5264655Y7076575D01*
X5074774Y6619293D01*
X4886612Y7074680D01*
X4526575Y7435345D01*
X4055924Y7630777D01*
X3546311Y7631222D01*
X3075320Y7436612D01*
X2714655Y7076575D01*
X2534799Y6643435D01*
X2356612Y7074680D01*
X1996575Y7435345D01*
X1525924Y7630777D01*
X1016311Y7631222D01*
X545320Y7436612D01*
X184655Y7076575D01*
X-10777Y6605924D01*
X-11222Y6096311D01*
X-119000Y6096311D01*
X-119000Y9920000D01*
X10575631Y9920000D01*
X10670371Y9443712D01*
X10940166Y9039935D01*
X11343943Y8770140D01*
X11820231Y8675400D01*
X12179769Y8675400D01*
X12656057Y8770140D01*
X13059834Y9039935D01*
X13329629Y9443712D01*
X13424369Y9920000D01*
X13329629Y10396288D01*
X13059834Y10800065D01*
X12656057Y11069860D01*
X12179769Y11164600D01*
X11820231Y11164600D01*
X11343943Y11069860D01*
X10940166Y10800065D01*
X10670371Y10396288D01*
X10575631Y9920000D01*
X-119000Y9920000D01*
X-119000Y12460000D01*
X10575631Y12460000D01*
X10670371Y11983712D01*
X10940166Y11579935D01*
X11343943Y11310140D01*
X11820231Y11215400D01*
X12179769Y11215400D01*
X12656057Y11310140D01*
X13059834Y11579935D01*
X13329629Y11983712D01*
X13424369Y12460000D01*
X13329629Y12936288D01*
X13059834Y13340065D01*
X12656057Y13609860D01*
X12179769Y13704600D01*
X11820231Y13704600D01*
X11343943Y13609860D01*
X10940166Y13340065D01*
X10670371Y12936288D01*
X10575631Y12460000D01*
X-119000Y12460000D01*
X-119000Y12619000D01*
X10300000Y12619000D01*
X10438477Y12645056D01*
X10565660Y12726896D01*
X10650983Y12851770D01*
X10681000Y13000000D01*
X10681000Y14507805D01*
X10940166Y14119935D01*
X11343943Y13850140D01*
X11820231Y13755400D01*
X12179769Y13755400D01*
X12656057Y13850140D01*
X13059834Y14119935D01*
X13329629Y14523712D01*
X13424369Y15000000D01*
X13329629Y15476288D01*
X13059834Y15880065D01*
X12656057Y16149860D01*
X12179769Y16244600D01*
X11820231Y16244600D01*
X11343943Y16149860D01*
X10940166Y15880065D01*
X10681000Y15492195D01*
X10681000Y18983681D01*
X10705546Y18945535D01*
X10832866Y18858541D01*
X10984000Y18827936D01*
X13016000Y18827936D01*
X13157190Y18854503D01*
X13286865Y18937946D01*
X13373859Y19065266D01*
X13404464Y19216400D01*
X13404464Y20943600D01*
X13377897Y21084790D01*
X13294454Y21214465D01*
X13167134Y21301459D01*
X13016000Y21332064D01*
X10984000Y21332064D01*
X10967839Y21329023D01*
X10969408Y21330592D01*
X11050983Y21451770D01*
X11081000Y21600000D01*
X11081000Y21900000D01*
X11052997Y22043367D01*
X10969408Y22169408D01*
X10669408Y22469408D01*
X10548230Y22550983D01*
X10400000Y22581000D01*
X9900000Y22581000D01*
X9756633Y22552997D01*
X9630592Y22469408D01*
X5430592Y18269408D01*
X5349017Y18148230D01*
X5319000Y18000000D01*
X5319000Y15881000D01*
X-4000000Y15881000D01*
X-4138477Y15854944D01*
X-4265660Y15773104D01*
X-4350983Y15648230D01*
X-4381000Y15500000D01*
X-4381000Y-4019000D01*
X-4500000Y-4019000D01*
X-4638477Y-4045056D01*
X-4765660Y-4126896D01*
X-4850983Y-4251770D01*
X-4881000Y-4400000D01*
X-4881000Y-4799406D01*
X-4881118Y-4934865D01*
X-5119000Y-4934865D01*
X-5119000Y-4800595D01*
X-5118882Y-4665135D01*
X-5119000Y-4664849D01*
X-5119000Y-4400000D01*
X-5145056Y-4261523D01*
X-5226896Y-4134340D01*
X-5351770Y-4049017D01*
X-5500000Y-4019000D01*
X-13000000Y-4019000D01*
X-13138477Y-4045056D01*
X-13265660Y-4126896D01*
X-13350983Y-4251770D01*
X-13381000Y-4400000D01*
X-14019407Y-4400000D01*
X-14019407Y-253689D01*
X-13731222Y-253689D01*
X-13536612Y-724680D01*
X-13176575Y-1085345D01*
X-12705924Y-1280777D01*
X-12196311Y-1281222D01*
X-11725320Y-1086612D01*
X-11364655Y-726575D01*
X-11169223Y-255924D01*
X-11168778Y253689D01*
X-11363388Y724680D01*
X-11723425Y1085345D01*
X-12194076Y1280777D01*
X-12703689Y1281222D01*
X-13174680Y1086612D01*
X-13535345Y726575D01*
X-13730777Y255924D01*
X-13731222Y-253689D01*
X-14019407Y-253689D01*
X-14019407Y6096311D01*
X-12711222Y6096311D01*
X-12516612Y5625320D01*
X-12156575Y5264655D01*
X-11711364Y5079787D01*
X-12154680Y4896612D01*
X-12515345Y4536575D01*
X-12710777Y4065924D01*
X-12711222Y3556311D01*
X-12516612Y3085320D01*
X-12156575Y2724655D01*
X-11685924Y2529223D01*
X-11176311Y2528778D01*
X-10705320Y2723388D01*
X-10344655Y3083425D01*
X-10159787Y3528636D01*
X-9976612Y3085320D01*
X-9616575Y2724655D01*
X-9145924Y2529223D01*
X-8636311Y2528778D01*
X-8165320Y2723388D01*
X-7804655Y3083425D01*
X-7619787Y3528636D01*
X-7436612Y3085320D01*
X-7076575Y2724655D01*
X-6605924Y2529223D01*
X-6096311Y2528778D01*
X-5625320Y2723388D01*
X-5264655Y3083425D01*
X-5069223Y3554076D01*
X-5068778Y4063689D01*
X-5263388Y4534680D01*
X-5623425Y4895345D01*
X-6068636Y5080213D01*
X-5625320Y5263388D01*
X-5264655Y5623425D01*
X-5069223Y6094076D01*
X-5068778Y6603689D01*
X-5263388Y7074680D01*
X-5623425Y7435345D01*
X-6094076Y7630777D01*
X-6603689Y7631222D01*
X-7074680Y7436612D01*
X-7435345Y7076575D01*
X-7620213Y6631364D01*
X-7803388Y7074680D01*
X-8163425Y7435345D01*
X-8634076Y7630777D01*
X-9143689Y7631222D01*
X-9614680Y7436612D01*
X-9975345Y7076575D01*
X-10160213Y6631364D01*
X-10343388Y7074680D01*
X-10703425Y7435345D01*
X-11174076Y7630777D01*
X-11683689Y7631222D01*
X-12154680Y7436612D01*
X-12515345Y7076575D01*
X-12710777Y6605924D01*
X-12711222Y6096311D01*
X-14019407Y6096311D01*
X-14019407Y14016000D01*
X-13404464Y14016000D01*
X-13404464Y11984000D01*
X-13377897Y11842810D01*
X-13294454Y11713135D01*
X-13167134Y11626141D01*
X-13016000Y11595536D01*
X-10984000Y11595536D01*
X-10842810Y11622103D01*
X-10713135Y11705546D01*
X-10626141Y11832866D01*
X-10595536Y11984000D01*
X-10595536Y14016000D01*
X-10622103Y14157190D01*
X-10705546Y14286865D01*
X-10832866Y14373859D01*
X-10984000Y14404464D01*
X-13016000Y14404464D01*
X-13157190Y14377897D01*
X-13286865Y14294454D01*
X-13373859Y14167134D01*
X-13404464Y14016000D01*
X-14019407Y14016000D01*
X-14019407Y14765135D01*
X-6881118Y14765135D01*
X-6777661Y14514748D01*
X-6586259Y14323013D01*
X-6336054Y14219118D01*
X-6065135Y14218882D01*
X-5814748Y14322339D01*
X-5623013Y14513741D01*
X-5519118Y14763946D01*
X-5518882Y15034865D01*
X-5622339Y15285252D01*
X-5813741Y15476987D01*
X-6063946Y15580882D01*
X-6334865Y15581118D01*
X-6585252Y15477661D01*
X-6776987Y15286259D01*
X-6880882Y15036054D01*
X-6881118Y14765135D01*
X-14019407Y14765135D01*
X-14019407Y18365135D01*
X-3031128Y18365135D01*
X-2927671Y18114748D01*
X-2736269Y17923013D01*
X-2486064Y17819118D01*
X-2215145Y17818882D01*
X-1964758Y17922339D01*
X-1773023Y18113741D01*
X-1669128Y18363946D01*
X-1669040Y18465135D01*
X1718882Y18465135D01*
X1822339Y18214748D01*
X2013741Y18023013D01*
X2263946Y17919118D01*
X2534865Y17918882D01*
X2785252Y18022339D01*
X2976987Y18213741D01*
X3080882Y18463946D01*
X3081118Y18734865D01*
X2977661Y18985252D01*
X2786259Y19176987D01*
X2536054Y19280882D01*
X2265135Y19281118D01*
X2014748Y19177661D01*
X1823013Y18986259D01*
X1719118Y18736054D01*
X1718882Y18465135D01*
X-1669040Y18465135D01*
X-1668892Y18634865D01*
X-1772349Y18885252D01*
X-1963751Y19076987D01*
X-2213956Y19180882D01*
X-2484875Y19181118D01*
X-2735262Y19077661D01*
X-2926997Y18886259D01*
X-3030892Y18636054D01*
X-3031128Y18365135D01*
X-14019407Y18365135D01*
X-14019407Y22540000D01*
X-13424369Y22540000D01*
X-13318029Y22005391D01*
X-13015197Y21552172D01*
X-12794137Y21404464D01*
X-13016000Y21404464D01*
X-13157190Y21377897D01*
X-13286865Y21294454D01*
X-13373859Y21167134D01*
X-13404464Y21016000D01*
X-13404464Y18984000D01*
X-13377897Y18842810D01*
X-13294454Y18713135D01*
X-13167134Y18626141D01*
X-13016000Y18595536D01*
X-10984000Y18595536D01*
X-10842810Y18622103D01*
X-10713135Y18705546D01*
X-10626141Y18832866D01*
X-10595536Y18984000D01*
X-10595536Y21016000D01*
X-10622103Y21157190D01*
X-10705546Y21286865D01*
X-10820097Y21365135D01*
X-4881118Y21365135D01*
X-4777661Y21114748D01*
X-4586259Y20923013D01*
X-4336054Y20819118D01*
X-4065135Y20818882D01*
X-3953194Y20865135D01*
X-2681118Y20865135D01*
X-2577661Y20614748D01*
X-2386259Y20423013D01*
X-2136054Y20319118D01*
X-1865135Y20318882D01*
X-1614748Y20422339D01*
X-1499968Y20536920D01*
X-1386259Y20423013D01*
X-1136054Y20319118D01*
X-865135Y20318882D01*
X-614748Y20422339D01*
X-499968Y20536920D01*
X-386259Y20423013D01*
X-136054Y20319118D01*
X134865Y20318882D01*
X385252Y20422339D01*
X528296Y20565135D01*
X918882Y20565135D01*
X1022339Y20314748D01*
X1213741Y20123013D01*
X1463946Y20019118D01*
X1734865Y20018882D01*
X1985252Y20122339D01*
X2176987Y20313741D01*
X2256511Y20505253D01*
X2463946Y20419118D01*
X2734865Y20418882D01*
X2893541Y20484445D01*
X2922339Y20414748D01*
X3113741Y20223013D01*
X3363946Y20119118D01*
X3634865Y20118882D01*
X3885252Y20222339D01*
X4076987Y20413741D01*
X4180882Y20663946D01*
X4181118Y20934865D01*
X4077661Y21185252D01*
X3898101Y21365125D01*
X5707465Y21365125D01*
X5810922Y21114738D01*
X6002324Y20923003D01*
X6252529Y20819108D01*
X6523448Y20818872D01*
X6773835Y20922329D01*
X6965570Y21113731D01*
X7069465Y21363936D01*
X7069701Y21634855D01*
X6966244Y21885242D01*
X6774842Y22076977D01*
X6524637Y22180872D01*
X6253718Y22181108D01*
X6003331Y22077651D01*
X5811596Y21886249D01*
X5707701Y21636044D01*
X5707465Y21365125D01*
X3898101Y21365125D01*
X3886259Y21376987D01*
X3636054Y21480882D01*
X3365135Y21481118D01*
X3206459Y21415555D01*
X3177661Y21485252D01*
X2986259Y21676987D01*
X2736054Y21780882D01*
X2465135Y21781118D01*
X2214748Y21677661D01*
X2023013Y21486259D01*
X1943489Y21294747D01*
X1736054Y21380882D01*
X1465135Y21381118D01*
X1214748Y21277661D01*
X1023013Y21086259D01*
X919118Y20836054D01*
X918882Y20565135D01*
X528296Y20565135D01*
X576987Y20613741D01*
X680882Y20863946D01*
X681118Y21134865D01*
X577661Y21385252D01*
X386259Y21576987D01*
X136054Y21680882D01*
X-134865Y21681118D01*
X-385252Y21577661D01*
X-500032Y21463080D01*
X-613741Y21576987D01*
X-863946Y21680882D01*
X-1134865Y21681118D01*
X-1385252Y21577661D01*
X-1500032Y21463080D01*
X-1613741Y21576987D01*
X-1863946Y21680882D01*
X-2134865Y21681118D01*
X-2385252Y21577661D01*
X-2576987Y21386259D01*
X-2680882Y21136054D01*
X-2681118Y20865135D01*
X-3953194Y20865135D01*
X-3814748Y20922339D01*
X-3623013Y21113741D01*
X-3519118Y21363946D01*
X-3518882Y21634865D01*
X-3622339Y21885252D01*
X-3813741Y22076987D01*
X-4063946Y22180882D01*
X-4334865Y22181118D01*
X-4585252Y22077661D01*
X-4776987Y21886259D01*
X-4880882Y21636054D01*
X-4881118Y21365135D01*
X-10820097Y21365135D01*
X-10832866Y21373859D01*
X-10984000Y21404464D01*
X-11205863Y21404464D01*
X-10984803Y21552172D01*
X-10681971Y22005391D01*
X-10575631Y22540000D01*
X-10660195Y22965135D01*
X3218882Y22965135D01*
X3322339Y22714748D01*
X3401793Y22635156D01*
X3319118Y22436054D01*
X3318882Y22165135D01*
X3422339Y21914748D01*
X3613741Y21723013D01*
X3863946Y21619118D01*
X4134865Y21618882D01*
X4385252Y21722339D01*
X4576987Y21913741D01*
X4680882Y22163946D01*
X4681118Y22434865D01*
X4603630Y22622404D01*
X6476151Y22622404D01*
X6579608Y22372017D01*
X6771010Y22180282D01*
X7021215Y22076387D01*
X7292134Y22076151D01*
X7542521Y22179608D01*
X7734256Y22371010D01*
X7838151Y22621215D01*
X7838387Y22892134D01*
X7734930Y23142521D01*
X7543528Y23334256D01*
X7293323Y23438151D01*
X7022404Y23438387D01*
X6772017Y23334930D01*
X6580282Y23143528D01*
X6476387Y22893323D01*
X6476151Y22622404D01*
X4603630Y22622404D01*
X4577661Y22685252D01*
X4498207Y22764844D01*
X4580882Y22963946D01*
X4581118Y23234865D01*
X4477661Y23485252D01*
X4286259Y23676987D01*
X4036054Y23780882D01*
X3765135Y23781118D01*
X3514748Y23677661D01*
X3323013Y23486259D01*
X3219118Y23236054D01*
X3218882Y22965135D01*
X-10660195Y22965135D01*
X-10681971Y23074609D01*
X-10984803Y23527828D01*
X-11438022Y23830660D01*
X-11611340Y23865135D01*
X-3681118Y23865135D01*
X-3577661Y23614748D01*
X-3386259Y23423013D01*
X-3136054Y23319118D01*
X-2865135Y23318882D01*
X-2614748Y23422339D01*
X-2423013Y23613741D01*
X-2319118Y23863946D01*
X-2318882Y24134865D01*
X-2422339Y24385252D01*
X-2613741Y24576987D01*
X-2863946Y24680882D01*
X-3134865Y24681118D01*
X-3385252Y24577661D01*
X-3576987Y24386259D01*
X-3680882Y24136054D01*
X-3681118Y23865135D01*
X-11611340Y23865135D01*
X-11972631Y23937000D01*
X-12027369Y23937000D01*
X-12561978Y23830660D01*
X-13015197Y23527828D01*
X-13318029Y23074609D01*
X-13424369Y22540000D01*
X-14019407Y22540000D01*
X-14019407Y24486857D01*
X-6821531Y24486857D01*
X-6718074Y24236470D01*
X-6526672Y24044735D01*
X-6276467Y23940840D01*
X-6005548Y23940604D01*
X-5755161Y24044061D01*
X-5563426Y24235463D01*
X-5459531Y24485668D01*
X-5459295Y24756587D01*
X-5504145Y24865135D01*
X10018882Y24865135D01*
X10122339Y24614748D01*
X10313741Y24423013D01*
X10563946Y24319118D01*
X10834865Y24318882D01*
X11085252Y24422339D01*
X11276987Y24613741D01*
X11380882Y24863946D01*
X11381118Y25134865D01*
X11277661Y25385252D01*
X11086259Y25576987D01*
X10836054Y25680882D01*
X10565135Y25681118D01*
X10314748Y25577661D01*
X10123013Y25386259D01*
X10019118Y25136054D01*
X10018882Y24865135D01*
X-5504145Y24865135D01*
X-5562752Y25006974D01*
X-5754154Y25198709D01*
X-6004359Y25302604D01*
X-6275278Y25302840D01*
X-6525665Y25199383D01*
X-6717400Y25007981D01*
X-6821295Y24757776D01*
X-6821531Y24486857D01*
X-14019407Y24486857D01*
X-14019407Y27746311D01*
X-13731222Y27746311D01*
X-13536612Y27275320D01*
X-13176575Y26914655D01*
X-12705924Y26719223D01*
X-12196311Y26718778D01*
X-11725320Y26913388D01*
X-11364655Y27273425D01*
X-11169223Y27744076D01*
X-11168778Y28253689D01*
X-11363388Y28724680D01*
X-11723425Y29085345D01*
X-12194076Y29280777D01*
X-12703689Y29281222D01*
X-13174680Y29086612D01*
X-13535345Y28726575D01*
X-13730777Y28255924D01*
X-13731222Y27746311D01*
X-14019407Y27746311D01*
X-14019407Y28742711D01*
X-14004249Y28818916D01*
X-13808459Y29111935D01*
X-13611935Y29308459D01*
X-13318916Y29504249D01*
X-13086761Y29550427D01*
X-11500407Y29550427D01*
X-11458772Y29558709D01*
X-11416323Y29558709D01*
X-11344477Y29573000D01*
X-10800000Y29573000D01*
X-10775224Y29575440D01*
X-10392541Y29651560D01*
X-10346760Y29670523D01*
X-10127000Y29817362D01*
X-10127000Y25750000D01*
G36*
X10573000Y21847394D02*
X10573000Y21652606D01*
X10210197Y21289803D01*
X10182334Y21247789D01*
X10173000Y21200000D01*
X10173000Y13127000D01*
X-500000Y13127000D01*
X-549410Y13116994D01*
X-591035Y13088553D01*
X-618315Y13046159D01*
X-627000Y13000000D01*
X-627000Y-7373000D01*
X-4373000Y-7373000D01*
X-4373000Y-6251510D01*
X-3770220Y-6251510D01*
X-3577282Y-6718458D01*
X-3220337Y-7076026D01*
X-2753727Y-7269779D01*
X-2248490Y-7270220D01*
X-1781542Y-7077282D01*
X-1423974Y-6720337D01*
X-1230221Y-6253727D01*
X-1229780Y-5748490D01*
X-1422718Y-5281542D01*
X-1779663Y-4923974D01*
X-2246273Y-4730221D01*
X-2751510Y-4729780D01*
X-3218458Y-4922718D01*
X-3576026Y-5279663D01*
X-3769779Y-5746273D01*
X-3770220Y-6251510D01*
X-4373000Y-6251510D01*
X-4373000Y-4527000D01*
X-4000000Y-4527000D01*
X-3950590Y-4516994D01*
X-3908965Y-4488553D01*
X-3881685Y-4446159D01*
X-3873000Y-4400000D01*
X-3873000Y15373000D01*
X5700000Y15373000D01*
X5749410Y15383006D01*
X5791035Y15411447D01*
X5818315Y15453841D01*
X5827000Y15500000D01*
X5827000Y17947394D01*
X9952606Y22073000D01*
X10347394Y22073000D01*
X10573000Y21847394D01*
X10573000Y21847394D01*
G37*
X10573000Y21847394D02*
X10573000Y21652606D01*
X10210197Y21289803D01*
X10182334Y21247789D01*
X10173000Y21200000D01*
X10173000Y13127000D01*
X-500000Y13127000D01*
X-549410Y13116994D01*
X-591035Y13088553D01*
X-618315Y13046159D01*
X-627000Y13000000D01*
X-627000Y-7373000D01*
X-4373000Y-7373000D01*
X-4373000Y-6251510D01*
X-3770220Y-6251510D01*
X-3577282Y-6718458D01*
X-3220337Y-7076026D01*
X-2753727Y-7269779D01*
X-2248490Y-7270220D01*
X-1781542Y-7077282D01*
X-1423974Y-6720337D01*
X-1230221Y-6253727D01*
X-1229780Y-5748490D01*
X-1422718Y-5281542D01*
X-1779663Y-4923974D01*
X-2246273Y-4730221D01*
X-2751510Y-4729780D01*
X-3218458Y-4922718D01*
X-3576026Y-5279663D01*
X-3769779Y-5746273D01*
X-3770220Y-6251510D01*
X-4373000Y-6251510D01*
X-4373000Y-4527000D01*
X-4000000Y-4527000D01*
X-3950590Y-4516994D01*
X-3908965Y-4488553D01*
X-3881685Y-4446159D01*
X-3873000Y-4400000D01*
X-3873000Y15373000D01*
X5700000Y15373000D01*
X5749410Y15383006D01*
X5791035Y15411447D01*
X5818315Y15453841D01*
X5827000Y15500000D01*
X5827000Y17947394D01*
X9952606Y22073000D01*
X10347394Y22073000D01*
X10573000Y21847394D01*
G36*
X-9627000Y-15573000D02*
X-12873000Y-15573000D01*
X-12873000Y-8427000D01*
X-9627000Y-8427000D01*
X-9627000Y-15573000D01*
X-9627000Y-15573000D01*
G37*
X-9627000Y-15573000D02*
X-12873000Y-15573000D01*
X-12873000Y-8427000D01*
X-9627000Y-8427000D01*
X-9627000Y-15573000D01*
G36*
X-5627000Y-7373000D02*
X-12873000Y-7373000D01*
X-12873000Y-4527000D01*
X-5627000Y-4527000D01*
X-5627000Y-7373000D01*
X-5627000Y-7373000D01*
G37*
X-5627000Y-7373000D02*
X-12873000Y-7373000D01*
X-12873000Y-4527000D01*
X-5627000Y-4527000D01*
X-5627000Y-7373000D01*
M02*
