G04 #@! TF.FileFunction,Copper,L3,Inr,Plane*
%FSLAX46Y46*%
G04 Gerber Fmt 4.6, Leading zero omitted, Abs format (unit mm)*
G04 Created by KiCad (PCBNEW 4.0.1-stable) date 2016/08/25 3:11:25*
%MOMM*%
G01*
G04 APERTURE LIST*
%ADD10C,0.100000*%
%ADD11C,1.800000*%
%ADD12C,1.524000*%
%ADD13R,2.032000X1.727200*%
%ADD14O,2.032000X1.727200*%
%ADD15R,2.032000X2.032000*%
%ADD16O,2.032000X2.032000*%
%ADD17C,1.400000*%
%ADD18C,0.600000*%
%ADD19C,0.250000*%
%ADD20C,0.254000*%
G04 APERTURE END LIST*
D10*
D11*
X-10450000Y-12000000D03*
X-12049999Y-14771281D03*
X6661457Y-8526276D03*
X-6678123Y-31418100D03*
X-12450000Y28000000D03*
X12450000Y28000000D03*
X-12450000Y-28000000D03*
X12450000Y-28000000D03*
X12450000Y0D03*
X-12450000Y0D03*
D12*
X-2500000Y-6000000D03*
X-7500000Y-6000000D03*
D13*
X12000000Y20080000D03*
D14*
X12000000Y17540000D03*
X12000000Y15000000D03*
X12000000Y12460000D03*
X12000000Y9920000D03*
D15*
X-12000000Y13000000D03*
D16*
X-12000000Y10460000D03*
D15*
X-12000000Y20000000D03*
D16*
X-12000000Y22540000D03*
D11*
X8800000Y3810000D03*
X8890000Y6350000D03*
X6350000Y3810000D03*
X6350000Y6350000D03*
X3810000Y3810000D03*
X3800000Y6350000D03*
X1270000Y3810000D03*
X1270000Y6350000D03*
X-6350000Y3810000D03*
X-6350000Y6350000D03*
X-8890000Y6350000D03*
X-8890000Y3810000D03*
X-11430000Y6350000D03*
X-11430000Y3810000D03*
D17*
X-12000000Y-9000000D03*
X-12000000Y-6460000D03*
D18*
X-10000000Y-9800000D03*
X-1000000Y-32000000D03*
X3000000Y-32000000D03*
X-5000000Y-3000000D03*
X-5000000Y-9000000D03*
X-8000000Y-9000000D03*
X-9000000Y-17000000D03*
X-13000000Y-17000000D03*
X-12000000Y-19000000D03*
X-12000000Y-24000000D03*
X-7000000Y-28000000D03*
X12000000Y6000000D03*
X10000000Y1000000D03*
X12000000Y-4000000D03*
X12000000Y-9000000D03*
X12000000Y-14000000D03*
X12000000Y-19000000D03*
X12000000Y-24000000D03*
X8000000Y-28000000D03*
X8000000Y-32000000D03*
X-13000000Y26000000D03*
X-10800000Y29000000D03*
X13700000Y26000000D03*
X10700000Y28900000D03*
X-4000000Y22400000D03*
X4300000Y25400000D03*
X-4000000Y25400000D03*
X-6515130Y25328539D03*
X-8000000Y24800000D03*
X-6300000Y9300000D03*
X-5500000Y10000000D03*
X-5500000Y14000000D03*
X6149990Y17600000D03*
X-4200000Y-7200000D03*
X-4200000Y-4800000D03*
X10300000Y21800000D03*
X-2500000Y10000000D03*
X-2500000Y14000000D03*
X3500000Y15000000D03*
X1500000Y15000000D03*
X-3500000Y15000000D03*
X-1000000Y15000000D03*
X-4200000Y21500000D03*
X-5800000Y-4800000D03*
X-5800000Y-7200000D03*
X-10000000Y-6400000D03*
X-7500000Y-6000000D03*
X-6200000Y14900000D03*
X2400000Y18600000D03*
X6388583Y21499990D03*
X3900000Y23100000D03*
X4000000Y22300000D03*
X3500000Y20800000D03*
X2600000Y21100000D03*
X1600000Y20700000D03*
X-6140413Y24621722D03*
X0Y21000000D03*
X-1000000Y21000000D03*
X-3000000Y24000000D03*
X-2000000Y21000000D03*
X10700000Y25000000D03*
X7157269Y22757269D03*
X-2350010Y18500000D03*
D19*
X3000000Y-32000000D02*
X-1000000Y-32000000D01*
X-5000000Y-9000000D02*
X-5000000Y-3000000D01*
X-9000000Y-17000000D02*
X-9000000Y-10000000D01*
X-9000000Y-10000000D02*
X-8000000Y-9000000D01*
X-12000000Y-19000000D02*
X-12000000Y-18000000D01*
X-12000000Y-18000000D02*
X-13000000Y-17000000D01*
X-7000000Y-28000000D02*
X-11000000Y-24000000D01*
X-11000000Y-24000000D02*
X-12000000Y-24000000D01*
X10000000Y-2000000D02*
X10000000Y1000000D01*
X12000000Y-4000000D02*
X10000000Y-2000000D01*
X12000000Y-14000000D02*
X12000000Y-9000000D01*
X12000000Y-24000000D02*
X12000000Y-19000000D01*
D20*
G36*
X-10127000Y25750000D02*
X-10118315Y25703841D01*
X-10091035Y25661447D01*
X-10049410Y25633006D01*
X-10000000Y25623000D01*
X10000000Y25623000D01*
X10046159Y25631685D01*
X10088553Y25658965D01*
X10116994Y25700590D01*
X10127000Y25750000D01*
X10127000Y27746311D01*
X11168778Y27746311D01*
X11363388Y27275320D01*
X11723425Y26914655D01*
X12194076Y26719223D01*
X12703689Y26718778D01*
X13174680Y26913388D01*
X13535345Y27273425D01*
X13730777Y27744076D01*
X13731222Y28253689D01*
X13536612Y28724680D01*
X13176575Y29085345D01*
X12705924Y29280777D01*
X12196311Y29281222D01*
X11725320Y29086612D01*
X11364655Y28726575D01*
X11169223Y28255924D01*
X11168778Y27746311D01*
X10127000Y27746311D01*
X10127000Y29750544D01*
X10246760Y29670523D01*
X10292541Y29651560D01*
X10675224Y29575440D01*
X10700000Y29573000D01*
X11343663Y29573000D01*
X11415509Y29558709D01*
X11457958Y29558709D01*
X11499593Y29550427D01*
X13286761Y29550427D01*
X13518916Y29504249D01*
X13809851Y29309851D01*
X14002032Y29022234D01*
X14018593Y28938975D01*
X14018593Y-28846803D01*
X14004249Y-28918916D01*
X13808459Y-29211935D01*
X13611935Y-29408459D01*
X13343873Y-29587573D01*
X11499593Y-29587573D01*
X11457958Y-29595855D01*
X11415509Y-29595855D01*
X11027676Y-29673000D01*
X10700000Y-29673000D01*
X10675224Y-29675440D01*
X10292541Y-29751560D01*
X10246760Y-29770523D01*
X9922336Y-29987296D01*
X9887296Y-30022336D01*
X9670523Y-30346760D01*
X9651560Y-30392541D01*
X9575440Y-30775224D01*
X9573000Y-30800000D01*
X9573000Y-31496418D01*
X9568593Y-31518573D01*
X9568593Y-33195433D01*
X9504249Y-33518916D01*
X9309851Y-33809851D01*
X9018916Y-34004249D01*
X8851383Y-34037573D01*
X-8651383Y-34037573D01*
X-8818916Y-34004249D01*
X-9111935Y-33808459D01*
X-9308459Y-33611935D01*
X-9504249Y-33318916D01*
X-9569407Y-32991340D01*
X-9569407Y-31518573D01*
X-9573000Y-31500510D01*
X-9573000Y-30800000D01*
X-9575440Y-30775224D01*
X-9651560Y-30392541D01*
X-9670523Y-30346760D01*
X-9887296Y-30022336D01*
X-9922336Y-29987296D01*
X-10246760Y-29770523D01*
X-10292541Y-29751560D01*
X-10675224Y-29675440D01*
X-10700000Y-29673000D01*
X-11028490Y-29673000D01*
X-11416323Y-29595855D01*
X-11458772Y-29595855D01*
X-11500407Y-29587573D01*
X-13343873Y-29587573D01*
X-13611935Y-29408459D01*
X-13808459Y-29211935D01*
X-14004249Y-28918916D01*
X-14019407Y-28842711D01*
X-14019407Y-28253689D01*
X-13731222Y-28253689D01*
X-13536612Y-28724680D01*
X-13176575Y-29085345D01*
X-12705924Y-29280777D01*
X-12196311Y-29281222D01*
X-11725320Y-29086612D01*
X-11364655Y-28726575D01*
X-11169223Y-28255924D01*
X-11169222Y-28253689D01*
X11168778Y-28253689D01*
X11363388Y-28724680D01*
X11723425Y-29085345D01*
X12194076Y-29280777D01*
X12703689Y-29281222D01*
X13174680Y-29086612D01*
X13535345Y-28726575D01*
X13730777Y-28255924D01*
X13731222Y-27746311D01*
X13536612Y-27275320D01*
X13176575Y-26914655D01*
X12705924Y-26719223D01*
X12196311Y-26718778D01*
X11725320Y-26913388D01*
X11364655Y-27273425D01*
X11169223Y-27744076D01*
X11168778Y-28253689D01*
X-11169222Y-28253689D01*
X-11168778Y-27746311D01*
X-11363388Y-27275320D01*
X-11723425Y-26914655D01*
X-12194076Y-26719223D01*
X-12703689Y-26718778D01*
X-13174680Y-26913388D01*
X-13535345Y-27273425D01*
X-13730777Y-27744076D01*
X-13731222Y-28253689D01*
X-14019407Y-28253689D01*
X-14019407Y-15024970D01*
X-13331221Y-15024970D01*
X-13136611Y-15495961D01*
X-12776574Y-15856626D01*
X-12305923Y-16052058D01*
X-11796310Y-16052503D01*
X-11325319Y-15857893D01*
X-10964654Y-15497856D01*
X-10769222Y-15027205D01*
X-10768777Y-14517592D01*
X-10963387Y-14046601D01*
X-11323424Y-13685936D01*
X-11794075Y-13490504D01*
X-12303688Y-13490059D01*
X-12774679Y-13684669D01*
X-13135344Y-14044706D01*
X-13330776Y-14515357D01*
X-13331221Y-15024970D01*
X-14019407Y-15024970D01*
X-14019407Y-12253689D01*
X-11731222Y-12253689D01*
X-11536612Y-12724680D01*
X-11176575Y-13085345D01*
X-10705924Y-13280777D01*
X-10196311Y-13281222D01*
X-9725320Y-13086612D01*
X-9364655Y-12726575D01*
X-9169223Y-12255924D01*
X-9168778Y-11746311D01*
X-9363388Y-11275320D01*
X-9723425Y-10914655D01*
X-10194076Y-10719223D01*
X-10703689Y-10718778D01*
X-11174680Y-10913388D01*
X-11535345Y-11273425D01*
X-11730777Y-11744076D01*
X-11731222Y-12253689D01*
X-14019407Y-12253689D01*
X-14019407Y-9214081D01*
X-13081187Y-9214081D01*
X-12916962Y-9611537D01*
X-12613137Y-9915893D01*
X-12215968Y-10080812D01*
X-11785919Y-10081187D01*
X-11431792Y-9934865D01*
X-10681118Y-9934865D01*
X-10577661Y-10185252D01*
X-10386259Y-10376987D01*
X-10136054Y-10480882D01*
X-9865135Y-10481118D01*
X-9614748Y-10377661D01*
X-9423013Y-10186259D01*
X-9319118Y-9936054D01*
X-9318882Y-9665135D01*
X-9422339Y-9414748D01*
X-9613741Y-9223013D01*
X-9863946Y-9119118D01*
X-10134865Y-9118882D01*
X-10385252Y-9222339D01*
X-10576987Y-9413741D01*
X-10680882Y-9663946D01*
X-10681118Y-9934865D01*
X-11431792Y-9934865D01*
X-11388463Y-9916962D01*
X-11084107Y-9613137D01*
X-10919188Y-9215968D01*
X-10918813Y-8785919D01*
X-11083038Y-8388463D01*
X-11386863Y-8084107D01*
X-11784032Y-7919188D01*
X-12214081Y-7918813D01*
X-12611537Y-8083038D01*
X-12915893Y-8386863D01*
X-13080812Y-8784032D01*
X-13081187Y-9214081D01*
X-14019407Y-9214081D01*
X-14019407Y-6674081D01*
X-13081187Y-6674081D01*
X-12916962Y-7071537D01*
X-12613137Y-7375893D01*
X-12215968Y-7540812D01*
X-11785919Y-7541187D01*
X-11388463Y-7376962D01*
X-11346293Y-7334865D01*
X-6481118Y-7334865D01*
X-6377661Y-7585252D01*
X-6186259Y-7776987D01*
X-5936054Y-7880882D01*
X-5665135Y-7881118D01*
X-5414748Y-7777661D01*
X-5223013Y-7586259D01*
X-5119118Y-7336054D01*
X-5119117Y-7334865D01*
X-4881118Y-7334865D01*
X-4777661Y-7585252D01*
X-4586259Y-7776987D01*
X-4336054Y-7880882D01*
X-4065135Y-7881118D01*
X-3814748Y-7777661D01*
X-3623013Y-7586259D01*
X-3519118Y-7336054D01*
X-3518882Y-7065135D01*
X-3622339Y-6814748D01*
X-3813741Y-6623013D01*
X-4063946Y-6519118D01*
X-4334865Y-6518882D01*
X-4585252Y-6622339D01*
X-4776987Y-6813741D01*
X-4880882Y-7063946D01*
X-4881118Y-7334865D01*
X-5119117Y-7334865D01*
X-5118882Y-7065135D01*
X-5222339Y-6814748D01*
X-5413741Y-6623013D01*
X-5663946Y-6519118D01*
X-5934865Y-6518882D01*
X-6185252Y-6622339D01*
X-6376987Y-6813741D01*
X-6480882Y-7063946D01*
X-6481118Y-7334865D01*
X-11346293Y-7334865D01*
X-11084107Y-7073137D01*
X-10919188Y-6675968D01*
X-10919065Y-6534865D01*
X-10681118Y-6534865D01*
X-10577661Y-6785252D01*
X-10386259Y-6976987D01*
X-10136054Y-7080882D01*
X-9865135Y-7081118D01*
X-9614748Y-6977661D01*
X-9423013Y-6786259D01*
X-9319118Y-6536054D01*
X-9318882Y-6265135D01*
X-9334903Y-6226359D01*
X-8643198Y-6226359D01*
X-8469554Y-6646612D01*
X-8148303Y-6968423D01*
X-7728354Y-7142801D01*
X-7273641Y-7143198D01*
X-6853388Y-6969554D01*
X-6531577Y-6648303D01*
X-6357199Y-6228354D01*
X-6357198Y-6226359D01*
X-3643198Y-6226359D01*
X-3469554Y-6646612D01*
X-3148303Y-6968423D01*
X-2728354Y-7142801D01*
X-2273641Y-7143198D01*
X-1853388Y-6969554D01*
X-1531577Y-6648303D01*
X-1357199Y-6228354D01*
X-1356802Y-5773641D01*
X-1530446Y-5353388D01*
X-1851697Y-5031577D01*
X-2271646Y-4857199D01*
X-2726359Y-4856802D01*
X-3146612Y-5030446D01*
X-3468423Y-5351697D01*
X-3642801Y-5771646D01*
X-3643198Y-6226359D01*
X-6357198Y-6226359D01*
X-6356802Y-5773641D01*
X-6530446Y-5353388D01*
X-6851697Y-5031577D01*
X-7084605Y-4934865D01*
X-6481118Y-4934865D01*
X-6377661Y-5185252D01*
X-6186259Y-5376987D01*
X-5936054Y-5480882D01*
X-5665135Y-5481118D01*
X-5414748Y-5377661D01*
X-5223013Y-5186259D01*
X-5119118Y-4936054D01*
X-5119117Y-4934865D01*
X-4881118Y-4934865D01*
X-4777661Y-5185252D01*
X-4586259Y-5376987D01*
X-4336054Y-5480882D01*
X-4065135Y-5481118D01*
X-3814748Y-5377661D01*
X-3623013Y-5186259D01*
X-3519118Y-4936054D01*
X-3518882Y-4665135D01*
X-3622339Y-4414748D01*
X-3813741Y-4223013D01*
X-4063946Y-4119118D01*
X-4334865Y-4118882D01*
X-4585252Y-4222339D01*
X-4776987Y-4413741D01*
X-4880882Y-4663946D01*
X-4881118Y-4934865D01*
X-5119117Y-4934865D01*
X-5118882Y-4665135D01*
X-5222339Y-4414748D01*
X-5413741Y-4223013D01*
X-5663946Y-4119118D01*
X-5934865Y-4118882D01*
X-6185252Y-4222339D01*
X-6376987Y-4413741D01*
X-6480882Y-4663946D01*
X-6481118Y-4934865D01*
X-7084605Y-4934865D01*
X-7271646Y-4857199D01*
X-7726359Y-4856802D01*
X-8146612Y-5030446D01*
X-8468423Y-5351697D01*
X-8642801Y-5771646D01*
X-8643198Y-6226359D01*
X-9334903Y-6226359D01*
X-9422339Y-6014748D01*
X-9613741Y-5823013D01*
X-9863946Y-5719118D01*
X-10134865Y-5718882D01*
X-10385252Y-5822339D01*
X-10576987Y-6013741D01*
X-10680882Y-6263946D01*
X-10681118Y-6534865D01*
X-10919065Y-6534865D01*
X-10918813Y-6245919D01*
X-11083038Y-5848463D01*
X-11386863Y-5544107D01*
X-11784032Y-5379188D01*
X-12214081Y-5378813D01*
X-12611537Y-5543038D01*
X-12915893Y-5846863D01*
X-13080812Y-6244032D01*
X-13081187Y-6674081D01*
X-14019407Y-6674081D01*
X-14019407Y-253689D01*
X-13731222Y-253689D01*
X-13536612Y-724680D01*
X-13176575Y-1085345D01*
X-12705924Y-1280777D01*
X-12196311Y-1281222D01*
X-11725320Y-1086612D01*
X-11364655Y-726575D01*
X-11169223Y-255924D01*
X-11169222Y-253689D01*
X11168778Y-253689D01*
X11363388Y-724680D01*
X11723425Y-1085345D01*
X12194076Y-1280777D01*
X12703689Y-1281222D01*
X13174680Y-1086612D01*
X13535345Y-726575D01*
X13730777Y-255924D01*
X13731222Y253689D01*
X13536612Y724680D01*
X13176575Y1085345D01*
X12705924Y1280777D01*
X12196311Y1281222D01*
X11725320Y1086612D01*
X11364655Y726575D01*
X11169223Y255924D01*
X11168778Y-253689D01*
X-11169222Y-253689D01*
X-11168778Y253689D01*
X-11363388Y724680D01*
X-11723425Y1085345D01*
X-12194076Y1280777D01*
X-12703689Y1281222D01*
X-13174680Y1086612D01*
X-13535345Y726575D01*
X-13730777Y255924D01*
X-13731222Y-253689D01*
X-14019407Y-253689D01*
X-14019407Y6096311D01*
X-12711222Y6096311D01*
X-12516612Y5625320D01*
X-12156575Y5264655D01*
X-11711364Y5079787D01*
X-12154680Y4896612D01*
X-12515345Y4536575D01*
X-12710777Y4065924D01*
X-12711222Y3556311D01*
X-12516612Y3085320D01*
X-12156575Y2724655D01*
X-11685924Y2529223D01*
X-11176311Y2528778D01*
X-10705320Y2723388D01*
X-10344655Y3083425D01*
X-10159787Y3528636D01*
X-9976612Y3085320D01*
X-9616575Y2724655D01*
X-9145924Y2529223D01*
X-8636311Y2528778D01*
X-8165320Y2723388D01*
X-7804655Y3083425D01*
X-7619787Y3528636D01*
X-7436612Y3085320D01*
X-7076575Y2724655D01*
X-6605924Y2529223D01*
X-6096311Y2528778D01*
X-5625320Y2723388D01*
X-5264655Y3083425D01*
X-5069223Y3554076D01*
X-5068778Y4063689D01*
X-5263388Y4534680D01*
X-5623425Y4895345D01*
X-6068636Y5080213D01*
X-5625320Y5263388D01*
X-5264655Y5623425D01*
X-5069223Y6094076D01*
X-5069222Y6096311D01*
X-11222Y6096311D01*
X183388Y5625320D01*
X543425Y5264655D01*
X988636Y5079787D01*
X545320Y4896612D01*
X184655Y4536575D01*
X-10777Y4065924D01*
X-11222Y3556311D01*
X183388Y3085320D01*
X543425Y2724655D01*
X1014076Y2529223D01*
X1523689Y2528778D01*
X1994680Y2723388D01*
X2355345Y3083425D01*
X2540213Y3528636D01*
X2723388Y3085320D01*
X3083425Y2724655D01*
X3554076Y2529223D01*
X4063689Y2528778D01*
X4534680Y2723388D01*
X4895345Y3083425D01*
X5080213Y3528636D01*
X5263388Y3085320D01*
X5623425Y2724655D01*
X6094076Y2529223D01*
X6603689Y2528778D01*
X7074680Y2723388D01*
X7435345Y3083425D01*
X7575102Y3419996D01*
X7713388Y3085320D01*
X8073425Y2724655D01*
X8544076Y2529223D01*
X9053689Y2528778D01*
X9524680Y2723388D01*
X9885345Y3083425D01*
X10080777Y3554076D01*
X10081222Y4063689D01*
X9886612Y4534680D01*
X9526575Y4895345D01*
X9108830Y5068808D01*
X9143689Y5068778D01*
X9614680Y5263388D01*
X9975345Y5623425D01*
X10170777Y6094076D01*
X10171222Y6603689D01*
X9976612Y7074680D01*
X9616575Y7435345D01*
X9145924Y7630777D01*
X8636311Y7631222D01*
X8165320Y7436612D01*
X7804655Y7076575D01*
X7619787Y6631364D01*
X7436612Y7074680D01*
X7076575Y7435345D01*
X6605924Y7630777D01*
X6096311Y7631222D01*
X5625320Y7436612D01*
X5264655Y7076575D01*
X5074774Y6619293D01*
X4886612Y7074680D01*
X4526575Y7435345D01*
X4055924Y7630777D01*
X3546311Y7631222D01*
X3075320Y7436612D01*
X2714655Y7076575D01*
X2534799Y6643435D01*
X2356612Y7074680D01*
X1996575Y7435345D01*
X1525924Y7630777D01*
X1016311Y7631222D01*
X545320Y7436612D01*
X184655Y7076575D01*
X-10777Y6605924D01*
X-11222Y6096311D01*
X-5069222Y6096311D01*
X-5068778Y6603689D01*
X-5263388Y7074680D01*
X-5623425Y7435345D01*
X-6094076Y7630777D01*
X-6603689Y7631222D01*
X-7074680Y7436612D01*
X-7435345Y7076575D01*
X-7620213Y6631364D01*
X-7803388Y7074680D01*
X-8163425Y7435345D01*
X-8634076Y7630777D01*
X-9143689Y7631222D01*
X-9614680Y7436612D01*
X-9975345Y7076575D01*
X-10160213Y6631364D01*
X-10343388Y7074680D01*
X-10703425Y7435345D01*
X-11174076Y7630777D01*
X-11683689Y7631222D01*
X-12154680Y7436612D01*
X-12515345Y7076575D01*
X-12710777Y6605924D01*
X-12711222Y6096311D01*
X-14019407Y6096311D01*
X-14019407Y9865135D01*
X-3181118Y9865135D01*
X-3077661Y9614748D01*
X-2886259Y9423013D01*
X-2636054Y9319118D01*
X-2365135Y9318882D01*
X-2114748Y9422339D01*
X-1923013Y9613741D01*
X-1819118Y9863946D01*
X-1819070Y9920000D01*
X10575631Y9920000D01*
X10670371Y9443712D01*
X10940166Y9039935D01*
X11343943Y8770140D01*
X11820231Y8675400D01*
X12179769Y8675400D01*
X12656057Y8770140D01*
X13059834Y9039935D01*
X13329629Y9443712D01*
X13424369Y9920000D01*
X13329629Y10396288D01*
X13059834Y10800065D01*
X12656057Y11069860D01*
X12179769Y11164600D01*
X11820231Y11164600D01*
X11343943Y11069860D01*
X10940166Y10800065D01*
X10670371Y10396288D01*
X10575631Y9920000D01*
X-1819070Y9920000D01*
X-1818882Y10134865D01*
X-1922339Y10385252D01*
X-2113741Y10576987D01*
X-2363946Y10680882D01*
X-2634865Y10681118D01*
X-2885252Y10577661D01*
X-3076987Y10386259D01*
X-3180882Y10136054D01*
X-3181118Y9865135D01*
X-14019407Y9865135D01*
X-14019407Y14016000D01*
X-13404464Y14016000D01*
X-13404464Y11984000D01*
X-13377897Y11842810D01*
X-13294454Y11713135D01*
X-13167134Y11626141D01*
X-13016000Y11595536D01*
X-10984000Y11595536D01*
X-10842810Y11622103D01*
X-10713135Y11705546D01*
X-10626141Y11832866D01*
X-10595536Y11984000D01*
X-10595536Y12460000D01*
X10575631Y12460000D01*
X10670371Y11983712D01*
X10940166Y11579935D01*
X11343943Y11310140D01*
X11820231Y11215400D01*
X12179769Y11215400D01*
X12656057Y11310140D01*
X13059834Y11579935D01*
X13329629Y11983712D01*
X13424369Y12460000D01*
X13329629Y12936288D01*
X13059834Y13340065D01*
X12656057Y13609860D01*
X12179769Y13704600D01*
X11820231Y13704600D01*
X11343943Y13609860D01*
X10940166Y13340065D01*
X10670371Y12936288D01*
X10575631Y12460000D01*
X-10595536Y12460000D01*
X-10595536Y13865135D01*
X-3181118Y13865135D01*
X-3077661Y13614748D01*
X-2886259Y13423013D01*
X-2636054Y13319118D01*
X-2365135Y13318882D01*
X-2114748Y13422339D01*
X-1923013Y13613741D01*
X-1819118Y13863946D01*
X-1818882Y14134865D01*
X-1922339Y14385252D01*
X-2113741Y14576987D01*
X-2363946Y14680882D01*
X-2634865Y14681118D01*
X-2885252Y14577661D01*
X-3076987Y14386259D01*
X-3180882Y14136054D01*
X-3181118Y13865135D01*
X-10595536Y13865135D01*
X-10595536Y14016000D01*
X-10622103Y14157190D01*
X-10705546Y14286865D01*
X-10832866Y14373859D01*
X-10984000Y14404464D01*
X-13016000Y14404464D01*
X-13157190Y14377897D01*
X-13286865Y14294454D01*
X-13373859Y14167134D01*
X-13404464Y14016000D01*
X-14019407Y14016000D01*
X-14019407Y14765135D01*
X-6881118Y14765135D01*
X-6777661Y14514748D01*
X-6586259Y14323013D01*
X-6336054Y14219118D01*
X-6065135Y14218882D01*
X-5814748Y14322339D01*
X-5623013Y14513741D01*
X-5519118Y14763946D01*
X-5519030Y14865135D01*
X-4181118Y14865135D01*
X-4077661Y14614748D01*
X-3886259Y14423013D01*
X-3636054Y14319118D01*
X-3365135Y14318882D01*
X-3114748Y14422339D01*
X-2923013Y14613741D01*
X-2819118Y14863946D01*
X-2819117Y14865135D01*
X-1681118Y14865135D01*
X-1577661Y14614748D01*
X-1386259Y14423013D01*
X-1136054Y14319118D01*
X-865135Y14318882D01*
X-614748Y14422339D01*
X-423013Y14613741D01*
X-319118Y14863946D01*
X-319117Y14865135D01*
X818882Y14865135D01*
X922339Y14614748D01*
X1113741Y14423013D01*
X1363946Y14319118D01*
X1634865Y14318882D01*
X1885252Y14422339D01*
X2076987Y14613741D01*
X2180882Y14863946D01*
X2180883Y14865135D01*
X2818882Y14865135D01*
X2922339Y14614748D01*
X3113741Y14423013D01*
X3363946Y14319118D01*
X3634865Y14318882D01*
X3885252Y14422339D01*
X4076987Y14613741D01*
X4180882Y14863946D01*
X4181000Y15000000D01*
X10575631Y15000000D01*
X10670371Y14523712D01*
X10940166Y14119935D01*
X11343943Y13850140D01*
X11820231Y13755400D01*
X12179769Y13755400D01*
X12656057Y13850140D01*
X13059834Y14119935D01*
X13329629Y14523712D01*
X13424369Y15000000D01*
X13329629Y15476288D01*
X13059834Y15880065D01*
X12656057Y16149860D01*
X12179769Y16244600D01*
X11820231Y16244600D01*
X11343943Y16149860D01*
X10940166Y15880065D01*
X10670371Y15476288D01*
X10575631Y15000000D01*
X4181000Y15000000D01*
X4181118Y15134865D01*
X4077661Y15385252D01*
X3886259Y15576987D01*
X3636054Y15680882D01*
X3365135Y15681118D01*
X3114748Y15577661D01*
X2923013Y15386259D01*
X2819118Y15136054D01*
X2818882Y14865135D01*
X2180883Y14865135D01*
X2181118Y15134865D01*
X2077661Y15385252D01*
X1886259Y15576987D01*
X1636054Y15680882D01*
X1365135Y15681118D01*
X1114748Y15577661D01*
X923013Y15386259D01*
X819118Y15136054D01*
X818882Y14865135D01*
X-319117Y14865135D01*
X-318882Y15134865D01*
X-422339Y15385252D01*
X-613741Y15576987D01*
X-863946Y15680882D01*
X-1134865Y15681118D01*
X-1385252Y15577661D01*
X-1576987Y15386259D01*
X-1680882Y15136054D01*
X-1681118Y14865135D01*
X-2819117Y14865135D01*
X-2818882Y15134865D01*
X-2922339Y15385252D01*
X-3113741Y15576987D01*
X-3363946Y15680882D01*
X-3634865Y15681118D01*
X-3885252Y15577661D01*
X-4076987Y15386259D01*
X-4180882Y15136054D01*
X-4181118Y14865135D01*
X-5519030Y14865135D01*
X-5518882Y15034865D01*
X-5622339Y15285252D01*
X-5813741Y15476987D01*
X-6063946Y15580882D01*
X-6334865Y15581118D01*
X-6585252Y15477661D01*
X-6776987Y15286259D01*
X-6880882Y15036054D01*
X-6881118Y14765135D01*
X-14019407Y14765135D01*
X-14019407Y17465135D01*
X5468872Y17465135D01*
X5572329Y17214748D01*
X5763731Y17023013D01*
X6013936Y16919118D01*
X6284855Y16918882D01*
X6535242Y17022339D01*
X6726977Y17213741D01*
X6830872Y17463946D01*
X6831108Y17734865D01*
X6727651Y17985252D01*
X6536249Y18176987D01*
X6286044Y18280882D01*
X6015125Y18281118D01*
X5764738Y18177661D01*
X5573003Y17986259D01*
X5469108Y17736054D01*
X5468872Y17465135D01*
X-14019407Y17465135D01*
X-14019407Y18365135D01*
X-3031128Y18365135D01*
X-2927671Y18114748D01*
X-2736269Y17923013D01*
X-2486064Y17819118D01*
X-2215145Y17818882D01*
X-1964758Y17922339D01*
X-1773023Y18113741D01*
X-1669128Y18363946D01*
X-1669040Y18465135D01*
X1718882Y18465135D01*
X1822339Y18214748D01*
X2013741Y18023013D01*
X2263946Y17919118D01*
X2534865Y17918882D01*
X2785252Y18022339D01*
X2976987Y18213741D01*
X3080882Y18463946D01*
X3081118Y18734865D01*
X2977661Y18985252D01*
X2786259Y19176987D01*
X2536054Y19280882D01*
X2265135Y19281118D01*
X2014748Y19177661D01*
X1823013Y18986259D01*
X1719118Y18736054D01*
X1718882Y18465135D01*
X-1669040Y18465135D01*
X-1668892Y18634865D01*
X-1772349Y18885252D01*
X-1963751Y19076987D01*
X-2213956Y19180882D01*
X-2484875Y19181118D01*
X-2735262Y19077661D01*
X-2926997Y18886259D01*
X-3030892Y18636054D01*
X-3031128Y18365135D01*
X-14019407Y18365135D01*
X-14019407Y22540000D01*
X-13424369Y22540000D01*
X-13318029Y22005391D01*
X-13015197Y21552172D01*
X-12794137Y21404464D01*
X-13016000Y21404464D01*
X-13157190Y21377897D01*
X-13286865Y21294454D01*
X-13373859Y21167134D01*
X-13404464Y21016000D01*
X-13404464Y18984000D01*
X-13377897Y18842810D01*
X-13294454Y18713135D01*
X-13167134Y18626141D01*
X-13016000Y18595536D01*
X-10984000Y18595536D01*
X-10842810Y18622103D01*
X-10713135Y18705546D01*
X-10626141Y18832866D01*
X-10595536Y18984000D01*
X-10595536Y21016000D01*
X-10622103Y21157190D01*
X-10705546Y21286865D01*
X-10820097Y21365135D01*
X-4881118Y21365135D01*
X-4777661Y21114748D01*
X-4586259Y20923013D01*
X-4336054Y20819118D01*
X-4065135Y20818882D01*
X-3953194Y20865135D01*
X-2681118Y20865135D01*
X-2577661Y20614748D01*
X-2386259Y20423013D01*
X-2136054Y20319118D01*
X-1865135Y20318882D01*
X-1614748Y20422339D01*
X-1499968Y20536920D01*
X-1386259Y20423013D01*
X-1136054Y20319118D01*
X-865135Y20318882D01*
X-614748Y20422339D01*
X-499968Y20536920D01*
X-386259Y20423013D01*
X-136054Y20319118D01*
X134865Y20318882D01*
X385252Y20422339D01*
X528296Y20565135D01*
X918882Y20565135D01*
X1022339Y20314748D01*
X1213741Y20123013D01*
X1463946Y20019118D01*
X1734865Y20018882D01*
X1985252Y20122339D01*
X2176987Y20313741D01*
X2256511Y20505253D01*
X2463946Y20419118D01*
X2734865Y20418882D01*
X2893541Y20484445D01*
X2922339Y20414748D01*
X3113741Y20223013D01*
X3363946Y20119118D01*
X3634865Y20118882D01*
X3885252Y20222339D01*
X4076987Y20413741D01*
X4180882Y20663946D01*
X4181118Y20934865D01*
X4077661Y21185252D01*
X3898101Y21365125D01*
X5707465Y21365125D01*
X5810922Y21114738D01*
X6002324Y20923003D01*
X6252529Y20819108D01*
X6523448Y20818872D01*
X6773835Y20922329D01*
X6795143Y20943600D01*
X10595536Y20943600D01*
X10595536Y19216400D01*
X10622103Y19075210D01*
X10705546Y18945535D01*
X10832866Y18858541D01*
X10984000Y18827936D01*
X13016000Y18827936D01*
X13157190Y18854503D01*
X13286865Y18937946D01*
X13373859Y19065266D01*
X13404464Y19216400D01*
X13404464Y20943600D01*
X13377897Y21084790D01*
X13294454Y21214465D01*
X13167134Y21301459D01*
X13016000Y21332064D01*
X10984000Y21332064D01*
X10842810Y21305497D01*
X10713135Y21222054D01*
X10626141Y21094734D01*
X10595536Y20943600D01*
X6795143Y20943600D01*
X6965570Y21113731D01*
X7069465Y21363936D01*
X7069701Y21634855D01*
X7057190Y21665135D01*
X9618882Y21665135D01*
X9722339Y21414748D01*
X9913741Y21223013D01*
X10163946Y21119118D01*
X10434865Y21118882D01*
X10685252Y21222339D01*
X10876987Y21413741D01*
X10980882Y21663946D01*
X10981118Y21934865D01*
X10877661Y22185252D01*
X10686259Y22376987D01*
X10436054Y22480882D01*
X10165135Y22481118D01*
X9914748Y22377661D01*
X9723013Y22186259D01*
X9619118Y21936054D01*
X9618882Y21665135D01*
X7057190Y21665135D01*
X6966244Y21885242D01*
X6774842Y22076977D01*
X6524637Y22180872D01*
X6253718Y22181108D01*
X6003331Y22077651D01*
X5811596Y21886249D01*
X5707701Y21636044D01*
X5707465Y21365125D01*
X3898101Y21365125D01*
X3886259Y21376987D01*
X3636054Y21480882D01*
X3365135Y21481118D01*
X3206459Y21415555D01*
X3177661Y21485252D01*
X2986259Y21676987D01*
X2736054Y21780882D01*
X2465135Y21781118D01*
X2214748Y21677661D01*
X2023013Y21486259D01*
X1943489Y21294747D01*
X1736054Y21380882D01*
X1465135Y21381118D01*
X1214748Y21277661D01*
X1023013Y21086259D01*
X919118Y20836054D01*
X918882Y20565135D01*
X528296Y20565135D01*
X576987Y20613741D01*
X680882Y20863946D01*
X681118Y21134865D01*
X577661Y21385252D01*
X386259Y21576987D01*
X136054Y21680882D01*
X-134865Y21681118D01*
X-385252Y21577661D01*
X-500032Y21463080D01*
X-613741Y21576987D01*
X-863946Y21680882D01*
X-1134865Y21681118D01*
X-1385252Y21577661D01*
X-1500032Y21463080D01*
X-1613741Y21576987D01*
X-1863946Y21680882D01*
X-2134865Y21681118D01*
X-2385252Y21577661D01*
X-2576987Y21386259D01*
X-2680882Y21136054D01*
X-2681118Y20865135D01*
X-3953194Y20865135D01*
X-3814748Y20922339D01*
X-3623013Y21113741D01*
X-3519118Y21363946D01*
X-3518882Y21634865D01*
X-3622339Y21885252D01*
X-3813741Y22076987D01*
X-4063946Y22180882D01*
X-4334865Y22181118D01*
X-4585252Y22077661D01*
X-4776987Y21886259D01*
X-4880882Y21636054D01*
X-4881118Y21365135D01*
X-10820097Y21365135D01*
X-10832866Y21373859D01*
X-10984000Y21404464D01*
X-11205863Y21404464D01*
X-10984803Y21552172D01*
X-10681971Y22005391D01*
X-10575631Y22540000D01*
X-10660195Y22965135D01*
X3218882Y22965135D01*
X3322339Y22714748D01*
X3401793Y22635156D01*
X3319118Y22436054D01*
X3318882Y22165135D01*
X3422339Y21914748D01*
X3613741Y21723013D01*
X3863946Y21619118D01*
X4134865Y21618882D01*
X4385252Y21722339D01*
X4576987Y21913741D01*
X4680882Y22163946D01*
X4681118Y22434865D01*
X4603630Y22622404D01*
X6476151Y22622404D01*
X6579608Y22372017D01*
X6771010Y22180282D01*
X7021215Y22076387D01*
X7292134Y22076151D01*
X7542521Y22179608D01*
X7734256Y22371010D01*
X7838151Y22621215D01*
X7838387Y22892134D01*
X7734930Y23142521D01*
X7543528Y23334256D01*
X7293323Y23438151D01*
X7022404Y23438387D01*
X6772017Y23334930D01*
X6580282Y23143528D01*
X6476387Y22893323D01*
X6476151Y22622404D01*
X4603630Y22622404D01*
X4577661Y22685252D01*
X4498207Y22764844D01*
X4580882Y22963946D01*
X4581118Y23234865D01*
X4477661Y23485252D01*
X4286259Y23676987D01*
X4036054Y23780882D01*
X3765135Y23781118D01*
X3514748Y23677661D01*
X3323013Y23486259D01*
X3219118Y23236054D01*
X3218882Y22965135D01*
X-10660195Y22965135D01*
X-10681971Y23074609D01*
X-10984803Y23527828D01*
X-11438022Y23830660D01*
X-11611340Y23865135D01*
X-3681118Y23865135D01*
X-3577661Y23614748D01*
X-3386259Y23423013D01*
X-3136054Y23319118D01*
X-2865135Y23318882D01*
X-2614748Y23422339D01*
X-2423013Y23613741D01*
X-2319118Y23863946D01*
X-2318882Y24134865D01*
X-2422339Y24385252D01*
X-2613741Y24576987D01*
X-2863946Y24680882D01*
X-3134865Y24681118D01*
X-3385252Y24577661D01*
X-3576987Y24386259D01*
X-3680882Y24136054D01*
X-3681118Y23865135D01*
X-11611340Y23865135D01*
X-11972631Y23937000D01*
X-12027369Y23937000D01*
X-12561978Y23830660D01*
X-13015197Y23527828D01*
X-13318029Y23074609D01*
X-13424369Y22540000D01*
X-14019407Y22540000D01*
X-14019407Y24486857D01*
X-6821531Y24486857D01*
X-6718074Y24236470D01*
X-6526672Y24044735D01*
X-6276467Y23940840D01*
X-6005548Y23940604D01*
X-5755161Y24044061D01*
X-5563426Y24235463D01*
X-5459531Y24485668D01*
X-5459295Y24756587D01*
X-5504145Y24865135D01*
X10018882Y24865135D01*
X10122339Y24614748D01*
X10313741Y24423013D01*
X10563946Y24319118D01*
X10834865Y24318882D01*
X11085252Y24422339D01*
X11276987Y24613741D01*
X11380882Y24863946D01*
X11381118Y25134865D01*
X11277661Y25385252D01*
X11086259Y25576987D01*
X10836054Y25680882D01*
X10565135Y25681118D01*
X10314748Y25577661D01*
X10123013Y25386259D01*
X10019118Y25136054D01*
X10018882Y24865135D01*
X-5504145Y24865135D01*
X-5562752Y25006974D01*
X-5754154Y25198709D01*
X-6004359Y25302604D01*
X-6275278Y25302840D01*
X-6525665Y25199383D01*
X-6717400Y25007981D01*
X-6821295Y24757776D01*
X-6821531Y24486857D01*
X-14019407Y24486857D01*
X-14019407Y27746311D01*
X-13731222Y27746311D01*
X-13536612Y27275320D01*
X-13176575Y26914655D01*
X-12705924Y26719223D01*
X-12196311Y26718778D01*
X-11725320Y26913388D01*
X-11364655Y27273425D01*
X-11169223Y27744076D01*
X-11168778Y28253689D01*
X-11363388Y28724680D01*
X-11723425Y29085345D01*
X-12194076Y29280777D01*
X-12703689Y29281222D01*
X-13174680Y29086612D01*
X-13535345Y28726575D01*
X-13730777Y28255924D01*
X-13731222Y27746311D01*
X-14019407Y27746311D01*
X-14019407Y28742711D01*
X-14004249Y28818916D01*
X-13808459Y29111935D01*
X-13611935Y29308459D01*
X-13318916Y29504249D01*
X-13086761Y29550427D01*
X-11500407Y29550427D01*
X-11458772Y29558709D01*
X-11416323Y29558709D01*
X-11344477Y29573000D01*
X-10800000Y29573000D01*
X-10775224Y29575440D01*
X-10392541Y29651560D01*
X-10346760Y29670523D01*
X-10127000Y29817362D01*
X-10127000Y25750000D01*
X-10127000Y25750000D01*
G37*
X-10127000Y25750000D02*
X-10118315Y25703841D01*
X-10091035Y25661447D01*
X-10049410Y25633006D01*
X-10000000Y25623000D01*
X10000000Y25623000D01*
X10046159Y25631685D01*
X10088553Y25658965D01*
X10116994Y25700590D01*
X10127000Y25750000D01*
X10127000Y27746311D01*
X11168778Y27746311D01*
X11363388Y27275320D01*
X11723425Y26914655D01*
X12194076Y26719223D01*
X12703689Y26718778D01*
X13174680Y26913388D01*
X13535345Y27273425D01*
X13730777Y27744076D01*
X13731222Y28253689D01*
X13536612Y28724680D01*
X13176575Y29085345D01*
X12705924Y29280777D01*
X12196311Y29281222D01*
X11725320Y29086612D01*
X11364655Y28726575D01*
X11169223Y28255924D01*
X11168778Y27746311D01*
X10127000Y27746311D01*
X10127000Y29750544D01*
X10246760Y29670523D01*
X10292541Y29651560D01*
X10675224Y29575440D01*
X10700000Y29573000D01*
X11343663Y29573000D01*
X11415509Y29558709D01*
X11457958Y29558709D01*
X11499593Y29550427D01*
X13286761Y29550427D01*
X13518916Y29504249D01*
X13809851Y29309851D01*
X14002032Y29022234D01*
X14018593Y28938975D01*
X14018593Y-28846803D01*
X14004249Y-28918916D01*
X13808459Y-29211935D01*
X13611935Y-29408459D01*
X13343873Y-29587573D01*
X11499593Y-29587573D01*
X11457958Y-29595855D01*
X11415509Y-29595855D01*
X11027676Y-29673000D01*
X10700000Y-29673000D01*
X10675224Y-29675440D01*
X10292541Y-29751560D01*
X10246760Y-29770523D01*
X9922336Y-29987296D01*
X9887296Y-30022336D01*
X9670523Y-30346760D01*
X9651560Y-30392541D01*
X9575440Y-30775224D01*
X9573000Y-30800000D01*
X9573000Y-31496418D01*
X9568593Y-31518573D01*
X9568593Y-33195433D01*
X9504249Y-33518916D01*
X9309851Y-33809851D01*
X9018916Y-34004249D01*
X8851383Y-34037573D01*
X-8651383Y-34037573D01*
X-8818916Y-34004249D01*
X-9111935Y-33808459D01*
X-9308459Y-33611935D01*
X-9504249Y-33318916D01*
X-9569407Y-32991340D01*
X-9569407Y-31518573D01*
X-9573000Y-31500510D01*
X-9573000Y-30800000D01*
X-9575440Y-30775224D01*
X-9651560Y-30392541D01*
X-9670523Y-30346760D01*
X-9887296Y-30022336D01*
X-9922336Y-29987296D01*
X-10246760Y-29770523D01*
X-10292541Y-29751560D01*
X-10675224Y-29675440D01*
X-10700000Y-29673000D01*
X-11028490Y-29673000D01*
X-11416323Y-29595855D01*
X-11458772Y-29595855D01*
X-11500407Y-29587573D01*
X-13343873Y-29587573D01*
X-13611935Y-29408459D01*
X-13808459Y-29211935D01*
X-14004249Y-28918916D01*
X-14019407Y-28842711D01*
X-14019407Y-28253689D01*
X-13731222Y-28253689D01*
X-13536612Y-28724680D01*
X-13176575Y-29085345D01*
X-12705924Y-29280777D01*
X-12196311Y-29281222D01*
X-11725320Y-29086612D01*
X-11364655Y-28726575D01*
X-11169223Y-28255924D01*
X-11169222Y-28253689D01*
X11168778Y-28253689D01*
X11363388Y-28724680D01*
X11723425Y-29085345D01*
X12194076Y-29280777D01*
X12703689Y-29281222D01*
X13174680Y-29086612D01*
X13535345Y-28726575D01*
X13730777Y-28255924D01*
X13731222Y-27746311D01*
X13536612Y-27275320D01*
X13176575Y-26914655D01*
X12705924Y-26719223D01*
X12196311Y-26718778D01*
X11725320Y-26913388D01*
X11364655Y-27273425D01*
X11169223Y-27744076D01*
X11168778Y-28253689D01*
X-11169222Y-28253689D01*
X-11168778Y-27746311D01*
X-11363388Y-27275320D01*
X-11723425Y-26914655D01*
X-12194076Y-26719223D01*
X-12703689Y-26718778D01*
X-13174680Y-26913388D01*
X-13535345Y-27273425D01*
X-13730777Y-27744076D01*
X-13731222Y-28253689D01*
X-14019407Y-28253689D01*
X-14019407Y-15024970D01*
X-13331221Y-15024970D01*
X-13136611Y-15495961D01*
X-12776574Y-15856626D01*
X-12305923Y-16052058D01*
X-11796310Y-16052503D01*
X-11325319Y-15857893D01*
X-10964654Y-15497856D01*
X-10769222Y-15027205D01*
X-10768777Y-14517592D01*
X-10963387Y-14046601D01*
X-11323424Y-13685936D01*
X-11794075Y-13490504D01*
X-12303688Y-13490059D01*
X-12774679Y-13684669D01*
X-13135344Y-14044706D01*
X-13330776Y-14515357D01*
X-13331221Y-15024970D01*
X-14019407Y-15024970D01*
X-14019407Y-12253689D01*
X-11731222Y-12253689D01*
X-11536612Y-12724680D01*
X-11176575Y-13085345D01*
X-10705924Y-13280777D01*
X-10196311Y-13281222D01*
X-9725320Y-13086612D01*
X-9364655Y-12726575D01*
X-9169223Y-12255924D01*
X-9168778Y-11746311D01*
X-9363388Y-11275320D01*
X-9723425Y-10914655D01*
X-10194076Y-10719223D01*
X-10703689Y-10718778D01*
X-11174680Y-10913388D01*
X-11535345Y-11273425D01*
X-11730777Y-11744076D01*
X-11731222Y-12253689D01*
X-14019407Y-12253689D01*
X-14019407Y-9214081D01*
X-13081187Y-9214081D01*
X-12916962Y-9611537D01*
X-12613137Y-9915893D01*
X-12215968Y-10080812D01*
X-11785919Y-10081187D01*
X-11431792Y-9934865D01*
X-10681118Y-9934865D01*
X-10577661Y-10185252D01*
X-10386259Y-10376987D01*
X-10136054Y-10480882D01*
X-9865135Y-10481118D01*
X-9614748Y-10377661D01*
X-9423013Y-10186259D01*
X-9319118Y-9936054D01*
X-9318882Y-9665135D01*
X-9422339Y-9414748D01*
X-9613741Y-9223013D01*
X-9863946Y-9119118D01*
X-10134865Y-9118882D01*
X-10385252Y-9222339D01*
X-10576987Y-9413741D01*
X-10680882Y-9663946D01*
X-10681118Y-9934865D01*
X-11431792Y-9934865D01*
X-11388463Y-9916962D01*
X-11084107Y-9613137D01*
X-10919188Y-9215968D01*
X-10918813Y-8785919D01*
X-11083038Y-8388463D01*
X-11386863Y-8084107D01*
X-11784032Y-7919188D01*
X-12214081Y-7918813D01*
X-12611537Y-8083038D01*
X-12915893Y-8386863D01*
X-13080812Y-8784032D01*
X-13081187Y-9214081D01*
X-14019407Y-9214081D01*
X-14019407Y-6674081D01*
X-13081187Y-6674081D01*
X-12916962Y-7071537D01*
X-12613137Y-7375893D01*
X-12215968Y-7540812D01*
X-11785919Y-7541187D01*
X-11388463Y-7376962D01*
X-11346293Y-7334865D01*
X-6481118Y-7334865D01*
X-6377661Y-7585252D01*
X-6186259Y-7776987D01*
X-5936054Y-7880882D01*
X-5665135Y-7881118D01*
X-5414748Y-7777661D01*
X-5223013Y-7586259D01*
X-5119118Y-7336054D01*
X-5119117Y-7334865D01*
X-4881118Y-7334865D01*
X-4777661Y-7585252D01*
X-4586259Y-7776987D01*
X-4336054Y-7880882D01*
X-4065135Y-7881118D01*
X-3814748Y-7777661D01*
X-3623013Y-7586259D01*
X-3519118Y-7336054D01*
X-3518882Y-7065135D01*
X-3622339Y-6814748D01*
X-3813741Y-6623013D01*
X-4063946Y-6519118D01*
X-4334865Y-6518882D01*
X-4585252Y-6622339D01*
X-4776987Y-6813741D01*
X-4880882Y-7063946D01*
X-4881118Y-7334865D01*
X-5119117Y-7334865D01*
X-5118882Y-7065135D01*
X-5222339Y-6814748D01*
X-5413741Y-6623013D01*
X-5663946Y-6519118D01*
X-5934865Y-6518882D01*
X-6185252Y-6622339D01*
X-6376987Y-6813741D01*
X-6480882Y-7063946D01*
X-6481118Y-7334865D01*
X-11346293Y-7334865D01*
X-11084107Y-7073137D01*
X-10919188Y-6675968D01*
X-10919065Y-6534865D01*
X-10681118Y-6534865D01*
X-10577661Y-6785252D01*
X-10386259Y-6976987D01*
X-10136054Y-7080882D01*
X-9865135Y-7081118D01*
X-9614748Y-6977661D01*
X-9423013Y-6786259D01*
X-9319118Y-6536054D01*
X-9318882Y-6265135D01*
X-9334903Y-6226359D01*
X-8643198Y-6226359D01*
X-8469554Y-6646612D01*
X-8148303Y-6968423D01*
X-7728354Y-7142801D01*
X-7273641Y-7143198D01*
X-6853388Y-6969554D01*
X-6531577Y-6648303D01*
X-6357199Y-6228354D01*
X-6357198Y-6226359D01*
X-3643198Y-6226359D01*
X-3469554Y-6646612D01*
X-3148303Y-6968423D01*
X-2728354Y-7142801D01*
X-2273641Y-7143198D01*
X-1853388Y-6969554D01*
X-1531577Y-6648303D01*
X-1357199Y-6228354D01*
X-1356802Y-5773641D01*
X-1530446Y-5353388D01*
X-1851697Y-5031577D01*
X-2271646Y-4857199D01*
X-2726359Y-4856802D01*
X-3146612Y-5030446D01*
X-3468423Y-5351697D01*
X-3642801Y-5771646D01*
X-3643198Y-6226359D01*
X-6357198Y-6226359D01*
X-6356802Y-5773641D01*
X-6530446Y-5353388D01*
X-6851697Y-5031577D01*
X-7084605Y-4934865D01*
X-6481118Y-4934865D01*
X-6377661Y-5185252D01*
X-6186259Y-5376987D01*
X-5936054Y-5480882D01*
X-5665135Y-5481118D01*
X-5414748Y-5377661D01*
X-5223013Y-5186259D01*
X-5119118Y-4936054D01*
X-5119117Y-4934865D01*
X-4881118Y-4934865D01*
X-4777661Y-5185252D01*
X-4586259Y-5376987D01*
X-4336054Y-5480882D01*
X-4065135Y-5481118D01*
X-3814748Y-5377661D01*
X-3623013Y-5186259D01*
X-3519118Y-4936054D01*
X-3518882Y-4665135D01*
X-3622339Y-4414748D01*
X-3813741Y-4223013D01*
X-4063946Y-4119118D01*
X-4334865Y-4118882D01*
X-4585252Y-4222339D01*
X-4776987Y-4413741D01*
X-4880882Y-4663946D01*
X-4881118Y-4934865D01*
X-5119117Y-4934865D01*
X-5118882Y-4665135D01*
X-5222339Y-4414748D01*
X-5413741Y-4223013D01*
X-5663946Y-4119118D01*
X-5934865Y-4118882D01*
X-6185252Y-4222339D01*
X-6376987Y-4413741D01*
X-6480882Y-4663946D01*
X-6481118Y-4934865D01*
X-7084605Y-4934865D01*
X-7271646Y-4857199D01*
X-7726359Y-4856802D01*
X-8146612Y-5030446D01*
X-8468423Y-5351697D01*
X-8642801Y-5771646D01*
X-8643198Y-6226359D01*
X-9334903Y-6226359D01*
X-9422339Y-6014748D01*
X-9613741Y-5823013D01*
X-9863946Y-5719118D01*
X-10134865Y-5718882D01*
X-10385252Y-5822339D01*
X-10576987Y-6013741D01*
X-10680882Y-6263946D01*
X-10681118Y-6534865D01*
X-10919065Y-6534865D01*
X-10918813Y-6245919D01*
X-11083038Y-5848463D01*
X-11386863Y-5544107D01*
X-11784032Y-5379188D01*
X-12214081Y-5378813D01*
X-12611537Y-5543038D01*
X-12915893Y-5846863D01*
X-13080812Y-6244032D01*
X-13081187Y-6674081D01*
X-14019407Y-6674081D01*
X-14019407Y-253689D01*
X-13731222Y-253689D01*
X-13536612Y-724680D01*
X-13176575Y-1085345D01*
X-12705924Y-1280777D01*
X-12196311Y-1281222D01*
X-11725320Y-1086612D01*
X-11364655Y-726575D01*
X-11169223Y-255924D01*
X-11169222Y-253689D01*
X11168778Y-253689D01*
X11363388Y-724680D01*
X11723425Y-1085345D01*
X12194076Y-1280777D01*
X12703689Y-1281222D01*
X13174680Y-1086612D01*
X13535345Y-726575D01*
X13730777Y-255924D01*
X13731222Y253689D01*
X13536612Y724680D01*
X13176575Y1085345D01*
X12705924Y1280777D01*
X12196311Y1281222D01*
X11725320Y1086612D01*
X11364655Y726575D01*
X11169223Y255924D01*
X11168778Y-253689D01*
X-11169222Y-253689D01*
X-11168778Y253689D01*
X-11363388Y724680D01*
X-11723425Y1085345D01*
X-12194076Y1280777D01*
X-12703689Y1281222D01*
X-13174680Y1086612D01*
X-13535345Y726575D01*
X-13730777Y255924D01*
X-13731222Y-253689D01*
X-14019407Y-253689D01*
X-14019407Y6096311D01*
X-12711222Y6096311D01*
X-12516612Y5625320D01*
X-12156575Y5264655D01*
X-11711364Y5079787D01*
X-12154680Y4896612D01*
X-12515345Y4536575D01*
X-12710777Y4065924D01*
X-12711222Y3556311D01*
X-12516612Y3085320D01*
X-12156575Y2724655D01*
X-11685924Y2529223D01*
X-11176311Y2528778D01*
X-10705320Y2723388D01*
X-10344655Y3083425D01*
X-10159787Y3528636D01*
X-9976612Y3085320D01*
X-9616575Y2724655D01*
X-9145924Y2529223D01*
X-8636311Y2528778D01*
X-8165320Y2723388D01*
X-7804655Y3083425D01*
X-7619787Y3528636D01*
X-7436612Y3085320D01*
X-7076575Y2724655D01*
X-6605924Y2529223D01*
X-6096311Y2528778D01*
X-5625320Y2723388D01*
X-5264655Y3083425D01*
X-5069223Y3554076D01*
X-5068778Y4063689D01*
X-5263388Y4534680D01*
X-5623425Y4895345D01*
X-6068636Y5080213D01*
X-5625320Y5263388D01*
X-5264655Y5623425D01*
X-5069223Y6094076D01*
X-5069222Y6096311D01*
X-11222Y6096311D01*
X183388Y5625320D01*
X543425Y5264655D01*
X988636Y5079787D01*
X545320Y4896612D01*
X184655Y4536575D01*
X-10777Y4065924D01*
X-11222Y3556311D01*
X183388Y3085320D01*
X543425Y2724655D01*
X1014076Y2529223D01*
X1523689Y2528778D01*
X1994680Y2723388D01*
X2355345Y3083425D01*
X2540213Y3528636D01*
X2723388Y3085320D01*
X3083425Y2724655D01*
X3554076Y2529223D01*
X4063689Y2528778D01*
X4534680Y2723388D01*
X4895345Y3083425D01*
X5080213Y3528636D01*
X5263388Y3085320D01*
X5623425Y2724655D01*
X6094076Y2529223D01*
X6603689Y2528778D01*
X7074680Y2723388D01*
X7435345Y3083425D01*
X7575102Y3419996D01*
X7713388Y3085320D01*
X8073425Y2724655D01*
X8544076Y2529223D01*
X9053689Y2528778D01*
X9524680Y2723388D01*
X9885345Y3083425D01*
X10080777Y3554076D01*
X10081222Y4063689D01*
X9886612Y4534680D01*
X9526575Y4895345D01*
X9108830Y5068808D01*
X9143689Y5068778D01*
X9614680Y5263388D01*
X9975345Y5623425D01*
X10170777Y6094076D01*
X10171222Y6603689D01*
X9976612Y7074680D01*
X9616575Y7435345D01*
X9145924Y7630777D01*
X8636311Y7631222D01*
X8165320Y7436612D01*
X7804655Y7076575D01*
X7619787Y6631364D01*
X7436612Y7074680D01*
X7076575Y7435345D01*
X6605924Y7630777D01*
X6096311Y7631222D01*
X5625320Y7436612D01*
X5264655Y7076575D01*
X5074774Y6619293D01*
X4886612Y7074680D01*
X4526575Y7435345D01*
X4055924Y7630777D01*
X3546311Y7631222D01*
X3075320Y7436612D01*
X2714655Y7076575D01*
X2534799Y6643435D01*
X2356612Y7074680D01*
X1996575Y7435345D01*
X1525924Y7630777D01*
X1016311Y7631222D01*
X545320Y7436612D01*
X184655Y7076575D01*
X-10777Y6605924D01*
X-11222Y6096311D01*
X-5069222Y6096311D01*
X-5068778Y6603689D01*
X-5263388Y7074680D01*
X-5623425Y7435345D01*
X-6094076Y7630777D01*
X-6603689Y7631222D01*
X-7074680Y7436612D01*
X-7435345Y7076575D01*
X-7620213Y6631364D01*
X-7803388Y7074680D01*
X-8163425Y7435345D01*
X-8634076Y7630777D01*
X-9143689Y7631222D01*
X-9614680Y7436612D01*
X-9975345Y7076575D01*
X-10160213Y6631364D01*
X-10343388Y7074680D01*
X-10703425Y7435345D01*
X-11174076Y7630777D01*
X-11683689Y7631222D01*
X-12154680Y7436612D01*
X-12515345Y7076575D01*
X-12710777Y6605924D01*
X-12711222Y6096311D01*
X-14019407Y6096311D01*
X-14019407Y9865135D01*
X-3181118Y9865135D01*
X-3077661Y9614748D01*
X-2886259Y9423013D01*
X-2636054Y9319118D01*
X-2365135Y9318882D01*
X-2114748Y9422339D01*
X-1923013Y9613741D01*
X-1819118Y9863946D01*
X-1819070Y9920000D01*
X10575631Y9920000D01*
X10670371Y9443712D01*
X10940166Y9039935D01*
X11343943Y8770140D01*
X11820231Y8675400D01*
X12179769Y8675400D01*
X12656057Y8770140D01*
X13059834Y9039935D01*
X13329629Y9443712D01*
X13424369Y9920000D01*
X13329629Y10396288D01*
X13059834Y10800065D01*
X12656057Y11069860D01*
X12179769Y11164600D01*
X11820231Y11164600D01*
X11343943Y11069860D01*
X10940166Y10800065D01*
X10670371Y10396288D01*
X10575631Y9920000D01*
X-1819070Y9920000D01*
X-1818882Y10134865D01*
X-1922339Y10385252D01*
X-2113741Y10576987D01*
X-2363946Y10680882D01*
X-2634865Y10681118D01*
X-2885252Y10577661D01*
X-3076987Y10386259D01*
X-3180882Y10136054D01*
X-3181118Y9865135D01*
X-14019407Y9865135D01*
X-14019407Y14016000D01*
X-13404464Y14016000D01*
X-13404464Y11984000D01*
X-13377897Y11842810D01*
X-13294454Y11713135D01*
X-13167134Y11626141D01*
X-13016000Y11595536D01*
X-10984000Y11595536D01*
X-10842810Y11622103D01*
X-10713135Y11705546D01*
X-10626141Y11832866D01*
X-10595536Y11984000D01*
X-10595536Y12460000D01*
X10575631Y12460000D01*
X10670371Y11983712D01*
X10940166Y11579935D01*
X11343943Y11310140D01*
X11820231Y11215400D01*
X12179769Y11215400D01*
X12656057Y11310140D01*
X13059834Y11579935D01*
X13329629Y11983712D01*
X13424369Y12460000D01*
X13329629Y12936288D01*
X13059834Y13340065D01*
X12656057Y13609860D01*
X12179769Y13704600D01*
X11820231Y13704600D01*
X11343943Y13609860D01*
X10940166Y13340065D01*
X10670371Y12936288D01*
X10575631Y12460000D01*
X-10595536Y12460000D01*
X-10595536Y13865135D01*
X-3181118Y13865135D01*
X-3077661Y13614748D01*
X-2886259Y13423013D01*
X-2636054Y13319118D01*
X-2365135Y13318882D01*
X-2114748Y13422339D01*
X-1923013Y13613741D01*
X-1819118Y13863946D01*
X-1818882Y14134865D01*
X-1922339Y14385252D01*
X-2113741Y14576987D01*
X-2363946Y14680882D01*
X-2634865Y14681118D01*
X-2885252Y14577661D01*
X-3076987Y14386259D01*
X-3180882Y14136054D01*
X-3181118Y13865135D01*
X-10595536Y13865135D01*
X-10595536Y14016000D01*
X-10622103Y14157190D01*
X-10705546Y14286865D01*
X-10832866Y14373859D01*
X-10984000Y14404464D01*
X-13016000Y14404464D01*
X-13157190Y14377897D01*
X-13286865Y14294454D01*
X-13373859Y14167134D01*
X-13404464Y14016000D01*
X-14019407Y14016000D01*
X-14019407Y14765135D01*
X-6881118Y14765135D01*
X-6777661Y14514748D01*
X-6586259Y14323013D01*
X-6336054Y14219118D01*
X-6065135Y14218882D01*
X-5814748Y14322339D01*
X-5623013Y14513741D01*
X-5519118Y14763946D01*
X-5519030Y14865135D01*
X-4181118Y14865135D01*
X-4077661Y14614748D01*
X-3886259Y14423013D01*
X-3636054Y14319118D01*
X-3365135Y14318882D01*
X-3114748Y14422339D01*
X-2923013Y14613741D01*
X-2819118Y14863946D01*
X-2819117Y14865135D01*
X-1681118Y14865135D01*
X-1577661Y14614748D01*
X-1386259Y14423013D01*
X-1136054Y14319118D01*
X-865135Y14318882D01*
X-614748Y14422339D01*
X-423013Y14613741D01*
X-319118Y14863946D01*
X-319117Y14865135D01*
X818882Y14865135D01*
X922339Y14614748D01*
X1113741Y14423013D01*
X1363946Y14319118D01*
X1634865Y14318882D01*
X1885252Y14422339D01*
X2076987Y14613741D01*
X2180882Y14863946D01*
X2180883Y14865135D01*
X2818882Y14865135D01*
X2922339Y14614748D01*
X3113741Y14423013D01*
X3363946Y14319118D01*
X3634865Y14318882D01*
X3885252Y14422339D01*
X4076987Y14613741D01*
X4180882Y14863946D01*
X4181000Y15000000D01*
X10575631Y15000000D01*
X10670371Y14523712D01*
X10940166Y14119935D01*
X11343943Y13850140D01*
X11820231Y13755400D01*
X12179769Y13755400D01*
X12656057Y13850140D01*
X13059834Y14119935D01*
X13329629Y14523712D01*
X13424369Y15000000D01*
X13329629Y15476288D01*
X13059834Y15880065D01*
X12656057Y16149860D01*
X12179769Y16244600D01*
X11820231Y16244600D01*
X11343943Y16149860D01*
X10940166Y15880065D01*
X10670371Y15476288D01*
X10575631Y15000000D01*
X4181000Y15000000D01*
X4181118Y15134865D01*
X4077661Y15385252D01*
X3886259Y15576987D01*
X3636054Y15680882D01*
X3365135Y15681118D01*
X3114748Y15577661D01*
X2923013Y15386259D01*
X2819118Y15136054D01*
X2818882Y14865135D01*
X2180883Y14865135D01*
X2181118Y15134865D01*
X2077661Y15385252D01*
X1886259Y15576987D01*
X1636054Y15680882D01*
X1365135Y15681118D01*
X1114748Y15577661D01*
X923013Y15386259D01*
X819118Y15136054D01*
X818882Y14865135D01*
X-319117Y14865135D01*
X-318882Y15134865D01*
X-422339Y15385252D01*
X-613741Y15576987D01*
X-863946Y15680882D01*
X-1134865Y15681118D01*
X-1385252Y15577661D01*
X-1576987Y15386259D01*
X-1680882Y15136054D01*
X-1681118Y14865135D01*
X-2819117Y14865135D01*
X-2818882Y15134865D01*
X-2922339Y15385252D01*
X-3113741Y15576987D01*
X-3363946Y15680882D01*
X-3634865Y15681118D01*
X-3885252Y15577661D01*
X-4076987Y15386259D01*
X-4180882Y15136054D01*
X-4181118Y14865135D01*
X-5519030Y14865135D01*
X-5518882Y15034865D01*
X-5622339Y15285252D01*
X-5813741Y15476987D01*
X-6063946Y15580882D01*
X-6334865Y15581118D01*
X-6585252Y15477661D01*
X-6776987Y15286259D01*
X-6880882Y15036054D01*
X-6881118Y14765135D01*
X-14019407Y14765135D01*
X-14019407Y17465135D01*
X5468872Y17465135D01*
X5572329Y17214748D01*
X5763731Y17023013D01*
X6013936Y16919118D01*
X6284855Y16918882D01*
X6535242Y17022339D01*
X6726977Y17213741D01*
X6830872Y17463946D01*
X6831108Y17734865D01*
X6727651Y17985252D01*
X6536249Y18176987D01*
X6286044Y18280882D01*
X6015125Y18281118D01*
X5764738Y18177661D01*
X5573003Y17986259D01*
X5469108Y17736054D01*
X5468872Y17465135D01*
X-14019407Y17465135D01*
X-14019407Y18365135D01*
X-3031128Y18365135D01*
X-2927671Y18114748D01*
X-2736269Y17923013D01*
X-2486064Y17819118D01*
X-2215145Y17818882D01*
X-1964758Y17922339D01*
X-1773023Y18113741D01*
X-1669128Y18363946D01*
X-1669040Y18465135D01*
X1718882Y18465135D01*
X1822339Y18214748D01*
X2013741Y18023013D01*
X2263946Y17919118D01*
X2534865Y17918882D01*
X2785252Y18022339D01*
X2976987Y18213741D01*
X3080882Y18463946D01*
X3081118Y18734865D01*
X2977661Y18985252D01*
X2786259Y19176987D01*
X2536054Y19280882D01*
X2265135Y19281118D01*
X2014748Y19177661D01*
X1823013Y18986259D01*
X1719118Y18736054D01*
X1718882Y18465135D01*
X-1669040Y18465135D01*
X-1668892Y18634865D01*
X-1772349Y18885252D01*
X-1963751Y19076987D01*
X-2213956Y19180882D01*
X-2484875Y19181118D01*
X-2735262Y19077661D01*
X-2926997Y18886259D01*
X-3030892Y18636054D01*
X-3031128Y18365135D01*
X-14019407Y18365135D01*
X-14019407Y22540000D01*
X-13424369Y22540000D01*
X-13318029Y22005391D01*
X-13015197Y21552172D01*
X-12794137Y21404464D01*
X-13016000Y21404464D01*
X-13157190Y21377897D01*
X-13286865Y21294454D01*
X-13373859Y21167134D01*
X-13404464Y21016000D01*
X-13404464Y18984000D01*
X-13377897Y18842810D01*
X-13294454Y18713135D01*
X-13167134Y18626141D01*
X-13016000Y18595536D01*
X-10984000Y18595536D01*
X-10842810Y18622103D01*
X-10713135Y18705546D01*
X-10626141Y18832866D01*
X-10595536Y18984000D01*
X-10595536Y21016000D01*
X-10622103Y21157190D01*
X-10705546Y21286865D01*
X-10820097Y21365135D01*
X-4881118Y21365135D01*
X-4777661Y21114748D01*
X-4586259Y20923013D01*
X-4336054Y20819118D01*
X-4065135Y20818882D01*
X-3953194Y20865135D01*
X-2681118Y20865135D01*
X-2577661Y20614748D01*
X-2386259Y20423013D01*
X-2136054Y20319118D01*
X-1865135Y20318882D01*
X-1614748Y20422339D01*
X-1499968Y20536920D01*
X-1386259Y20423013D01*
X-1136054Y20319118D01*
X-865135Y20318882D01*
X-614748Y20422339D01*
X-499968Y20536920D01*
X-386259Y20423013D01*
X-136054Y20319118D01*
X134865Y20318882D01*
X385252Y20422339D01*
X528296Y20565135D01*
X918882Y20565135D01*
X1022339Y20314748D01*
X1213741Y20123013D01*
X1463946Y20019118D01*
X1734865Y20018882D01*
X1985252Y20122339D01*
X2176987Y20313741D01*
X2256511Y20505253D01*
X2463946Y20419118D01*
X2734865Y20418882D01*
X2893541Y20484445D01*
X2922339Y20414748D01*
X3113741Y20223013D01*
X3363946Y20119118D01*
X3634865Y20118882D01*
X3885252Y20222339D01*
X4076987Y20413741D01*
X4180882Y20663946D01*
X4181118Y20934865D01*
X4077661Y21185252D01*
X3898101Y21365125D01*
X5707465Y21365125D01*
X5810922Y21114738D01*
X6002324Y20923003D01*
X6252529Y20819108D01*
X6523448Y20818872D01*
X6773835Y20922329D01*
X6795143Y20943600D01*
X10595536Y20943600D01*
X10595536Y19216400D01*
X10622103Y19075210D01*
X10705546Y18945535D01*
X10832866Y18858541D01*
X10984000Y18827936D01*
X13016000Y18827936D01*
X13157190Y18854503D01*
X13286865Y18937946D01*
X13373859Y19065266D01*
X13404464Y19216400D01*
X13404464Y20943600D01*
X13377897Y21084790D01*
X13294454Y21214465D01*
X13167134Y21301459D01*
X13016000Y21332064D01*
X10984000Y21332064D01*
X10842810Y21305497D01*
X10713135Y21222054D01*
X10626141Y21094734D01*
X10595536Y20943600D01*
X6795143Y20943600D01*
X6965570Y21113731D01*
X7069465Y21363936D01*
X7069701Y21634855D01*
X7057190Y21665135D01*
X9618882Y21665135D01*
X9722339Y21414748D01*
X9913741Y21223013D01*
X10163946Y21119118D01*
X10434865Y21118882D01*
X10685252Y21222339D01*
X10876987Y21413741D01*
X10980882Y21663946D01*
X10981118Y21934865D01*
X10877661Y22185252D01*
X10686259Y22376987D01*
X10436054Y22480882D01*
X10165135Y22481118D01*
X9914748Y22377661D01*
X9723013Y22186259D01*
X9619118Y21936054D01*
X9618882Y21665135D01*
X7057190Y21665135D01*
X6966244Y21885242D01*
X6774842Y22076977D01*
X6524637Y22180872D01*
X6253718Y22181108D01*
X6003331Y22077651D01*
X5811596Y21886249D01*
X5707701Y21636044D01*
X5707465Y21365125D01*
X3898101Y21365125D01*
X3886259Y21376987D01*
X3636054Y21480882D01*
X3365135Y21481118D01*
X3206459Y21415555D01*
X3177661Y21485252D01*
X2986259Y21676987D01*
X2736054Y21780882D01*
X2465135Y21781118D01*
X2214748Y21677661D01*
X2023013Y21486259D01*
X1943489Y21294747D01*
X1736054Y21380882D01*
X1465135Y21381118D01*
X1214748Y21277661D01*
X1023013Y21086259D01*
X919118Y20836054D01*
X918882Y20565135D01*
X528296Y20565135D01*
X576987Y20613741D01*
X680882Y20863946D01*
X681118Y21134865D01*
X577661Y21385252D01*
X386259Y21576987D01*
X136054Y21680882D01*
X-134865Y21681118D01*
X-385252Y21577661D01*
X-500032Y21463080D01*
X-613741Y21576987D01*
X-863946Y21680882D01*
X-1134865Y21681118D01*
X-1385252Y21577661D01*
X-1500032Y21463080D01*
X-1613741Y21576987D01*
X-1863946Y21680882D01*
X-2134865Y21681118D01*
X-2385252Y21577661D01*
X-2576987Y21386259D01*
X-2680882Y21136054D01*
X-2681118Y20865135D01*
X-3953194Y20865135D01*
X-3814748Y20922339D01*
X-3623013Y21113741D01*
X-3519118Y21363946D01*
X-3518882Y21634865D01*
X-3622339Y21885252D01*
X-3813741Y22076987D01*
X-4063946Y22180882D01*
X-4334865Y22181118D01*
X-4585252Y22077661D01*
X-4776987Y21886259D01*
X-4880882Y21636054D01*
X-4881118Y21365135D01*
X-10820097Y21365135D01*
X-10832866Y21373859D01*
X-10984000Y21404464D01*
X-11205863Y21404464D01*
X-10984803Y21552172D01*
X-10681971Y22005391D01*
X-10575631Y22540000D01*
X-10660195Y22965135D01*
X3218882Y22965135D01*
X3322339Y22714748D01*
X3401793Y22635156D01*
X3319118Y22436054D01*
X3318882Y22165135D01*
X3422339Y21914748D01*
X3613741Y21723013D01*
X3863946Y21619118D01*
X4134865Y21618882D01*
X4385252Y21722339D01*
X4576987Y21913741D01*
X4680882Y22163946D01*
X4681118Y22434865D01*
X4603630Y22622404D01*
X6476151Y22622404D01*
X6579608Y22372017D01*
X6771010Y22180282D01*
X7021215Y22076387D01*
X7292134Y22076151D01*
X7542521Y22179608D01*
X7734256Y22371010D01*
X7838151Y22621215D01*
X7838387Y22892134D01*
X7734930Y23142521D01*
X7543528Y23334256D01*
X7293323Y23438151D01*
X7022404Y23438387D01*
X6772017Y23334930D01*
X6580282Y23143528D01*
X6476387Y22893323D01*
X6476151Y22622404D01*
X4603630Y22622404D01*
X4577661Y22685252D01*
X4498207Y22764844D01*
X4580882Y22963946D01*
X4581118Y23234865D01*
X4477661Y23485252D01*
X4286259Y23676987D01*
X4036054Y23780882D01*
X3765135Y23781118D01*
X3514748Y23677661D01*
X3323013Y23486259D01*
X3219118Y23236054D01*
X3218882Y22965135D01*
X-10660195Y22965135D01*
X-10681971Y23074609D01*
X-10984803Y23527828D01*
X-11438022Y23830660D01*
X-11611340Y23865135D01*
X-3681118Y23865135D01*
X-3577661Y23614748D01*
X-3386259Y23423013D01*
X-3136054Y23319118D01*
X-2865135Y23318882D01*
X-2614748Y23422339D01*
X-2423013Y23613741D01*
X-2319118Y23863946D01*
X-2318882Y24134865D01*
X-2422339Y24385252D01*
X-2613741Y24576987D01*
X-2863946Y24680882D01*
X-3134865Y24681118D01*
X-3385252Y24577661D01*
X-3576987Y24386259D01*
X-3680882Y24136054D01*
X-3681118Y23865135D01*
X-11611340Y23865135D01*
X-11972631Y23937000D01*
X-12027369Y23937000D01*
X-12561978Y23830660D01*
X-13015197Y23527828D01*
X-13318029Y23074609D01*
X-13424369Y22540000D01*
X-14019407Y22540000D01*
X-14019407Y24486857D01*
X-6821531Y24486857D01*
X-6718074Y24236470D01*
X-6526672Y24044735D01*
X-6276467Y23940840D01*
X-6005548Y23940604D01*
X-5755161Y24044061D01*
X-5563426Y24235463D01*
X-5459531Y24485668D01*
X-5459295Y24756587D01*
X-5504145Y24865135D01*
X10018882Y24865135D01*
X10122339Y24614748D01*
X10313741Y24423013D01*
X10563946Y24319118D01*
X10834865Y24318882D01*
X11085252Y24422339D01*
X11276987Y24613741D01*
X11380882Y24863946D01*
X11381118Y25134865D01*
X11277661Y25385252D01*
X11086259Y25576987D01*
X10836054Y25680882D01*
X10565135Y25681118D01*
X10314748Y25577661D01*
X10123013Y25386259D01*
X10019118Y25136054D01*
X10018882Y24865135D01*
X-5504145Y24865135D01*
X-5562752Y25006974D01*
X-5754154Y25198709D01*
X-6004359Y25302604D01*
X-6275278Y25302840D01*
X-6525665Y25199383D01*
X-6717400Y25007981D01*
X-6821295Y24757776D01*
X-6821531Y24486857D01*
X-14019407Y24486857D01*
X-14019407Y27746311D01*
X-13731222Y27746311D01*
X-13536612Y27275320D01*
X-13176575Y26914655D01*
X-12705924Y26719223D01*
X-12196311Y26718778D01*
X-11725320Y26913388D01*
X-11364655Y27273425D01*
X-11169223Y27744076D01*
X-11168778Y28253689D01*
X-11363388Y28724680D01*
X-11723425Y29085345D01*
X-12194076Y29280777D01*
X-12703689Y29281222D01*
X-13174680Y29086612D01*
X-13535345Y28726575D01*
X-13730777Y28255924D01*
X-13731222Y27746311D01*
X-14019407Y27746311D01*
X-14019407Y28742711D01*
X-14004249Y28818916D01*
X-13808459Y29111935D01*
X-13611935Y29308459D01*
X-13318916Y29504249D01*
X-13086761Y29550427D01*
X-11500407Y29550427D01*
X-11458772Y29558709D01*
X-11416323Y29558709D01*
X-11344477Y29573000D01*
X-10800000Y29573000D01*
X-10775224Y29575440D01*
X-10392541Y29651560D01*
X-10346760Y29670523D01*
X-10127000Y29817362D01*
X-10127000Y25750000D01*
M02*
